<?xml version="1.0" standalone="no"?>
<!DOCTYPE svg PUBLIC "-//W3C//DTD SVG 20010904//EN"
 "http://www.w3.org/TR/2001/REC-SVG-20010904/DTD/svg10.dtd">
<svg version="1.0" xmlns="http://www.w3.org/2000/svg"
 width="700.000000pt" height="700.000000pt" viewBox="0 0 700.000000 700.000000"
 preserveAspectRatio="xMidYMid meet">
<metadata>
Created by potrace 1.11, written by Peter Selinger 2001-2013
</metadata>
<g transform="translate(0.000000,700.000000) scale(0.100000,-0.100000)"
fill="#000000" stroke="none">
<path d="M2592 5173 c-21 -4 -76 -68 -90 -103 -11 -31 -68 -107 -121 -164
-146 -153 -301 -210 -581 -210 -143 -1 -269 7 -460 29 -176 21 -467 27 -568
12 -308 -44 -529 -197 -696 -484 -22 -38 -36 -74 -36 -96 0 -20 76 -240 180
-522 100 -268 189 -511 199 -539 10 -28 65 -175 121 -326 56 -151 113 -306
127 -345 14 -38 30 -83 37 -100 7 -16 30 -79 52 -139 47 -131 75 -166 136
-166 49 0 73 24 159 157 123 190 296 297 519 321 101 11 364 4 495 -13 170
-22 294 -30 480 -30 242 1 326 16 464 84 93 46 235 141 300 201 24 22 47 40
51 40 3 0 11 -15 17 -33 9 -30 -11 -88 -220 -655 -212 -573 -230 -626 -221
-659 19 -76 117 -106 169 -51 23 23 38 61 266 680 68 186 126 338 129 338 3 0
45 -109 94 -243 121 -329 176 -478 186 -502 5 -11 27 -72 50 -135 50 -138 76
-169 140 -166 28 2 49 10 66 27 52 52 54 46 -186 694 -122 330 -225 606 -230
614 -9 16 8 91 21 91 5 0 26 -16 46 -36 98 -94 319 -226 422 -254 119 -32 199
-39 396 -35 110 2 214 6 230 8 17 3 66 8 110 12 44 4 87 9 96 10 41 8 234 19
329 19 237 0 372 -37 506 -138 81 -61 123 -108 201 -228 65 -100 86 -118 141
-118 61 0 74 24 223 426 77 209 160 433 184 499 96 265 212 578 250 675 73
188 188 514 187 534 0 53 -101 214 -202 320 -122 129 -291 220 -470 252 -79
15 -138 19 -275 18 -142 0 -294 -8 -358 -19 -12 -2 -51 -6 -86 -9 -35 -3 -100
-9 -145 -13 -110 -10 -340 -9 -401 0 -27 5 -62 10 -76 12 -46 7 -133 44 -197
83 -82 49 -163 130 -223 222 -96 148 -96 149 -132 155 -49 9 -100 -15 -119
-56 -9 -19 -59 -152 -112 -296 -53 -144 -100 -272 -106 -285 -8 -19 -162 -436
-276 -750 -185 -505 -283 -758 -288 -749 -4 6 -20 46 -35 88 -31 84 -139 376
-496 1343 -125 338 -234 630 -242 648 -24 50 -65 67 -131 55z m346 -1241 c183
-494 332 -906 332 -915 0 -26 -141 -159 -232 -219 -180 -118 -261 -138 -548
-133 -102 2 -196 6 -210 9 -14 3 -52 7 -85 10 -117 10 -201 18 -265 25 -97 10
-367 5 -435 -8 -33 -6 -73 -14 -89 -17 -54 -10 -176 -61 -249 -106 -40 -24
-109 -80 -155 -127 -46 -46 -85 -82 -87 -80 -2 2 -10 22 -18 44 -8 22 -91 247
-185 500 -362 979 -452 1223 -452 1232 0 22 103 154 164 210 98 90 233 153
361 170 105 13 363 8 540 -12 22 -2 63 -6 90 -9 28 -3 82 -9 120 -13 39 -4
156 -7 260 -6 155 0 208 4 288 21 184 40 306 107 432 237 44 45 83 83 86 84 3
0 155 -403 337 -897z m1525 832 c77 -83 149 -137 246 -185 156 -76 287 -98
551 -94 96 2 184 6 195 8 11 3 61 8 110 12 50 4 104 9 120 11 140 18 418 25
510 12 214 -28 379 -130 501 -308 l47 -70 -76 -207 c-42 -115 -122 -332 -178
-483 -56 -151 -116 -315 -134 -365 -18 -49 -69 -187 -113 -305 -44 -118 -97
-261 -117 -317 -21 -57 -41 -103 -45 -103 -4 0 -25 21 -45 46 -123 149 -349
265 -570 290 -113 13 -387 8 -530 -10 -16 -2 -64 -7 -105 -11 -41 -3 -88 -8
-105 -11 -16 -2 -117 -6 -222 -8 -280 -6 -370 17 -556 142 -80 53 -217 186
-217 209 0 9 73 212 161 452 172 465 215 582 259 701 126 346 244 660 247 660
2 0 32 -30 66 -66z"/>
<path d="M1008 4375 c-2 -1 -43 -5 -91 -9 -96 -7 -113 -11 -99 -29 4 -7 32
-79 62 -162 29 -82 58 -156 63 -163 7 -9 29 -10 86 -5 42 4 138 7 214 7 75 0
137 2 137 5 0 6 -122 343 -126 349 -2 4 -242 10 -246 7z"/>
<path d="M2045 4329 c-27 -3 -113 -5 -191 -4 l-140 1 64 -175 c35 -97 66 -178
68 -180 12 -14 417 -1 432 14 2 2 -24 83 -59 180 l-64 175 -30 -2 c-16 -1 -52
-5 -80 -9z"/>
<path d="M2615 4134 c-50 -42 -202 -118 -272 -135 -29 -7 -53 -17 -53 -21 0
-5 29 -88 65 -186 36 -97 67 -182 70 -188 4 -14 102 11 179 45 61 27 186 109
193 126 4 12 -122 372 -136 387 -3 3 -24 -9 -46 -28z"/>
<path d="M1390 4004 c0 -11 132 -368 139 -376 7 -7 51 -14 166 -24 44 -3 91
-7 105 -9 14 -1 62 -6 107 -10 l82 -7 25 -66 c14 -37 47 -125 73 -197 l49
-130 144 0 c140 0 277 9 287 19 3 2 -26 89 -65 193 l-69 188 -44 -2 c-140 -8
-366 -10 -382 -4 -14 5 -37 55 -83 177 -35 93 -64 174 -64 180 0 28 -34 37
-185 49 -38 3 -92 8 -120 11 -145 14 -165 15 -165 8z"/>
<path d="M885 3981 c-77 -22 -161 -61 -227 -105 -99 -68 -98 -38 -16 -259 l72
-195 43 31 c24 18 51 37 60 42 10 6 33 20 53 31 48 29 195 78 212 71 13 -5
156 -374 147 -380 -2 -1 -44 -15 -92 -31 -86 -29 -225 -105 -259 -143 -16 -18
-14 -28 49 -195 l65 -176 59 43 c70 51 162 97 245 121 32 9 62 18 65 20 4 2
-22 81 -57 175 -35 94 -64 175 -64 178 0 4 6 8 13 8 6 1 39 4 72 8 33 5 124 8
203 7 78 0 142 2 142 6 0 4 -31 90 -69 192 -59 158 -72 185 -92 190 -34 9
-293 3 -360 -8 l-57 -9 -52 141 c-28 78 -55 150 -60 161 -4 11 -14 36 -22 56
l-13 36 -60 -16z"/>
<path d="M2886 3340 c-59 -46 -149 -91 -231 -116 -33 -10 -64 -21 -69 -25 -5
-4 20 -85 55 -179 l63 -172 43 7 c48 7 90 23 176 66 56 28 157 98 157 109 -1
19 -127 344 -135 346 -5 1 -32 -15 -59 -36z"/>
<path d="M1680 3222 c0 -5 27 -82 60 -170 33 -89 60 -166 60 -172 0 -5 8 -10
18 -11 9 0 28 -2 42 -4 14 -1 68 -6 120 -10 52 -4 102 -9 111 -10 62 -12 169
-16 169 -7 0 15 -119 335 -128 343 -4 4 -43 10 -87 14 -44 3 -93 8 -110 10
-16 2 -66 7 -110 10 -44 4 -95 9 -112 11 -18 3 -33 1 -33 -4z"/>
<path d="M5790 4372 l-45 -3 -60 -166 c-33 -91 -64 -171 -70 -178 -5 -8 -37
-16 -70 -19 -57 -6 -86 -9 -217 -21 -32 -3 -83 -8 -114 -11 -66 -7 -67 -27 12
187 30 80 54 149 54 155 0 5 -60 9 -142 10 -79 0 -177 2 -218 5 l-74 4 -65
-173 c-35 -94 -62 -174 -59 -177 10 -10 162 -19 296 -19 72 0 132 -2 132 -5
-1 -3 -31 -89 -69 -190 -49 -134 -73 -186 -87 -191 -16 -6 -231 -4 -388 3
l-38 2 -70 -188 c-38 -104 -68 -190 -66 -193 12 -11 150 -21 283 -20 l150 1
72 195 71 195 54 7 c29 3 85 9 123 12 39 3 94 8 123 11 28 3 75 7 104 10 28 2
54 8 58 12 4 4 38 92 75 195 64 177 69 186 96 190 68 10 393 -3 407 -16 2 -2
-24 -80 -58 -173 -35 -92 -67 -180 -72 -195 -6 -16 -13 -26 -18 -23 -28 18
-414 25 -430 9 -4 -5 -38 -92 -75 -194 -37 -102 -69 -187 -71 -189 -2 -2 -23
-5 -46 -7 -66 -4 -252 -22 -352 -33 -68 -7 -54 16 -144 -229 l-50 -134 83 7
c46 3 92 7 103 10 11 2 62 6 114 10 173 12 153 -5 226 190 34 94 67 174 71
178 16 16 337 11 425 -6 5 -1 41 83 81 188 48 129 76 191 87 193 43 8 213 -67
315 -140 38 -28 63 -31 63 -7 0 6 29 89 65 186 75 198 77 171 -25 240 -65 44
-188 99 -242 108 -21 4 -38 11 -38 15 0 5 27 84 60 175 33 91 60 170 60 175 0
16 -256 31 -390 22z"/>
<path d="M4327 4137 c-8 -18 -18 -43 -22 -57 -3 -14 -10 -34 -15 -45 -35 -82
-91 -248 -87 -259 8 -21 138 -103 216 -136 82 -35 161 -50 161 -30 0 7 29 90
65 184 36 94 65 176 65 182 0 6 -24 16 -52 23 -71 16 -204 81 -266 130 l-50
40 -15 -32z"/>
<path d="M3983 3207 c-35 -95 -63 -175 -63 -178 0 -11 118 -89 182 -121 79
-39 191 -71 197 -54 2 6 30 83 62 170 33 88 59 165 59 172 0 6 -15 14 -34 17
-61 10 -170 59 -253 113 -44 30 -83 54 -85 54 -1 0 -31 -78 -65 -173z"/>
<path d="M5700 3040 c-34 -93 -63 -172 -64 -176 0 -4 31 -17 69 -29 95 -29
173 -68 244 -120 l59 -44 60 162 c33 89 63 170 67 179 17 42 -265 197 -361
198 -6 0 -39 -76 -74 -170z"/>
</g>
</svg>
