<?xml version="1.0" encoding="utf-8"?>
<!-- Generator: Adobe Illustrator 16.0.0, SVG Export Plug-In . SVG Version: 6.00 Build 0)  -->
<!DOCTYPE svg PUBLIC "-//W3C//DTD SVG 1.1//EN" "http://www.w3.org/Graphics/SVG/1.1/DTD/svg11.dtd">
<svg version="1.1" id="Layer_1" xmlns="http://www.w3.org/2000/svg" xmlns:xlink="http://www.w3.org/1999/xlink" x="0px" y="0px"
	 width="1000px" height="1000px" viewBox="0 0 1000 1000" enable-background="new 0 0 1000 1000" xml:space="preserve">
<path fill="#FFF200" stroke="#231F20" stroke-width="40" stroke-miterlimit="10" d="M500,105.873"/>
<path fill="#FFF200" stroke="#231F20" stroke-width="40" stroke-miterlimit="10" d="M500,394.126"/>
<path fill="#ED1C24" stroke="#231F20" stroke-width="40" stroke-miterlimit="10" d="M103.747,500"/>
<path fill="#FFF200" stroke="#231F20" stroke-width="40" stroke-miterlimit="10" d="M500,105.873"/>
<path fill="#FFF200" stroke="#231F20" stroke-width="40" stroke-miterlimit="10" d="M500,394.126"/>
<path fill="#ED1C24" stroke="#231F20" stroke-width="40" stroke-miterlimit="10" d="M103.747,500"/>
<path fill="#FFF200" stroke="#231F20" stroke-width="40" stroke-miterlimit="10" d="M500,105.873"/>
<path fill="#FFF200" stroke="#231F20" stroke-width="40" stroke-miterlimit="10" d="M500,394.126"/>
<path fill="#ED1C24" stroke="#231F20" stroke-width="40" stroke-miterlimit="10" d="M103.747,500"/>
<path fill="#FFF200" stroke="#231F20" stroke-width="40" stroke-miterlimit="10" d="M500,105.873"/>
<path fill="#FFF200" stroke="#231F20" stroke-width="40" stroke-miterlimit="10" d="M500,394.126"/>
<path fill="#ED1C24" stroke="#231F20" stroke-width="40" stroke-miterlimit="10" d="M103.747,500"/>
<path opacity="0.9" fill="#FFFFFF" enable-background="new    " d="M895.859,490H990V10H510l-0.001,96.005
	c-0.456,34.579-24.085,63.792-51.599,63.792c-9.654,0-19.249-3.649-27.745-10.552c-7.871-6.395-15.905-9.775-23.235-9.775
	c-19.114,0-41.436,26.328-41.436,100.53c0,74.201,22.32,100.53,41.437,100.53c7.329,0,15.363-3.38,23.233-9.775
	c8.497-6.903,18.092-10.552,27.746-10.552c27.514,0,51.143,29.213,51.599,63.792l0.001,0.132V490h96.168
	c18.412-0.262,36.148-9.835,42.188-22.778c3.738-8.012,2.377-16.063-4.048-23.937c-14.438-17.689-18.141-37.476-10.161-54.287
	c13.166-27.737,54.67-43.013,116.866-43.013c62.197,0,103.701,15.276,116.867,43.013c7.979,16.811,4.273,36.598-10.163,54.287
	c-6.424,7.872-7.786,15.925-4.047,23.937C859.71,480.165,877.446,489.738,895.859,490z"/>
<g>
	<path fill="#58595B" d="M456.653,257.882l0.12,5.46c0,2.28-0.382,4.22-1.142,5.82c-0.761,1.599-1.989,3.02-3.688,4.26
		c-1.7,1.24-4.03,2.42-6.989,3.54l-2.46-4.32v-0.72c2.479-1.28,4.229-2.55,5.25-3.81c1.02-1.26,1.529-2.889,1.529-4.891v-4.56
		l-0.359-20.7l-6.36,0.18l-0.6-0.6l0.42-5.58h14.7L456.653,257.882z"/>
	<path fill="#58595B" d="M491.934,270.602h-7.619l-0.841-4.38l-0.54-1.74l-6.119-0.06l-5.399,0.12l-0.42,1.26l-0.899,4.8h-7.381
		l10.62-30.3h8.94L491.934,270.602z M474.054,236.942l-1.92-3c4.642-3.72,8.259-6.78,10.859-9.18l0.78,0.062l2.88,4.32l-0.12,0.78
		c-0.88,0.561-1.54,0.96-1.979,1.2c-5.001,3.081-8.241,5.04-9.721,5.88L474.054,236.942z M481.313,258.782l-3.42-11.58h-0.479
		l-4.021,11.58l3.899,0.06L481.313,258.782z"/>
	<path fill="#58595B" d="M515.753,240.902l-0.42,5.76l-6.12-0.42h-1.74l-0.18,14.64l0.24,9.72h-7.5l0.3-9l-0.12-15.36h-1.74
		l-6.237,0.42l-0.48-0.6l0.42-5.76h23.16L515.753,240.902z"/>
	<path fill="#58595B" d="M542.094,264.482l0.479,0.48l-0.54,5.64h-20.76l0.3-9l-0.3-21.3h21.061l0.42,0.6l-0.479,5.58l-7.802-0.3
		h-5.64l-0.12,6.12l5.399,0.061l5.221-0.18l0.42,0.54l-0.479,5.7l-5.7-0.18h-4.979l-0.061,2.64l0.12,3.84h5.278L542.094,264.482z
		 M527.874,236.942l-1.921-3c4.64-3.72,8.26-6.78,10.859-9.18l0.779,0.062l2.88,4.32l-0.118,0.78c-0.882,0.561-1.541,0.96-1.979,1.2
		c-5.001,3.081-8.241,5.04-9.721,5.88L527.874,236.942z"/>
	<path fill="#58595B" d="M575.333,268.982l-0.18,0.9c-2.723,0.681-5.201,1.1-7.44,1.26l-0.96-0.42
		c-3.96-5.24-7.54-10.299-10.74-15.18l-0.12,5.34l0.303,9.72h-7.563l0.3-9l-0.3-21.3h7.682l-0.302,13.68l8.28-10.62l1.86-3.061
		l8.277-0.06l-10.979,14.34C567.093,259.463,571.053,264.263,575.333,268.982z"/>
</g>
<path fill="#DF9D26" d="M866.071,123.512c-5.416,0-9.82-4.404-9.82-9.818c0-1.66-1.346-3.006-3.006-3.006s-3.006,1.346-3.006,3.006
	c0,5.414-4.404,9.818-9.818,9.818c-1.662,0-3.008,1.346-3.008,3.006c0,1.66,1.346,3.006,3.008,3.006c5.414,0,9.818,4.406,9.818,9.82
	c0,1.66,1.346,3.006,3.006,3.006s3.006-1.346,3.006-3.006c0-5.414,4.404-9.82,9.82-9.82c1.659,0,3.006-1.346,3.006-3.006
	C869.077,124.858,867.73,123.512,866.071,123.512L866.071,123.512z M853.245,130.072c-0.988-1.363-2.189-2.564-3.553-3.555
	c1.361-0.988,2.563-2.189,3.553-3.553c0.987,1.363,2.19,2.564,3.555,3.553C855.438,127.508,854.232,128.709,853.245,130.072
	L853.245,130.072z"/>
<path fill="#DF9D26" d="M692.933,123.512c-5.413,0-9.818-4.404-9.818-9.818c0-1.66-1.347-3.006-3.006-3.006
	c-1.66,0-3.007,1.346-3.007,3.006c0,5.414-4.403,9.818-9.817,9.818c-1.66,0-3.006,1.346-3.006,3.006c0,1.66,1.346,3.006,3.006,3.006
	c5.414,0,9.817,4.406,9.817,9.82c0,1.66,1.347,3.006,3.007,3.006c1.659,0,3.006-1.346,3.006-3.006c0-5.414,4.405-9.82,9.818-9.82
	c1.66,0,3.007-1.346,3.007-3.006C695.939,124.858,694.593,123.512,692.933,123.512L692.933,123.512z M680.105,130.072
	c-0.987-1.363-2.188-2.564-3.554-3.555c1.363-0.988,2.564-2.189,3.554-3.553c0.989,1.363,2.19,2.564,3.556,3.553
	C682.298,127.508,681.097,128.709,680.105,130.072L680.105,130.072z"/>
<path fill="#DF9D26" d="M782.708,85.037c-7.185,0-13.025-5.844-13.025-13.025c0-1.66-1.346-3.006-3.006-3.006
	c-1.659,0-3.006,1.346-3.006,3.006c0,7.182-5.844,13.025-13.024,13.025c-1.659,0-3.007,1.346-3.007,3.006s1.348,3.006,3.007,3.006
	c7.183,0,13.024,5.844,13.024,13.025c0,1.662,1.347,3.008,3.006,3.008c1.66,0,3.006-1.346,3.006-3.008
	c0-7.182,5.846-13.025,13.025-13.025c1.66,0,3.006-1.346,3.006-3.006S784.368,85.037,782.708,85.037L782.708,85.037z
	 M766.677,93.816c-1.484-2.313-3.461-4.287-5.771-5.773c2.313-1.486,4.287-3.459,5.771-5.773c1.486,2.314,3.459,4.287,5.773,5.773
	C770.136,89.529,768.163,91.504,766.677,93.816L766.677,93.816z"/>
<path fill="#A91E23" d="M829.259,170.406l-11.692-33.131c-0.875-2.479-3.229-4.145-5.856-4.145h-90.865
	c-2.629,0-4.98,1.666-5.855,4.145l-11.693,33.131c-0.68,1.924,0.797,4.006,2.834,4.006h120.299c0.977,0,1.891-0.475,2.453-1.27
	C829.439,172.346,829.583,171.326,829.259,170.406L829.259,170.406z M710.376,168.4l10.277-29.125
	c0.025-0.076,0.105-0.133,0.188-0.133h90.865c0.082,0,0.162,0.057,0.188,0.135l10.278,29.123H710.376z"/>
<path fill="#A91E23" d="M823.989,210.082c-10.677,0-19.039,5.545-19.039,12.625c0,7.078,8.362,12.625,19.039,12.625
	c10.674,0,19.037-5.547,19.037-12.625C843.026,215.627,834.663,210.082,823.989,210.082L823.989,210.082z M823.989,229.318
	c-7.457,0-13.027-3.49-13.027-6.611c0-3.123,5.57-6.613,13.027-6.613c7.455,0,13.023,3.49,13.023,6.613
	C837.015,225.828,831.444,229.318,823.989,229.318L823.989,229.318z"/>
<path fill="#A91E23" d="M708.563,210.082c-10.676,0-19.035,5.545-19.035,12.625c0,7.078,8.359,12.625,19.035,12.625
	s19.037-5.547,19.037-12.625C727.602,215.627,719.237,210.082,708.563,210.082L708.563,210.082z M708.563,229.318
	c-7.453,0-13.023-3.49-13.023-6.611c0-3.123,5.57-6.613,13.023-6.613c7.455,0,13.025,3.49,13.025,6.613
	C721.589,225.828,716.02,229.318,708.563,229.318L708.563,229.318z"/>
<path fill="#A91E23" d="M862.464,165.193h-16.031c-1.379,0-2.581,0.939-2.916,2.277l-2.109,8.445l-14.771-41.842
	c-2.229-6.316-8.229-10.563-14.928-10.563h-90.865c-6.698,0-12.698,4.246-14.928,10.563l-14.769,41.844l-2.11-8.447
	c-0.336-1.338-1.539-2.277-2.916-2.277h-16.033c-1.66,0-3.006,1.346-3.006,3.006v12.826c0,1.66,1.346,3.006,3.006,3.006h16.604
	l-10.248,14.346c-1.93,2.701-2.947,5.883-2.947,9.201v37.572c0,5.205,2.523,9.832,6.416,12.719c0,0.035-0.004,0.07-0.004,0.105
	v9.619c0,3.426,2.787,6.213,6.211,6.213h19.236c3.428,0,6.215-2.787,6.215-6.213v-6.613h109.41v6.613
	c0,3.426,2.787,6.213,6.215,6.213h19.234c3.428,0,6.213-2.787,6.213-6.213v-9.619c0-0.035-0.004-0.07-0.006-0.105
	c3.893-2.887,6.418-7.514,6.418-12.719v-37.572c0-3.318-1.02-6.5-2.947-9.201l-10.246-14.346h16.602
	c1.662,0,3.008-1.346,3.008-3.006v-12.826C865.47,166.539,864.124,165.193,862.464,165.193L862.464,165.193z M673.093,178.02v-6.814
	h10.682l1.702,6.814H673.093z M705.558,267.594c0,0.111-0.09,0.201-0.2,0.201H686.12c-0.111,0-0.201-0.09-0.201-0.201v-6.613h19.639
	V267.594z M846.632,267.594c0,0.111-0.09,0.201-0.198,0.201h-19.237c-0.111,0-0.201-0.09-0.201-0.201v-6.613h19.639L846.632,267.594
	L846.632,267.594z M843.227,254.969H689.327c-4.365,0-8.074-2.865-9.349-6.813h172.597
	C851.3,252.104,847.593,254.969,843.227,254.969L843.227,254.969z M792.126,222.506v6.813h-51.701v-6.813H792.126z M740.896,216.494
	c1.272-3.949,4.979-6.814,9.349-6.814h32.063c4.365,0,8.074,2.865,9.348,6.814H740.896z M792.126,235.33v6.814h-51.701v-6.814
	H792.126z M851.216,201.871c1.197,1.676,1.83,3.648,1.83,5.707v34.566h-54.908V219.5c0-8.729-7.102-15.83-15.83-15.83h-32.063
	c-8.73,0-15.832,7.102-15.832,15.83v22.645h-54.906v-34.566c0-2.059,0.631-4.031,1.828-5.707l12.744-17.84h110.672
	c1.66,0,3.006-1.346,3.006-3.006c0-1.66-1.346-3.006-3.006-3.006H696.78l14.803-41.945c1.383-3.918,5.104-6.551,9.26-6.551h90.865
	c4.156,0,7.877,2.633,9.26,6.551l14.804,41.945h-18.194c-1.66,0-3.006,1.346-3.006,3.006c0,1.66,1.346,3.006,3.006,3.006h20.896
	L851.216,201.871z M859.458,178.02h-12.383l1.703-6.814h10.68V178.02z"/>
<path fill="#A91E23" d="M718.181,200.463h-19.234c-1.66,0-3.006,1.346-3.006,3.006c0,1.66,1.346,3.006,3.006,3.006h19.234
	c1.66,0,3.009-1.346,3.009-3.006C721.189,201.809,719.841,200.463,718.181,200.463L718.181,200.463z"/>
<path fill="#A91E23" d="M833.605,200.463H814.37c-1.66,0-3.006,1.346-3.006,3.006c0,1.66,1.346,3.006,3.006,3.006h19.235
	c1.659,0,3.007-1.346,3.007-3.006C836.612,201.809,835.268,200.463,833.605,200.463L833.605,200.463z"/>
</svg>
