<?xml version="1.0" encoding="utf-8"?>
<!-- Generator: Adobe Illustrator 16.0.0, SVG Export Plug-In . SVG Version: 6.00 Build 0)  -->
<!DOCTYPE svg PUBLIC "-//W3C//DTD SVG 1.1//EN" "http://www.w3.org/Graphics/SVG/1.1/DTD/svg11.dtd">
<svg version="1.1" id="Layer_1" xmlns="http://www.w3.org/2000/svg" xmlns:xlink="http://www.w3.org/1999/xlink" x="0px" y="0px"
	 width="1000px" height="1000px" viewBox="0 0 1000 1000" enable-background="new 0 0 1000 1000" xml:space="preserve">
<path fill="#FFF200" stroke="#231F20" stroke-width="40" stroke-miterlimit="10" d="M500,105.873"/>
<path fill="#FFF200" stroke="#231F20" stroke-width="40" stroke-miterlimit="10" d="M500,394.126"/>
<path fill="#ED1C24" stroke="#231F20" stroke-width="40" stroke-miterlimit="10" d="M103.747,500"/>
<path fill="#FFF200" stroke="#231F20" stroke-width="40" stroke-miterlimit="10" d="M500,105.873"/>
<path fill="#FFF200" stroke="#231F20" stroke-width="40" stroke-miterlimit="10" d="M500,394.126"/>
<path fill="#ED1C24" stroke="#231F20" stroke-width="40" stroke-miterlimit="10" d="M103.747,500"/>
<path fill="#FFF200" stroke="#231F20" stroke-width="40" stroke-miterlimit="10" d="M500,105.873"/>
<path fill="#FFF200" stroke="#231F20" stroke-width="40" stroke-miterlimit="10" d="M500,394.126"/>
<path fill="#ED1C24" stroke="#231F20" stroke-width="40" stroke-miterlimit="10" d="M103.747,500"/>
<g opacity="0.9">
	<path fill="#FFFFFF" d="M490,490v-95.807c-0.332-23.031-15.381-43.99-31.6-43.99c-5.082,0-10.174,2.044-15.135,6.074
		c-11.476,9.324-23.871,14.253-35.846,14.253c-18.216,0-34.14-11.206-44.837-31.552c-11.016-20.947-16.6-50.884-16.6-88.978
		c0-38.097,5.584-68.034,16.598-88.98c10.698-20.345,26.622-31.55,44.839-31.55c11.975,0,24.37,4.929,35.846,14.253
		c4.961,4.03,10.053,6.074,15.135,6.074c16.219,0,31.268-20.959,31.6-43.99V10H10v480l94.344,0.001
		c26.122,0.343,50.84,14.456,60.109,34.32c6.954,14.902,4.521,31.318-6.678,45.04c-5.497,6.735-13.793,19.988-7.588,33.063
		c9.389,19.78,46.322,31.589,98.799,31.589s89.411-11.809,98.799-31.589c6.206-13.075-2.09-26.328-7.588-33.063
		c-11.197-13.721-13.631-30.138-6.678-45.04c9.27-19.864,33.986-33.979,60.108-34.32L393.76,490H490L490,490z"/>
</g>
<path fill="#FFF200" stroke="#231F20" stroke-width="40" stroke-miterlimit="10" d="M500,105.873"/>
<path fill="#FFF200" stroke="#231F20" stroke-width="40" stroke-miterlimit="10" d="M500,394.126"/>
<path fill="#ED1C24" stroke="#231F20" stroke-width="40" stroke-miterlimit="10" d="M103.747,500"/>
<g>
	<path fill="#58595B" d="M94.693,426.414l-0.12,0.9c-2.241,0.561-4.88,1.02-7.92,1.38l-0.96-0.48c-5.241-6.96-9.9-13.64-13.98-20.04
		l-0.12,7.68l0.3,12.24h-8.1l0.42-11.52l-0.42-27.12h8.22l-0.3,17.94l10.86-14.22l2.22-3.72h8.76l-13.68,18.24
		C84.152,413.655,89.092,419.895,94.693,426.414z"/>
	<path fill="#58595B" d="M124.093,426.354l-0.06,0.84c-2.48,0.76-4.92,1.22-7.32,1.38l-1.08-0.72c-2.241-3.88-3.98-7.06-5.22-9.541
		h-4.62v0.06l0.3,9.72h-7.56l0.3-9l-0.3-21.3l13.08-0.06c3.399,0,6.03,0.79,7.89,2.37c1.86,1.581,2.79,3.831,2.79,6.75
		c0,1.881-0.501,3.63-1.5,5.25c-1,1.62-2.4,2.97-4.2,4.05C119.272,420.035,121.772,423.435,124.093,426.354z M105.913,412.554
		l4.5,0.24c1.359-0.44,2.36-1.08,3-1.92s0.96-1.92,0.96-3.24c0-1.44-0.42-2.51-1.26-3.21c-0.84-0.699-2.16-1.089-3.96-1.17
		l-3.06,0.12L105.913,412.554z"/>
	<path fill="#58595B" d="M150.792,421.974l0.48,0.48l-0.54,5.64h-20.76l0.3-9l-0.3-21.3h21.06l0.42,0.6l-0.48,5.58l-7.8-0.3h-5.64
		l-0.12,6.12l5.4,0.06l5.22-0.18l0.42,0.54l-0.48,5.7l-5.7-0.18h-4.98l-0.06,2.64l0.12,3.84h5.28L150.792,421.974z"/>
	<path fill="#58595B" d="M183.192,428.094h-7.62l-0.84-4.38l-0.54-1.74l-6.12-0.06l-5.4,0.12l-0.42,1.26l-0.9,4.8h-7.38l10.62-30.3
		h8.94L183.192,428.094z M172.572,416.274l-3.42-11.58h-0.48l-4.02,11.58l3.9,0.06L172.572,416.274z"/>
	<path fill="#58595B" d="M207.011,398.394l-0.42,5.76l-6.12-0.42h-1.74l-0.18,14.64l0.24,9.72h-7.5l0.3-9l-0.12-15.36h-1.74
		l-6.24,0.42l-0.48-0.6l0.42-5.76h23.16L207.011,398.394z"/>
	<path fill="#58595B" d="M219.792,418.374l0.3,9.72h-7.56l0.3-9l-0.3-21.3h7.68L219.792,418.374z"/>
	<path fill="#58595B" d="M244.151,428.094h-9.06l-9.6-30.3h7.62l0.9,4.38l5.521,19.021h0.479l6.42-18.601l0.84-4.8h7.44
		L244.151,428.094z"/>
	<path fill="#58595B" d="M266.892,418.374l0.3,9.72h-7.56l0.3-9l-0.3-21.3h7.68L266.892,418.374z"/>
	<path fill="#58595B" d="M296.952,398.394l-0.42,5.76l-6.12-0.42h-1.74l-0.18,14.64l0.24,9.72h-7.5l0.3-9l-0.12-15.36h-1.74
		l-6.24,0.42l-0.48-0.6l0.42-5.76h23.16L296.952,398.394z"/>
	<path fill="#58595B" d="M325.512,428.094h-7.62l-0.84-4.38l-0.54-1.74l-6.12-0.06l-5.399,0.12l-0.42,1.26l-0.9,4.8h-7.38
		l10.62-30.3h8.939L325.512,428.094z M307.632,394.434l-1.92-3c4.64-3.72,8.259-6.78,10.86-9.18l0.779,0.06l2.881,4.32l-0.12,0.78
		c-0.88,0.561-1.54,0.96-1.98,1.2c-5,3.081-8.241,5.04-9.72,5.88L307.632,394.434z M314.892,416.274l-3.42-11.58h-0.479
		l-4.021,11.58l3.9,0.06L314.892,416.274z"/>
	<path fill="#58595B" d="M350.412,398.874l-1.141,6.72l-1.079,0.3c-1.281-0.96-2.521-1.68-3.721-2.16s-2.301-0.72-3.3-0.72
		c-1.121,0-2.001,0.27-2.64,0.81c-0.641,0.54-0.96,1.19-0.96,1.95c0,0.84,0.398,1.53,1.199,2.07s2.061,1.17,3.78,1.89
		c1.8,0.76,3.271,1.46,4.41,2.1s2.12,1.53,2.94,2.67c0.818,1.14,1.229,2.57,1.229,4.29c0,1.72-0.45,3.33-1.35,4.83
		c-0.9,1.5-2.261,2.71-4.08,3.63c-1.821,0.919-4.071,1.38-6.75,1.38c-1.44,0-3.01-0.149-4.71-0.45c-1.701-0.3-3.352-0.77-4.95-1.409
		l1.021-7.081l0.779-0.54c1.32,1.2,2.799,2.161,4.44,2.88c1.64,0.72,3.099,1.08,4.38,1.08c1.12,0,2.03-0.279,2.729-0.84
		c0.7-0.561,1.051-1.261,1.051-2.101c0-0.879-0.411-1.59-1.23-2.13c-0.82-0.54-2.091-1.149-3.81-1.83
		c-1.801-0.759-3.271-1.47-4.41-2.13c-1.141-0.66-2.121-1.57-2.94-2.73s-1.229-2.6-1.229-4.32c0-1.8,0.488-3.439,1.47-4.92
		c0.979-1.479,2.379-2.64,4.2-3.48c1.82-0.84,3.95-1.26,6.39-1.26C345.012,397.374,347.771,397.875,350.412,398.874z"/>
</g>
<path fill="#DF9D26" d="M216.569,232.864l-7.287-3.266c-2.352-1.055-4.227-2.928-5.279-5.279l-3.266-7.287
	c-0.484-1.078-1.555-1.771-2.734-1.771c-1.179,0-2.25,0.693-2.732,1.771l-3.268,7.287c-1.053,2.352-2.928,4.225-5.277,5.279
	l-7.29,3.266c-1.078,0.482-1.77,1.555-1.77,2.734c0,1.179,0.692,2.25,1.77,2.732l7.29,3.268c2.35,1.053,4.225,2.928,5.277,5.277
	l3.268,7.289c0.482,1.076,1.553,1.77,2.732,1.77c1.182,0,2.25-0.691,2.734-1.77l3.266-7.289c1.053-2.35,2.928-4.225,5.279-5.277
	l7.287-3.268c1.078-0.482,1.771-1.553,1.771-2.732C218.34,234.419,217.647,233.346,216.569,232.864L216.569,232.864z
	 M206.831,236.131c-3.693,1.654-6.639,4.602-8.295,8.295l-0.533,1.189l-0.533-1.189c-1.656-3.693-4.602-6.641-8.295-8.295
	l-1.189-0.533l1.189-0.533c3.694-1.656,6.639-4.602,8.295-8.295l0.533-1.191l0.533,1.191c1.656,3.693,4.602,6.639,8.295,8.295
	l1.189,0.533L206.831,236.131z"/>
<path fill="#DF9D26" d="M132.365,156.762l-7.289-3.266c-2.352-1.055-4.227-2.93-5.279-5.279l-3.266-7.289
	c-0.482-1.076-1.553-1.77-2.734-1.77c-1.18,0-2.25,0.691-2.732,1.77l-3.268,7.289c-1.053,2.35-2.928,4.225-5.278,5.279l-7.289,3.266
	c-1.076,0.482-1.769,1.553-1.769,2.734c0,1.18,0.693,2.25,1.769,2.732l7.289,3.266c2.35,1.055,4.225,2.93,5.279,5.279l3.266,7.289
	c0.482,1.076,1.552,1.77,2.732,1.77c1.179,0,2.25-0.693,2.734-1.77l3.266-7.289c1.054-2.35,2.927-4.225,5.279-5.279l7.289-3.266
	c1.077-0.482,1.77-1.553,1.77-2.732C134.135,158.315,133.442,157.245,132.365,156.762L132.365,156.762z M122.625,160.03
	c-3.693,1.654-6.639,4.602-8.295,8.295l-0.533,1.189l-0.534-1.189c-1.656-3.693-4.602-6.639-8.295-8.295l-1.189-0.533l1.189-0.535
	c3.693-1.654,6.639-4.6,8.295-8.295l0.534-1.189l0.533,1.189c1.656,3.693,4.602,6.641,8.295,8.295l1.189,0.535L122.625,160.03z"/>
<path fill="#DF9D26" d="M295.938,143.764l-6.508-2.916c-2.027-0.908-3.645-2.525-4.553-4.553l-2.916-6.508
	c-0.482-1.078-1.555-1.77-2.734-1.77s-2.25,0.691-2.732,1.77l-2.916,6.508c-0.91,2.027-2.525,3.643-4.553,4.553l-6.508,2.916
	c-1.078,0.482-1.77,1.553-1.77,2.734c0,1.18,0.691,2.25,1.77,2.732l6.508,2.916c2.027,0.908,3.643,2.525,4.551,4.553l2.918,6.508
	c0.482,1.076,1.553,1.77,2.732,1.77c1.179,0,2.25-0.691,2.734-1.77l2.916-6.508c0.908-2.027,2.525-3.646,4.551-4.553l6.508-2.916
	c1.078-0.482,1.771-1.553,1.771-2.732C297.708,145.317,297.014,144.247,295.938,143.764L295.938,143.764z M286.979,146.68
	c-3.369,1.512-6.057,4.199-7.568,7.568l-0.184,0.41l-0.184-0.41c-1.51-3.369-4.197-6.057-7.568-7.568l-0.408-0.184l0.408-0.184
	c3.371-1.51,6.059-4.197,7.568-7.566l0.184-0.41l0.184,0.41c1.51,3.369,4.199,6.057,7.568,7.566l0.41,0.184L286.979,146.68z"/>
<path fill="#A91E23" d="M279.903,198.663c-0.563-0.566-1.326-0.883-2.123-0.883h-18.408V161.5c0-0.49-0.119-0.949-0.328-1.357
	c-0.004-0.01-0.008-0.02-0.012-0.027l-8.293-16.375l-7.256-14.326c-0.51-1.008-1.543-1.643-2.672-1.643s-2.162,0.635-2.672,1.643
	l-7.258,14.326c0,0.002,0,0.002,0,0.004l-8.293,16.371c-0.004,0.008-0.008,0.02-0.012,0.027c-0.209,0.408-0.328,0.867-0.328,1.357
	v15.787c0,1.654,1.342,2.996,2.996,2.996c1.654,0,2.994-1.342,2.994-2.996v-12.793h25.143v33.266h-25.143v-8.492
	c0-1.654-1.34-2.996-2.994-2.996c-1.654,0-2.996,1.342-2.996,2.996v8.512h-5.881V130.3c0-1.656-1.34-2.996-2.994-2.996h-30.741
	c-1.654,0-2.996,1.34-2.996,2.996v12.912c0,1.654,1.342,2.996,2.996,2.996c1.653,0,2.995-1.342,2.995-2.996v-9.918h24.75v12.914
	h-6.447c-1.654,0-2.996,1.34-2.996,2.994c0,1.654,1.342,2.996,2.996,2.996h6.447v7.344h-10.264c-1.654,0-2.996,1.342-2.996,2.996
	c0,1.654,1.34,2.996,2.996,2.996h10.264v7.346h-6.447c-1.654,0-2.996,1.34-2.996,2.994c0,1.654,1.342,2.996,2.996,2.996h6.447v7.346
	h-10.264c-1.654,0-2.996,1.34-2.996,2.994c0,1.654,1.34,2.996,2.996,2.996h10.264v5.559h-24.75v-42.572
	c0-1.654-1.34-2.996-2.995-2.996c-1.654,0-2.996,1.34-2.996,2.996v42.588h-7.5l-2.053-12.934c1.412-0.242,2.488-1.469,2.488-2.949
	v-11.203c0-1.422-0.99-2.607-2.316-2.916c1.492-2.531,2.316-5.447,2.316-8.48c0-1.359,0-5.498-7.225-18.773
	c-3.441-6.324-6.826-11.619-6.968-11.842c-0.551-0.859-1.502-1.379-2.521-1.379c-1.021,0-1.973,0.52-2.524,1.379
	c-0.14,0.223-3.527,5.52-6.969,11.842c-7.225,13.275-7.225,17.414-7.225,18.773c0,3.033,0.824,5.949,2.316,8.482
	c-1.326,0.307-2.316,1.494-2.316,2.914v11.203c0,1.482,1.076,2.707,2.489,2.949l-2.053,12.934H129.11
	c-1.237,0-2.346,0.76-2.793,1.914c-4.502,11.639-12.858,31.855-17.436,42.869c-0.991,2.379-0.727,5.078,0.703,7.221
	c1.43,2.145,3.824,3.424,6.402,3.424h9.422c1.377,7.1,5.477,27.516,8.676,35.961c3.002,7.928,10.102,12.547,20.529,13.361
	c4.365,0.34,8.422-0.062,11.072-0.461l4.887,27.563c0.254,1.43,1.497,2.473,2.949,2.473h81.612c0.875,0,1.705-0.383,2.273-1.047
	c0.57-0.662,0.82-1.541,0.688-2.406l-7.398-47.881c4.467-6.535,8.492-13.051,11.973-19.385c0.797-1.449,0.268-3.27-1.182-4.066
	c-1.45-0.796-3.271-0.268-4.068,1.182c-3.557,6.473-7.705,13.152-12.33,19.854c-0.434,0.629-0.611,1.402-0.494,2.158l7.045,45.603
	h-75.608l-4.975-28.066c-0.143-0.814-0.619-1.533-1.313-1.986c-0.693-0.451-1.543-0.598-2.345-0.4
	c-0.223,0.055-22.446,5.293-27.713-8.615c-3.633-9.592-8.804-37.107-8.855-37.385c-0.266-1.416-1.504-2.443-2.945-2.443h-11.898
	c-0.824,0-1.268-0.531-1.419-0.758c-0.151-0.229-0.469-0.84-0.155-1.596c4.348-10.461,12.094-29.205,16.746-41.094h143.557
	c-0.564,13.633-4.564,28.471-11.91,44.156c-0.701,1.498-0.055,3.281,1.443,3.982c1.498,0.701,3.281,0.057,3.982-1.441
	c8.26-17.641,12.479-34.354,12.543-49.68C280.778,199.991,280.465,199.227,279.903,198.663L279.903,198.663z M240.811,137.395
	l2.383,4.705h-4.766L240.811,137.395z M230.135,158.473l5.26-10.383h10.832l5.26,10.383H230.135z M145.645,197.76l2.043-12.869
	h16.34l2.041,12.869H145.645z M166.582,178.903h-21.451v-5.213h21.451V178.903z M162.526,167.7h-13.338
	c-2.555-2.029-4.056-5.111-4.056-8.4c0-2.348,2.958-10.564,10.708-23.316c1.213,2.021,2.734,4.627,4.247,7.406
	c5.863,10.773,6.496,14.715,6.496,15.91C166.582,162.588,165.08,165.67,162.526,167.7L162.526,167.7z"/>
</svg>
