<?xml version="1.0" encoding="utf-8"?>
<!-- Generator: Adobe Illustrator 16.0.0, SVG Export Plug-In . SVG Version: 6.00 Build 0)  -->
<!DOCTYPE svg PUBLIC "-//W3C//DTD SVG 1.1//EN" "http://www.w3.org/Graphics/SVG/1.1/DTD/svg11.dtd">
<svg version="1.1" id="Layer_1" xmlns="http://www.w3.org/2000/svg" xmlns:xlink="http://www.w3.org/1999/xlink" x="0px" y="0px"
	 width="1000px" height="1000px" viewBox="0 0 1000 1000" enable-background="new 0 0 1000 1000" xml:space="preserve">
<g>
	<g>
		<path fill="#AF1F2B" d="M871.315,629.678c-20.76-26.902-47.074-42.849-79.785-48.479c-10.928-1.883-22.496-2.797-35.365-2.797
			c-18.4,0-36.688,1.884-54.375,3.701c-3.484,0.359-6.963,0.72-10.422,1.06l-4.52,0.447c-16.201,1.612-32.953,3.284-49.121,3.284
			c-14.088,0-26.297-1.271-37.318-3.877c-17.553-4.156-51.588-25.607-66.074-47.523l96.082-259.984
			c18.82,24.525,42.033,39.841,70.33,46.544c13.328,3.154,27.797,4.684,44.25,4.684c17.646,0,35.135-1.736,52.047-3.419l4.561-0.453
			c3.525-0.348,7.061-0.712,10.607-1.078c16.918-1.741,34.406-3.542,51.242-3.542c11.133,0,21.023,0.771,30.24,2.359
			c31.08,5.355,54.1,22.478,71.998,53.701L871.315,629.678z M871.315,629.678"/>
	</g>
	<g>
		<path fill="#AF1F2B" d="M38.95,374.307c17.898-31.223,40.918-48.346,71.998-53.701c9.217-1.588,19.107-2.359,30.24-2.359
			c16.836,0,34.324,1.801,51.242,3.542c3.547,0.366,7.082,0.73,10.607,1.078l4.561,0.453c16.912,1.683,34.4,3.419,52.047,3.419
			c16.453,0,30.922-1.53,44.25-4.684c28.297-6.703,51.51-22.019,70.33-46.544l96.082,259.984
			c-14.486,21.916-48.521,43.367-66.074,47.523c-11.021,2.605-23.23,3.877-37.318,3.877c-16.168,0-32.92-1.672-49.121-3.284
			l-4.52-0.447c-3.459-0.34-6.938-0.7-10.422-1.06c-17.688-1.817-35.975-3.701-54.375-3.701c-12.869,0-24.438,0.914-35.365,2.797
			c-32.711,5.63-59.025,21.576-79.785,48.479L38.95,374.307z M133.327,629.678"/>
	</g>
	<g>
		<path fill="#FFFFFF" d="M622.187,371.206c-6.885,18.629-13.77,37.26-20.652,55.896c15.945,13.451,33.068,22.466,53.711,26.426
			c6.885-18.63,13.768-37.26,20.654-55.89C655.257,393.66,638.138,384.675,622.187,371.206L622.187,371.206z M622.187,371.206"/>
		<path fill="#FFFFFF" d="M867.167,395.72c6.313-17.088,12.627-34.165,18.941-51.252c-21.023-3.39-41.543-3.365-62.756-2.071
			c-6.309,17.088-12.627,34.171-18.941,51.252C825.624,392.348,846.147,392.33,867.167,395.72L867.167,395.72z M867.167,395.72"/>
		<path fill="#FFFFFF" d="M561.937,534.229c15.947,13.464,33.076,22.466,53.715,26.433c6.313-17.083,12.625-34.17,18.939-51.247
			c-20.643-3.966-37.764-12.975-53.711-26.432C574.565,500.065,568.251,517.147,561.937,534.229L561.937,534.229z M561.937,534.229"
			/>
		<path fill="#FFFFFF" d="M860.628,585.17c6.314-17.082,12.629-34.163,18.943-51.246c-15.953-13.458-33.07-22.46-53.711-26.433
			c-6.314,17.09-12.629,34.17-18.943,51.253C827.56,562.71,844.683,571.713,860.628,585.17L860.628,585.17z M860.628,585.17"/>
		<path fill="#FFFFFF" d="M678.405,562.733c21.941-1.772,43.814-4.29,65.756-6.062c6.314-17.082,12.627-34.169,18.941-51.252
			c-21.943,1.778-43.813,4.295-65.758,6.062C691.034,528.563,684.718,545.645,678.405,562.733L678.405,562.733z M678.405,562.733"/>
		<path fill="#FFFFFF" d="M846.513,451.608c20.643,3.965,37.766,12.97,53.713,26.426c6.889-18.623,13.773-37.258,20.658-55.888
			c-15.957-13.458-33.076-22.456-53.717-26.427C860.282,414.35,853.397,432.979,846.513,451.608L846.513,451.608z M846.513,451.608"
			/>
		<path fill="#FFFFFF" d="M655.245,453.527c-6.887,18.623-13.771,37.259-20.654,55.882c21.018,3.396,41.549,3.373,62.754,2.072
			c6.885-18.631,13.771-37.26,20.656-55.889C696.786,456.898,676.269,456.916,655.245,453.527L655.245,453.527z M655.245,453.527"/>
		<path fill="#FFFFFF" d="M738.653,399.708c6.314-17.087,12.629-34.169,18.941-51.246c-21.211,1.301-41.736,1.318-62.756-2.071
			c-6.313,17.081-12.627,34.164-18.934,51.245C696.923,401.027,717.442,401.003,738.653,399.708L738.653,399.708z M738.653,399.708"
			/>
		<path fill="#FFFFFF" d="M783.757,449.537c-6.883,18.623-13.768,37.254-20.654,55.883c21.215-1.295,41.732-1.318,62.75,2.071
			c6.885-18.629,13.77-37.254,20.66-55.883C825.487,448.213,804.97,448.236,783.757,449.537L783.757,449.537z M783.757,449.537"/>
		<g>
			<defs>
				<rect id="SVGID_1_" x="420.738" y="225.087" width="576.94" height="549.826"/>
			</defs>
			<clipPath id="SVGID_2_">
				<use xlink:href="#SVGID_1_"  overflow="visible"/>
			</clipPath>
			<path clip-path="url(#SVGID_2_)" fill="#FFFFFF" d="M783.757,449.537c6.885-18.63,13.77-37.259,20.654-55.889
				c-21.943,1.771-43.814,4.289-65.758,6.06c-6.883,18.624-13.768,37.26-20.652,55.884
				C739.942,453.827,761.815,451.308,783.757,449.537L783.757,449.537z M783.757,449.537"/>
			<path clip-path="url(#SVGID_2_)" fill="#FFFFFF" d="M898.806,290.915c-10.92-1.883-22.482-2.795-35.346-2.795
				c-18.383,0-36.652,1.882-54.324,3.701c-3.506,0.359-7.002,0.719-10.486,1.06l-4.59,0.459c-16.18,1.605-32.91,3.271-49.063,3.271
				c-14.086,0-26.285-1.265-37.305-3.878c-28.883-6.832-50.334-25.254-67.523-57.978c-2.766-5.267-8.375-8.409-14.311-8.026
				s-11.092,4.232-13.15,9.81L421.675,753.426c-2.884,7.808,1.105,16.47,8.908,19.352c1.725,0.636,3.484,0.942,5.22,0.942
				c6.125,0,11.887-3.766,14.134-9.851l72.307-195.652c21.377,22.309,51.998,39.565,71.234,44.115
				c13.322,3.152,27.797,4.683,44.256,4.683c17.662,0,35.17-1.74,52.1-3.425l4.494-0.445c3.508-0.35,7.025-0.713,10.551-1.07
				c16.93-1.75,34.436-3.551,51.287-3.551c11.139,0,21.031,0.771,30.252,2.361c32.951,5.677,56.842,24.583,75.178,59.489
				c2.766,5.266,8.361,8.402,14.309,8.025c5.938-0.382,11.094-4.225,13.152-9.809l107.275-290.283c1.484-4,1.195-8.443-0.793-12.221
				C972.808,322.802,941.163,298.211,898.806,290.915L898.806,290.915z M871.315,629.678c-20.76-26.902-47.074-42.849-79.785-48.479
				c-10.928-1.883-22.496-2.797-35.365-2.797c-18.4,0-36.688,1.884-54.375,3.701c-3.484,0.359-6.963,0.72-10.422,1.06l-4.52,0.447
				c-16.201,1.612-32.953,3.284-49.121,3.284c-14.088,0-26.297-1.271-37.318-3.877c-17.553-4.156-51.588-25.607-66.074-47.523
				l96.082-259.984c18.82,24.525,42.033,39.841,70.33,46.544c13.328,3.154,27.797,4.684,44.25,4.684
				c17.646,0,35.135-1.736,52.047-3.419l4.561-0.453c3.525-0.348,7.061-0.712,10.607-1.078c16.918-1.741,34.406-3.542,51.242-3.542
				c11.133,0,21.023,0.771,30.24,2.359c31.08,5.355,54.1,22.478,71.998,53.701L871.315,629.678z M871.315,629.678"/>
		</g>
	</g>
	<g>
		<path fill="#FFFFFF" d="M382.456,371.206c-15.951,13.469-33.07,22.455-53.713,26.432c6.887,18.63,13.77,37.26,20.654,55.89
			c20.643-3.96,37.766-12.976,53.711-26.426C396.226,408.465,389.341,389.834,382.456,371.206L382.456,371.206z M382.456,371.206"/>
		<path fill="#FFFFFF" d="M137.476,395.72c21.02-3.39,41.543-3.372,62.756-2.071c-6.314-17.082-12.633-34.165-18.941-51.252
			c-21.213-1.294-41.732-1.318-62.756,2.071C124.849,361.555,131.163,378.632,137.476,395.72L137.476,395.72z M137.476,395.72"/>
		<path fill="#FFFFFF" d="M442.706,534.229c-6.314-17.082-12.629-34.164-18.943-51.246c-15.947,13.457-33.068,22.466-53.711,26.432
			c6.314,17.077,12.627,34.164,18.939,51.247C409.63,556.695,426.759,547.693,442.706,534.229L442.706,534.229z M442.706,534.229"/>
		<path fill="#FFFFFF" d="M144.015,585.17c15.945-13.457,33.068-22.46,53.711-26.426c-6.314-17.083-12.629-34.163-18.943-51.253
			c-20.641,3.973-37.758,12.975-53.711,26.433C131.386,551.007,137.7,568.088,144.015,585.17L144.015,585.17z M144.015,585.17"/>
		<path fill="#FFFFFF" d="M326.237,562.733c-6.313-17.089-12.629-34.171-18.939-51.252c-21.945-1.767-43.814-4.283-65.758-6.062
			c6.314,17.083,12.627,34.17,18.941,51.252C282.423,558.443,304.296,560.961,326.237,562.733L326.237,562.733z M326.237,562.733"/>
		<path fill="#FFFFFF" d="M158.13,451.608c-6.885-18.63-13.77-37.259-20.654-55.889c-20.641,3.971-37.76,12.968-53.717,26.427
			c6.885,18.63,13.77,37.265,20.658,55.888C120.364,464.578,137.487,455.574,158.13,451.608L158.13,451.608z M158.13,451.608"/>
		<path fill="#FFFFFF" d="M349.397,453.527c-21.023,3.389-41.541,3.371-62.756,2.065c6.885,18.629,13.771,37.258,20.656,55.889
			c21.205,1.301,41.736,1.324,62.754-2.072C363.169,490.786,356.284,472.15,349.397,453.527L349.397,453.527z M349.397,453.527"/>
		<path fill="#FFFFFF" d="M265.989,399.708c21.211,1.295,41.73,1.318,62.748-2.071c-6.307-17.082-12.621-34.164-18.934-51.245
			c-21.02,3.389-41.545,3.372-62.756,2.071C253.36,365.539,259.675,382.621,265.989,399.708L265.989,399.708z M265.989,399.708"/>
		<path fill="#FFFFFF" d="M220.886,449.537c-21.213-1.301-41.73-1.324-62.756,2.071c6.891,18.629,13.775,37.254,20.66,55.883
			c21.018-3.39,41.535-3.366,62.75-2.071C234.653,486.791,227.769,468.16,220.886,449.537L220.886,449.537z M220.886,449.537"/>
		<g>
			<defs>
				<rect id="SVGID_3_" x="6.964" y="225.087" width="576.941" height="549.826"/>
			</defs>
			<clipPath id="SVGID_4_">
				<use xlink:href="#SVGID_3_"  overflow="visible"/>
			</clipPath>
			<path clip-path="url(#SVGID_4_)" fill="#FFFFFF" d="M220.886,449.537c21.941,1.771,43.814,4.29,65.756,6.055
				c-6.885-18.624-13.77-37.26-20.652-55.884c-21.943-1.771-43.814-4.289-65.758-6.06
				C207.116,412.278,214.001,430.907,220.886,449.537L220.886,449.537z M220.886,449.537"/>
			<path clip-path="url(#SVGID_4_)" fill="#FFFFFF" d="M105.837,290.915c-42.357,7.296-74.002,31.887-96.732,75.172
				c-1.988,3.777-2.277,8.22-0.793,12.221l107.275,290.283c2.059,5.584,7.215,9.427,13.152,9.809
				c5.947,0.377,11.543-2.76,14.309-8.025c18.336-34.906,42.227-53.813,75.178-59.489c9.221-1.59,19.113-2.361,30.252-2.361
				c16.852,0,34.357,1.801,51.287,3.551c3.525,0.357,7.043,0.721,10.551,1.07l4.494,0.445c16.93,1.685,34.438,3.425,52.1,3.425
				c16.459,0,30.934-1.53,44.256-4.683c19.236-4.55,49.857-21.807,71.235-44.115l72.306,195.652
				c2.248,6.085,8.01,9.851,14.135,9.851c1.734,0,3.494-0.307,5.219-0.942c7.803-2.882,11.793-11.544,8.908-19.352L391.935,236.539
				c-2.059-5.578-7.215-9.428-13.15-9.81s-11.545,2.76-14.311,8.026c-17.189,32.723-38.641,51.146-67.523,57.978
				c-11.02,2.613-23.219,3.878-37.305,3.878c-16.152,0-32.883-1.666-49.063-3.271l-4.59-0.459c-3.484-0.341-6.98-0.7-10.486-1.06
				c-17.672-1.818-35.941-3.701-54.324-3.701C128.319,288.12,116.757,289.031,105.837,290.915L105.837,290.915z M38.95,374.307
				c17.898-31.223,40.918-48.346,71.998-53.701c9.217-1.588,19.107-2.359,30.24-2.359c16.836,0,34.324,1.801,51.242,3.542
				c3.547,0.366,7.082,0.73,10.607,1.078l4.561,0.453c16.912,1.683,34.4,3.419,52.047,3.419c16.453,0,30.922-1.53,44.25-4.684
				c28.297-6.703,51.51-22.019,70.33-46.544l96.082,259.984c-14.486,21.916-48.521,43.367-66.074,47.523
				c-11.021,2.605-23.23,3.877-37.318,3.877c-16.168,0-32.92-1.672-49.121-3.284l-4.52-0.447c-3.459-0.34-6.938-0.7-10.422-1.06
				c-17.688-1.817-35.975-3.701-54.375-3.701c-12.869,0-24.438,0.914-35.365,2.797c-32.711,5.63-59.025,21.576-79.785,48.479
				L38.95,374.307z M133.327,629.678"/>
		</g>
	</g>
</g>
</svg>
