<?xml version="1.0" encoding="utf-8"?>
<!-- Generator: Adobe Illustrator 16.0.0, SVG Export Plug-In . SVG Version: 6.00 Build 0)  -->
<!DOCTYPE svg PUBLIC "-//W3C//DTD SVG 1.1//EN" "http://www.w3.org/Graphics/SVG/1.1/DTD/svg11.dtd">
<svg version="1.1" id="Layer_1" xmlns="http://www.w3.org/2000/svg" xmlns:xlink="http://www.w3.org/1999/xlink" x="0px" y="0px"
	 width="1000px" height="1000px" viewBox="0 0 1000 1000" enable-background="new 0 0 1000 1000" xml:space="preserve">
<path fill="#AF1D2B" d="M619.865,404.485c-6.885,18.629-13.771,37.26-20.652,55.896c15.945,13.451,33.068,22.466,53.711,26.426
	c6.885-18.63,13.769-37.26,20.654-55.89C652.936,426.939,635.816,417.954,619.865,404.485L619.865,404.485z"/>
<path fill="#AF1D2B" d="M864.846,428.999c6.313-17.088,12.627-34.165,18.941-51.252c-21.023-3.39-41.543-3.365-62.756-2.071
	c-6.31,17.088-12.627,34.171-18.941,51.252C823.303,425.627,843.826,425.609,864.846,428.999L864.846,428.999z"/>
<path fill="#AF1D2B" d="M559.615,567.509c15.947,13.464,33.076,22.466,53.715,26.434c6.313-17.083,12.625-34.17,18.939-51.247
	c-20.644-3.967-37.765-12.976-53.712-26.433C572.244,533.345,565.93,550.427,559.615,567.509L559.615,567.509z"/>
<path fill="#AF1D2B" d="M858.307,618.449c6.314-17.082,12.629-34.163,18.943-51.246c-15.953-13.458-33.07-22.46-53.711-26.433
	c-6.314,17.09-12.629,34.17-18.943,51.253C825.238,595.989,842.361,604.992,858.307,618.449L858.307,618.449z"/>
<path fill="#AF1D2B" d="M676.084,596.013c21.941-1.771,43.814-4.29,65.756-6.062c6.314-17.082,12.627-34.169,18.941-51.252
	c-21.943,1.777-43.813,4.295-65.758,6.062C688.713,561.842,682.396,578.924,676.084,596.013L676.084,596.013z"/>
<path fill="#AF1D2B" d="M844.191,484.888c20.643,3.965,37.766,12.971,53.713,26.427c6.889-18.623,13.772-37.259,20.658-55.889
	c-15.957-13.458-33.076-22.456-53.718-26.427C857.961,447.629,851.076,466.258,844.191,484.888L844.191,484.888z"/>
<path fill="#AF1D2B" d="M652.924,486.807c-6.887,18.623-13.771,37.26-20.654,55.883c21.019,3.396,41.55,3.372,62.755,2.071
	c6.885-18.631,13.771-37.26,20.655-55.889C694.465,490.177,673.947,490.195,652.924,486.807L652.924,486.807z"/>
<path fill="#AF1D2B" d="M736.332,432.988c6.314-17.087,12.629-34.169,18.941-51.246c-21.212,1.301-41.736,1.318-62.757-2.071
	c-6.313,17.081-12.627,34.164-18.934,51.245C694.602,434.306,715.121,434.283,736.332,432.988L736.332,432.988z"/>
<path fill="#AF1D2B" d="M781.436,482.816c-6.883,18.623-13.768,37.254-20.653,55.883c21.215-1.295,41.731-1.318,62.75,2.071
	c6.885-18.63,13.77-37.255,20.66-55.884C823.166,481.492,802.648,481.516,781.436,482.816L781.436,482.816z"/>
<g>
	<path fill="#AF1D2B" d="M781.436,482.816c6.886-18.631,13.771-37.26,20.654-55.89c-21.943,1.771-43.813,4.289-65.758,6.061
		c-6.883,18.624-13.768,37.26-20.652,55.884C737.621,487.106,759.494,484.587,781.436,482.816L781.436,482.816z"/>
</g>
<g>
	<path fill="#AF1D2B" d="M896.484,324.194c-10.92-1.883-22.482-2.795-35.347-2.795c-18.383,0-36.651,1.882-54.323,3.701
		c-3.507,0.359-7.002,0.719-10.486,1.06l-4.59,0.459c-16.181,1.605-32.91,3.271-49.063,3.271c-14.086,0-26.285-1.265-37.305-3.878
		c-28.883-6.832-50.334-25.254-67.523-57.978c-2.766-5.267-8.375-8.409-14.311-8.026c-5.937,0.383-11.092,4.232-13.15,9.81
		L419.353,786.705c-2.883,7.808,1.105,16.47,8.908,19.352c1.726,0.637,3.485,0.942,5.221,0.942c6.125,0,11.887-3.766,14.134-9.851
		l72.306-195.652c21.378,22.309,51.999,39.565,71.235,44.115c13.322,3.151,27.797,4.683,44.256,4.683
		c17.662,0,35.17-1.74,52.1-3.425l4.494-0.445c3.508-0.35,7.025-0.713,10.551-1.069c16.931-1.75,34.437-3.552,51.287-3.552
		c11.14,0,21.031,0.771,30.252,2.361c32.951,5.677,56.842,24.583,75.179,59.489c2.766,5.266,8.36,8.401,14.309,8.024
		c5.938-0.382,11.094-4.225,13.152-9.809L994.01,411.587c1.484-4,1.195-8.443-0.793-12.221
		C970.486,356.081,938.842,331.49,896.484,324.194L896.484,324.194z M868.994,662.957c-20.76-26.902-47.074-42.849-79.785-48.479
		c-10.928-1.883-22.496-2.797-35.365-2.797c-18.399,0-36.688,1.885-54.375,3.701c-3.483,0.359-6.963,0.72-10.422,1.061l-4.52,0.446
		c-16.201,1.612-32.953,3.284-49.121,3.284c-14.088,0-26.297-1.271-37.318-3.877c-17.553-4.156-51.588-25.607-66.074-47.523
		l96.082-259.983c18.82,24.525,42.033,39.841,70.33,46.544c13.328,3.154,27.797,4.684,44.25,4.684
		c17.646,0,35.136-1.736,52.047-3.419l4.562-0.453c3.524-0.348,7.061-0.712,10.606-1.078c16.918-1.741,34.406-3.542,51.242-3.542
		c11.133,0,21.023,0.771,30.24,2.359c31.08,5.355,54.1,22.478,71.998,53.701L868.994,662.957z"/>
</g>
<path fill="#AF1D2B" d="M380.135,404.485c-15.951,13.469-33.069,22.456-53.713,26.432c6.887,18.63,13.771,37.26,20.654,55.89
	c20.643-3.96,37.766-12.976,53.711-26.426C393.904,441.745,387.02,423.114,380.135,404.485L380.135,404.485z"/>
<path fill="#AF1D2B" d="M135.154,428.999c21.02-3.39,41.543-3.372,62.756-2.071c-6.314-17.082-12.633-34.165-18.941-51.252
	c-21.213-1.294-41.732-1.318-62.756,2.071C122.527,394.834,128.842,411.911,135.154,428.999L135.154,428.999z"/>
<path fill="#AF1D2B" d="M440.385,567.509c-6.313-17.082-12.629-34.164-18.942-51.246c-15.947,13.457-33.068,22.467-53.711,26.433
	c6.313,17.077,12.627,34.164,18.938,51.247C407.309,589.975,424.438,580.973,440.385,567.509L440.385,567.509z"/>
<path fill="#AF1D2B" d="M141.693,618.449c15.945-13.457,33.068-22.46,53.711-26.427c-6.314-17.082-12.629-34.162-18.943-51.253
	c-20.641,3.974-37.758,12.976-53.711,26.434C129.064,584.286,135.379,601.367,141.693,618.449L141.693,618.449z"/>
<path fill="#AF1D2B" d="M323.916,596.013c-6.313-17.089-12.629-34.171-18.939-51.252c-21.944-1.767-43.813-4.283-65.758-6.062
	c6.314,17.083,12.627,34.17,18.941,51.252C280.102,591.723,301.975,594.24,323.916,596.013L323.916,596.013z"/>
<path fill="#AF1D2B" d="M155.809,484.888c-6.885-18.63-13.77-37.259-20.654-55.889c-20.641,3.971-37.76,12.968-53.717,26.427
	c6.885,18.63,13.77,37.266,20.658,55.889C118.043,497.857,135.166,488.853,155.809,484.888L155.809,484.888z"/>
<path fill="#AF1D2B" d="M347.076,486.807c-21.023,3.39-41.541,3.371-62.756,2.065c6.885,18.629,13.771,37.258,20.656,55.889
	c21.205,1.301,41.736,1.324,62.755-2.072C360.848,524.065,353.963,505.43,347.076,486.807L347.076,486.807z"/>
<path fill="#AF1D2B" d="M263.668,432.988c21.211,1.295,41.73,1.317,62.748-2.071c-6.307-17.082-12.621-34.164-18.934-51.245
	c-21.021,3.389-41.545,3.372-62.756,2.071C251.039,398.818,257.354,415.9,263.668,432.988L263.668,432.988z"/>
<path fill="#AF1D2B" d="M218.564,482.816c-21.213-1.302-41.73-1.324-62.756,2.07c6.891,18.629,13.775,37.254,20.66,55.884
	c21.018-3.391,41.535-3.366,62.75-2.071C232.332,520.07,225.447,501.439,218.564,482.816L218.564,482.816z"/>
<g>
	<path fill="#AF1D2B" d="M218.564,482.816c21.941,1.771,43.814,4.29,65.756,6.055c-6.885-18.624-13.77-37.26-20.652-55.884
		c-21.943-1.771-43.814-4.289-65.758-6.061C204.795,445.558,211.68,464.187,218.564,482.816L218.564,482.816z"/>
</g>
<g>
	<path fill="#AF1D2B" d="M103.516,324.194c-42.357,7.296-74.002,31.887-96.732,75.172c-1.988,3.777-2.277,8.22-0.793,12.221
		L113.266,701.87c2.059,5.584,7.215,9.427,13.152,9.809c5.947,0.377,11.543-2.76,14.309-8.024
		c18.336-34.906,42.227-53.813,75.178-59.489c9.221-1.59,19.113-2.361,30.252-2.361c16.852,0,34.357,1.801,51.287,3.551
		c3.525,0.357,7.043,0.722,10.551,1.07l4.494,0.445c16.93,1.685,34.438,3.425,52.1,3.425c16.459,0,30.935-1.53,44.256-4.683
		c19.236-4.551,49.857-21.808,71.235-44.115l72.306,195.652c2.247,6.085,8.011,9.851,14.136,9.851c1.733,0,3.493-0.307,5.219-0.942
		c7.803-2.882,11.792-11.544,8.908-19.352L389.613,269.818c-2.06-5.578-7.215-9.428-13.15-9.81
		c-5.935-0.382-11.545,2.76-14.311,8.026c-17.189,32.723-38.642,51.146-67.523,57.978c-11.02,2.613-23.219,3.878-37.305,3.878
		c-16.152,0-32.883-1.666-49.063-3.271l-4.59-0.459c-3.484-0.341-6.98-0.7-10.486-1.06c-17.672-1.818-35.941-3.701-54.324-3.701
		C125.998,321.399,114.436,322.311,103.516,324.194L103.516,324.194z M36.629,407.586c17.898-31.223,40.918-48.346,71.998-53.701
		c9.217-1.588,19.107-2.359,30.24-2.359c16.836,0,34.324,1.801,51.242,3.542c3.547,0.366,7.082,0.73,10.607,1.078l4.561,0.453
		c16.912,1.683,34.4,3.419,52.047,3.419c16.453,0,30.922-1.53,44.25-4.684c28.297-6.703,51.51-22.019,70.33-46.544l96.082,259.984
		c-14.486,21.916-48.521,43.366-66.074,47.522c-11.021,2.605-23.23,3.877-37.318,3.877c-16.168,0-32.92-1.672-49.121-3.284
		l-4.52-0.446c-3.459-0.341-6.938-0.7-10.422-1.061c-17.688-1.816-35.975-3.701-54.375-3.701c-12.869,0-24.438,0.914-35.365,2.798
		c-32.711,5.63-59.025,21.575-79.785,48.479L36.629,407.586z"/>
</g>
</svg>
