<?xml version="1.0" encoding="utf-8"?>
<!-- Generator: Adobe Illustrator 16.0.0, SVG Export Plug-In . SVG Version: 6.00 Build 0)  -->
<!DOCTYPE svg PUBLIC "-//W3C//DTD SVG 1.1//EN" "http://www.w3.org/Graphics/SVG/1.1/DTD/svg11.dtd">
<svg version="1.1" id="Layer_1" xmlns="http://www.w3.org/2000/svg" xmlns:xlink="http://www.w3.org/1999/xlink" x="0px" y="0px"
	 width="1000px" height="1000px" viewBox="0 0 1000 1000" enable-background="new 0 0 1000 1000" xml:space="preserve">
<path fill="#FFF200" stroke="#231F20" stroke-width="40" stroke-miterlimit="10" d="M500,105.873"/>
<path fill="#FFF200" stroke="#231F20" stroke-width="40" stroke-miterlimit="10" d="M500,394.126"/>
<path fill="#FFF200" stroke="#231F20" stroke-width="40" stroke-miterlimit="10" d="M500,105.873"/>
<path fill="#FFF200" stroke="#231F20" stroke-width="40" stroke-miterlimit="10" d="M500,394.126"/>
<path fill="#FFF200" stroke="#231F20" stroke-width="40" stroke-miterlimit="10" d="M500,105.873"/>
<path fill="#FFF200" stroke="#231F20" stroke-width="40" stroke-miterlimit="10" d="M500,394.126"/>
<path fill="#FFF200" stroke="#231F20" stroke-width="40" stroke-miterlimit="10" d="M500,105.873"/>
<path fill="#FFF200" stroke="#231F20" stroke-width="40" stroke-miterlimit="10" d="M500,394.126"/>
<g opacity="0.9">
	<path fill="#FFFFFF" d="M990,510l-96.005-0.001c-25.961-0.342-50.565-14.415-59.834-34.222c-6.983-14.925-4.58-31.37,6.593-45.122
		c5.49-6.756,13.768-20.048,7.525-33.161c-9.392-19.73-46.131-31.51-98.279-31.51s-88.889,11.78-98.279,31.51
		c-6.24,13.113,2.035,26.403,7.525,33.16c11.173,13.752,13.576,30.198,6.593,45.123c-9.269,19.807-33.873,33.88-59.834,34.222
		L605.873,510H510v96.168c0.01,0.662,0.034,1.322,0.067,1.981c0.01,0.198,0.023,0.397,0.036,0.598
		c0.028,0.473,0.063,0.945,0.104,1.416c0.019,0.207,0.037,0.414,0.058,0.621c0.051,0.511,0.107,1.021,0.171,1.526
		c0.019,0.14,0.033,0.278,0.053,0.416c2.257,16.897,12.022,31.615,23.635,36.202c0.005,0.002,0.009,0.004,0.013,0.006
		c0.472,0.187,0.943,0.354,1.419,0.505c0.018,0.006,0.033,0.012,0.051,0.018c0.486,0.154,0.979,0.29,1.471,0.407
		c0.002,0.001,0.004,0.002,0.006,0.002c1.489,0.354,2.999,0.54,4.52,0.54c1.236,0,2.474-0.126,3.708-0.369
		c0.075-0.015,0.151-0.031,0.227-0.047c0.553-0.115,1.104-0.254,1.656-0.418c0.061-0.019,0.12-0.033,0.18-0.053
		c1.227-0.375,2.451-0.867,3.67-1.48c0.067-0.033,0.135-0.072,0.202-0.106c0.508-0.261,1.015-0.544,1.521-0.846
		c0.152-0.091,0.306-0.185,0.456-0.278c0.438-0.271,0.874-0.562,1.312-0.863c0.157-0.109,0.314-0.215,0.474-0.328
		c0.572-0.412,1.145-0.844,1.713-1.309c0.644-0.523,1.289-1.029,1.938-1.525c0.229-0.178,0.462-0.349,0.691-0.521
		c0.412-0.309,0.825-0.61,1.239-0.908c0.29-0.208,0.579-0.414,0.868-0.615c0.335-0.232,0.67-0.458,1.005-0.684
		c1.447-0.974,2.905-1.878,4.372-2.714c0.012-0.007,0.023-0.014,0.036-0.021c8.462-4.815,17.192-7.332,25.714-7.332
		c4.67,0,9.189,0.743,13.508,2.188c0.17,0.056,0.338,0.117,0.508,0.176c0.324,0.113,0.648,0.227,0.972,0.348
		c0.33,0.123,0.656,0.254,0.983,0.386c0.159,0.063,0.318,0.126,0.478,0.191c0.448,0.187,0.895,0.383,1.34,0.586
		c0.035,0.016,0.07,0.029,0.104,0.047c0.177,0.081,0.355,0.154,0.531,0.238c0.189,0.091,0.371,0.195,0.561,0.287
		c0.38,0.188,0.756,0.383,1.132,0.581c0.711,0.375,1.412,0.771,2.104,1.184c0.066,0.039,0.133,0.077,0.198,0.116
		c7.286,4.382,13.618,10.872,18.942,19.319c0.237,0.376,0.475,0.756,0.709,1.14c0.196,0.325,0.396,0.646,0.592,0.979
		c0.52,0.878,1.027,1.779,1.525,2.695c0.022,0.044,0.047,0.088,0.069,0.132c0.197,0.363,0.396,0.724,0.59,1.093
		c0.22,0.418,0.421,0.861,0.636,1.286c0.225,0.447,0.447,0.896,0.668,1.352c0.43,0.886,0.852,1.783,1.263,2.697
		c0.023,0.052,0.046,0.104,0.069,0.156c7.641,17.049,12.166,39.229,13.512,66.175c0.025,0.491,0.049,0.982,0.072,1.478
		c0.058,1.281,0.11,2.57,0.154,3.876c0.036,1.03,0.063,2.074,0.09,3.117c0.022,0.944,0.051,1.884,0.066,2.837
		c0.036,2.101,0.06,4.22,0.06,6.368c0,2.149-0.022,4.27-0.06,6.368c-0.017,0.953-0.044,1.89-0.066,2.832
		c-0.026,1.046-0.054,2.093-0.09,3.126c-0.044,1.301-0.098,2.586-0.154,3.866c-0.023,0.499-0.048,0.996-0.073,1.491
		c-1.342,26.845-5.841,48.957-13.432,65.979c-0.064,0.146-0.128,0.292-0.192,0.438c-0.381,0.844-0.771,1.673-1.166,2.49
		c-0.261,0.542-0.526,1.075-0.793,1.605c-0.191,0.376-0.37,0.771-0.564,1.141c-0.171,0.328-0.348,0.646-0.521,0.971
		c-0.067,0.125-0.134,0.25-0.201,0.374c-0.463,0.848-0.933,1.683-1.413,2.496c-0.25,0.427-0.506,0.84-0.76,1.256
		c-0.158,0.258-0.317,0.514-0.479,0.768c-5.925,9.459-13.107,16.483-21.471,20.855c-0.318,0.168-0.639,0.333-0.959,0.491
		c-0.208,0.104-0.409,0.22-0.617,0.317c-0.67,0.317-1.346,0.61-2.022,0.891c-0.1,0.041-0.197,0.079-0.296,0.119
		c-0.388,0.157-0.774,0.312-1.163,0.456c-0.26,0.097-0.521,0.188-0.779,0.277c-0.23,0.081-0.461,0.165-0.693,0.241
		c-0.469,0.155-0.939,0.303-1.414,0.44c-0.026,0.009-0.054,0.019-0.08,0.025c-3.852,1.126-7.853,1.708-11.973,1.708
		c-0.002,0-0.004,0-0.006,0c-10.012,0.001-20.314-3.47-30.13-10.075c-0.329-0.222-0.659-0.443-0.989-0.672
		c-0.291-0.203-0.583-0.411-0.874-0.62c-0.413-0.297-0.825-0.6-1.237-0.907c-0.229-0.173-0.461-0.344-0.69-0.52
		c-0.648-0.496-1.295-1.003-1.938-1.527c-0.567-0.465-1.141-0.896-1.713-1.308c-0.157-0.113-0.314-0.219-0.473-0.328
		c-0.438-0.303-0.873-0.592-1.312-0.863c-0.151-0.095-0.305-0.188-0.457-0.279c-0.506-0.302-1.013-0.585-1.521-0.846
		c-0.067-0.034-0.134-0.072-0.201-0.105c-1.22-0.612-2.443-1.105-3.67-1.48c-0.06-0.019-0.12-0.034-0.181-0.053
		c-0.552-0.163-1.104-0.302-1.655-0.417c-0.075-0.017-0.151-0.032-0.228-0.047c-1.234-0.243-2.472-0.369-3.708-0.369
		c-0.506,0-1.011,0.021-1.515,0.062c-0.005,0-0.009,0.001-0.013,0.001c-0.5,0.041-0.999,0.102-1.496,0.181
		c-0.002,0-0.004,0.001-0.006,0.001c-0.498,0.08-0.994,0.179-1.488,0.297c-0.006,0.001-0.013,0.003-0.02,0.005
		c-0.488,0.117-0.975,0.251-1.457,0.404c-0.021,0.007-0.043,0.016-0.065,0.021c-0.471,0.15-0.939,0.315-1.405,0.499
		c-0.004,0.002-0.007,0.003-0.01,0.005c-11.612,4.586-21.381,19.305-23.638,36.202c-0.02,0.139-0.034,0.277-0.053,0.416
		c-0.063,0.507-0.12,1.018-0.171,1.527c-0.021,0.207-0.038,0.414-0.058,0.622c-0.041,0.47-0.074,0.941-0.104,1.415
		c-0.013,0.198-0.026,0.397-0.036,0.598c-0.033,0.659-0.059,1.319-0.067,1.981V990h480V510H990z"/>
</g>
<g>
	<path fill="#58595B" d="M654.315,563.445l-1.319,7.02l-1.201,0.48c-1.359-0.96-2.77-1.721-4.229-2.28
		c-1.46-0.561-2.79-0.84-3.989-0.84c-1.603,0-2.881,0.43-3.841,1.29c-0.96,0.859-1.44,1.851-1.44,2.97
		c0,1.16,0.53,2.141,1.591,2.939c1.061,0.801,2.729,1.739,5.011,2.819c2.198,1.001,3.989,1.931,5.369,2.79
		c1.381,0.86,2.56,1.99,3.54,3.391c0.979,1.4,1.471,3.119,1.471,5.159c0,2.201-0.601,4.211-1.801,6.03
		c-1.199,1.82-2.9,3.261-5.101,4.32c-2.2,1.059-4.739,1.59-7.619,1.59c-3.801,0-7.62-0.819-11.461-2.46l1.141-7.562l0.9-0.479
		c1.6,1.4,3.35,2.471,5.25,3.21c1.898,0.74,3.59,1.11,5.07,1.11c1.759,0,3.129-0.431,4.108-1.29c0.979-0.86,1.471-1.892,1.471-3.091
		c0-1.279-0.53-2.319-1.591-3.119c-1.06-0.801-2.771-1.761-5.13-2.881c-2.16-0.961-3.921-1.859-5.279-2.699
		c-1.36-0.841-2.521-1.96-3.479-3.36c-0.961-1.399-1.44-3.1-1.44-5.1c0-2.24,0.602-4.271,1.801-6.091
		c1.199-1.819,2.881-3.25,5.041-4.289c2.158-1.04,4.619-1.562,7.379-1.562C647.814,561.465,651.076,562.125,654.315,563.445z"/>
	<path fill="#58595B" d="M683.834,575.745l-15.42,19.14h9.961l5.699-0.479l0.301,0.358l-0.601,6l-7.801-0.18h-12.42l-4.08,0.18
		v-5.34l15.54-19.38h-9.66l-5.521,0.54l-0.299-0.42l0.6-6l6.66,0.12h13.74l3.299-0.062L683.834,575.745L683.834,575.745z"/>
	<path fill="#58595B" d="M714.254,573.705c2.479,2.601,3.721,6.28,3.721,11.04c0,5.2-1.351,9.229-4.051,12.09
		c-2.699,2.86-6.51,4.29-11.43,4.29c-4.521,0-8.021-1.329-10.5-3.99c-2.48-2.659-3.721-6.409-3.721-11.25
		c0-5.119,1.34-9.079,4.021-11.88c2.679-2.799,6.479-4.2,11.399-4.2C708.254,569.805,711.773,571.104,714.254,573.705z
		 M697.725,577.935c-1.061,1.342-1.591,3.651-1.591,6.932c0,2.64,0.229,4.71,0.69,6.21c0.459,1.5,1.199,2.57,2.22,3.21
		s2.39,0.96,4.11,0.96c2.52,0,4.31-0.66,5.369-1.979c1.061-1.319,1.59-3.64,1.59-6.961c0-2.64-0.239-4.71-0.72-6.21
		c-0.479-1.5-1.221-2.568-2.221-3.21c-1-0.64-2.381-0.96-4.14-0.96C700.553,575.925,698.783,576.596,697.725,577.935z
		 M709.034,554.805l2.88,4.32l-0.12,0.78c-0.88,0.561-1.54,0.96-1.979,1.199c-5.001,3.08-8.241,5.039-9.722,5.881l-0.778-0.062
		l-1.921-3c4.64-3.72,8.26-6.78,10.859-9.18L709.034,554.805z"/>
	<path fill="#58595B" d="M749.534,598.845l-0.061,0.84c-2.479,0.762-4.92,1.221-7.319,1.382l-1.08-0.722
		c-2.24-3.879-3.98-7.06-5.222-9.54h-4.618v0.062l0.3,9.72h-7.561l0.3-9l-0.3-21.3l13.08-0.062c3.398,0,6.029,0.791,7.891,2.37
		c1.859,1.581,2.79,3.831,2.79,6.75c0,1.881-0.501,3.63-1.5,5.25c-1,1.62-2.4,2.972-4.2,4.05
		C744.713,592.525,747.214,595.926,749.534,598.845z M731.354,585.045l4.5,0.24c1.359-0.439,2.36-1.08,3-1.92
		c0.642-0.84,0.962-1.92,0.962-3.24c0-1.44-0.421-2.51-1.261-3.21c-0.84-0.699-2.16-1.09-3.961-1.17l-3.06,0.12L731.354,585.045z"/>
	<path fill="#58595B" d="M781.273,600.585h-7.619l-0.842-4.38l-0.539-1.74l-6.119-0.06l-5.4,0.12l-0.42,1.26l-0.9,4.8h-7.38
		l10.62-30.3h8.939L781.273,600.585z M770.654,588.765l-3.42-11.58h-0.48l-4.02,11.58l3.898,0.062L770.654,588.765z"/>
	<path fill="#58595B" d="M813.854,598.965l-0.181,0.9c-2.721,0.681-5.2,1.1-7.439,1.26l-0.959-0.42
		c-3.962-5.24-7.541-10.3-10.74-15.18l-0.12,5.34l0.3,9.72h-7.561l0.301-9l-0.301-21.3h7.681l-0.3,13.68l8.279-10.62l1.859-3.06
		l8.28-0.062l-10.98,14.342C805.612,589.445,809.572,594.245,813.854,598.965z"/>
	<path fill="#58595B" d="M841.933,573.705c2.479,2.601,3.721,6.28,3.721,11.04c0,5.2-1.351,9.229-4.05,12.09
		c-2.7,2.86-6.511,4.29-11.431,4.29c-4.521,0-8.021-1.329-10.5-3.99c-2.48-2.659-3.72-6.409-3.72-11.25
		c0-5.119,1.34-9.079,4.02-11.88c2.681-2.799,6.48-4.2,11.4-4.2C835.933,569.805,839.452,571.104,841.933,573.705z M825.402,577.935
		c-1.062,1.342-1.59,3.651-1.59,6.932c0,2.64,0.229,4.71,0.688,6.21c0.46,1.5,1.201,2.57,2.221,3.21
		c1.021,0.64,2.391,0.96,4.109,0.96c2.521,0,4.311-0.66,5.371-1.979c1.059-1.319,1.59-3.64,1.59-6.961c0-2.64-0.24-4.71-0.721-6.21
		c-0.479-1.5-1.222-2.568-2.22-3.21c-1-0.64-2.381-0.96-4.141-0.96C828.232,575.925,826.462,576.596,825.402,577.935z"/>
	<path fill="#58595B" d="M874.092,575.745l-15.42,19.14h9.961l5.699-0.479l0.301,0.358l-0.601,6l-7.8-0.18h-12.42l-4.08,0.18v-5.34
		l15.539-19.38h-9.659l-5.521,0.54l-0.299-0.42l0.6-6l6.66,0.12h13.74l3.299-0.062L874.092,575.745L874.092,575.745z"/>
	<path fill="#58595B" d="M906.791,600.585h-7.619l-0.841-4.38l-0.54-1.74l-6.119-0.06l-5.4,0.12l-0.42,1.26l-0.899,4.8h-7.38
		l10.619-30.3h8.939L906.791,600.585z M888.911,566.925l-1.92-3c4.64-3.72,8.259-6.78,10.86-9.18l0.778,0.06l2.881,4.32l-0.121,0.78
		c-0.88,0.561-1.538,0.96-1.979,1.199c-5.001,3.08-8.241,5.039-9.72,5.881L888.911,566.925z M896.172,588.765l-3.42-11.58h-0.48
		l-4.02,11.58l3.899,0.062L896.172,588.765z"/>
	<path fill="#58595B" d="M931.691,571.365l-1.142,6.72l-1.08,0.3c-1.28-0.96-2.52-1.68-3.72-2.16c-1.2-0.479-2.301-0.72-3.3-0.72
		c-1.121,0-2.001,0.271-2.642,0.812c-0.64,0.538-0.959,1.189-0.959,1.948c0,0.84,0.398,1.53,1.199,2.07
		c0.8,0.54,2.062,1.17,3.78,1.89c1.8,0.762,3.271,1.461,4.41,2.102c1.139,0.64,2.12,1.528,2.939,2.67
		c0.818,1.14,1.229,2.57,1.229,4.29s-0.45,3.33-1.352,4.83c-0.898,1.5-2.26,2.71-4.08,3.63c-1.819,0.92-4.069,1.38-6.75,1.38
		c-1.438,0-3.01-0.15-4.709-0.45c-1.7-0.3-3.352-0.77-4.95-1.41l1.021-7.08l0.78-0.54c1.319,1.2,2.799,2.16,4.438,2.882
		c1.642,0.72,3.101,1.079,4.381,1.079c1.119,0,2.029-0.279,2.729-0.841c0.7-0.56,1.05-1.26,1.05-2.1c0-0.88-0.41-1.59-1.229-2.13
		c-0.82-0.54-2.092-1.149-3.811-1.83c-1.801-0.76-3.271-1.47-4.41-2.13c-1.141-0.66-2.12-1.569-2.939-2.73
		c-0.82-1.159-1.229-2.6-1.229-4.318c0-1.802,0.487-3.44,1.469-4.921c0.979-1.479,2.38-2.641,4.201-3.479
		c1.818-0.84,3.948-1.26,6.39-1.26C926.291,569.865,929.051,570.365,931.691,571.365z"/>
</g>
<g>
	<g>
		<defs>
			<rect id="SVGID_1_" x="729.133" y="702.97" width="193.5" height="185.5"/>
		</defs>
		<clipPath id="SVGID_2_">
			<use xlink:href="#SVGID_1_"  overflow="visible"/>
		</clipPath>
		<path clip-path="url(#SVGID_2_)" fill="#A91E23" d="M810.354,707.988c-0.278-1.969,1.093-3.789,3.062-4.069
			c1.971-0.278,3.789,1.093,4.068,3.061l5.7,40.307c0.277,1.968-1.092,3.791-3.061,4.066c-0.172,0.025-0.342,0.036-0.51,0.036
			c-1.765,0-3.306-1.297-3.56-3.097L810.354,707.988z M800.793,768.536c0.707,0.924,1.777,1.411,2.859,1.411
			c0.764,0,1.533-0.243,2.188-0.743c1.578-1.209,1.877-3.468,0.668-5.046l-31.781-41.482c-1.209-1.578-3.469-1.877-5.047-0.668
			s-1.877,3.468-0.668,5.047L800.793,768.536z M741.703,734.911l1.19,0.917c0.654,0.501,1.427,0.746,2.191,0.746
			c1.08,0,2.148-0.484,2.857-1.407c1.211-1.577,0.916-3.838-0.66-5.048l-1.193-0.916c-1.576-1.213-3.836-0.917-5.047,0.66
			C739.83,731.44,740.127,733.701,741.703,734.911L741.703,734.911z M738.662,779.531c-1.971-0.264-3.781,1.125-4.041,3.095
			c-0.262,1.972,1.125,3.782,3.096,4.041l36.816,4.875c0.162,0.021,0.319,0.032,0.479,0.032c1.777,0,3.324-1.316,3.564-3.127
			c0.26-1.973-1.127-3.78-3.099-4.041L738.662,779.531z M753.439,743.932l34.993,26.896c0.652,0.502,1.425,0.746,2.189,0.746
			c1.08,0,2.148-0.485,2.857-1.407c1.213-1.578,0.916-3.837-0.66-5.048l-34.994-26.896c-1.576-1.211-3.836-0.915-5.047,0.662
			C751.566,740.46,751.861,742.721,753.439,743.932L753.439,743.932z M830.865,751.728c0.164,0.021,0.326,0.034,0.488,0.034
			c1.772,0,3.315-1.311,3.563-3.118l5.514-40.652c0.269-1.97-1.113-3.784-3.084-4.052c-1.973-0.269-3.783,1.113-4.051,3.084
			l-5.514,40.654C827.514,749.646,828.895,751.46,830.865,751.728L830.865,751.728z M912.934,802.604l-49.377-6.536
			c-1.969-0.26-3.778,1.125-4.041,3.095c-0.262,1.972,1.125,3.782,3.097,4.041l49.375,6.54c0.161,0.021,0.319,0.031,0.479,0.031
			c1.777,0,3.324-1.317,3.564-3.128C916.289,804.678,914.904,802.867,912.934,802.604L912.934,802.604z M916.047,782.764
			c-0.258-1.974-2.066-3.358-4.037-3.104l-37.045,4.85c-1.973,0.257-3.361,2.064-3.104,4.036c0.237,1.813,1.785,3.134,3.565,3.134
			c0.154,0,0.313-0.011,0.472-0.032l37.045-4.849C914.916,786.54,916.305,784.733,916.047,782.764L916.047,782.764z
			 M892.906,738.324l-34.853,26.702c-1.577,1.21-1.877,3.469-0.67,5.048c0.709,0.925,1.779,1.409,2.861,1.409
			c0.764,0,1.533-0.239,2.188-0.741l34.852-26.704c1.578-1.209,1.879-3.468,0.67-5.046
			C896.746,737.413,894.486,737.115,892.906,738.324L892.906,738.324z M883.279,719.182c0.653,0.501,1.426,0.746,2.19,0.746
			c1.08,0,2.146-0.481,2.855-1.405l0.317-0.413c1.211-1.575,0.918-3.837-0.658-5.048c-1.575-1.213-3.838-0.918-5.049,0.659
			l-0.317,0.412C881.408,715.708,881.703,717.969,883.279,719.182L883.279,719.182z M889.686,710.837
			c0.654,0.505,1.429,0.748,2.193,0.748c1.08,0,2.146-0.484,2.855-1.403l0.336-0.437c1.213-1.576,0.918-3.837-0.656-5.048
			c-1.576-1.214-3.836-0.92-5.049,0.654l-0.336,0.437C887.816,707.365,888.111,709.624,889.686,710.837L889.686,710.837z
			 M845.033,768.994c0.652,0.501,1.424,0.744,2.188,0.744c1.08,0,2.148-0.483,2.857-1.407l31.658-41.192
			c1.213-1.577,0.916-3.836-0.66-5.049c-1.576-1.212-3.836-0.916-5.047,0.661l-31.658,41.194
			C843.16,765.521,843.455,767.783,845.033,768.994L845.033,768.994z M736.213,726.147c1.211-1.575,0.916-3.837-0.662-5.048
			l-0.625-0.479c-1.576-1.212-3.836-0.916-5.047,0.663c-1.211,1.575-0.916,3.836,0.66,5.046l0.627,0.479
			c0.654,0.503,1.424,0.747,2.189,0.747C734.436,727.557,735.504,727.072,736.213,726.147L736.213,726.147z M896.432,881.535
			c-1.209-1.579-3.469-1.877-5.047-0.668c-1.578,1.211-1.875,3.471-0.666,5.048l0.521,0.679c0.709,0.925,1.778,1.41,2.858,1.41
			c0.767,0,1.535-0.242,2.188-0.742c1.578-1.211,1.877-3.472,0.668-5.049L896.432,881.535z M889.508,872.49l-0.521-0.68
			c-1.209-1.576-3.47-1.877-5.048-0.668c-1.577,1.209-1.877,3.471-0.666,5.048l0.521,0.68c0.709,0.925,1.777,1.411,2.859,1.411
			c0.764,0,1.534-0.243,2.188-0.745C890.418,876.328,890.717,874.068,889.508,872.49L889.508,872.49z M897.211,845.342
			l-33.547-25.782c-1.576-1.211-3.836-0.916-5.049,0.661c-1.211,1.576-0.916,3.836,0.66,5.048l33.547,25.782
			c0.653,0.504,1.426,0.746,2.19,0.746c1.08,0,2.148-0.483,2.857-1.406C899.082,848.813,898.787,846.555,897.211,845.342
			L897.211,845.342z M863.738,838.857c-1.209-1.578-3.469-1.878-5.047-0.669c-1.578,1.21-1.877,3.47-0.668,5.048l17.897,23.361
			c0.709,0.925,1.779,1.411,2.861,1.411c0.764,0,1.532-0.243,2.186-0.743c1.578-1.209,1.879-3.468,0.67-5.046L863.738,838.857z
			 M792.166,820.04c-1.209-1.577-3.469-1.877-5.047-0.668l-33.756,25.864c-1.578,1.209-1.877,3.468-0.668,5.047
			c0.709,0.923,1.776,1.41,2.858,1.41c0.765,0,1.533-0.242,2.188-0.742l33.756-25.861
			C793.076,823.879,793.375,821.619,792.166,820.04L792.166,820.04z M790.793,799.158c-0.258-1.975-2.072-3.359-4.037-3.104
			l-49.051,6.419c-1.971,0.262-3.359,2.066-3.102,4.038c0.235,1.814,1.782,3.135,3.563,3.135c0.156,0,0.314-0.012,0.473-0.03
			l49.05-6.42C789.662,802.935,791.051,801.129,790.793,799.158L790.793,799.158z M834.916,841.374
			c-0.268-1.97-2.086-3.351-4.051-3.084c-1.971,0.268-3.353,2.08-3.084,4.052l5.514,40.653c0.244,1.806,1.789,3.116,3.563,3.116
			c0.162,0,0.324-0.011,0.488-0.033c1.971-0.267,3.353-2.081,3.084-4.051L834.916,841.374z M820.123,838.665
			c-1.965-0.278-3.791,1.093-4.068,3.061l-5.701,40.305c-0.278,1.968,1.093,3.791,3.062,4.067c0.17,0.024,0.34,0.037,0.508,0.037
			c1.764,0,3.308-1.299,3.562-3.099l5.698-40.302C823.461,840.766,822.092,838.943,820.123,838.665L820.123,838.665z
			 M791.893,838.141c-1.575-1.211-3.838-0.917-5.049,0.66l-17.932,23.336c-1.213,1.576-0.916,3.836,0.66,5.046
			c0.653,0.504,1.424,0.747,2.19,0.747c1.08,0,2.148-0.483,2.855-1.405l17.934-23.336
			C793.764,841.613,793.469,839.351,791.893,838.141L791.893,838.141z"/>
	</g>
</g>
<g>
	<g>
		<g>
			<defs>
				<rect id="SVGID_3_" x="729.133" y="702.97" width="193.5" height="185.5"/>
			</defs>
			<clipPath id="SVGID_4_">
				<use xlink:href="#SVGID_3_"  overflow="visible"/>
			</clipPath>
			<path clip-path="url(#SVGID_4_)" fill="#DF9D26" d="M905.252,721.772l-2.818,2.818c-1.405,1.405-1.405,3.687,0,5.09
				c1.406,1.405,3.687,1.405,5.093,0l2.817-2.817l2.818,2.817c0.703,0.703,1.625,1.056,2.545,1.056c0.922,0,1.844-0.353,2.547-1.056
				c1.406-1.403,1.406-3.685,0-5.09l-2.818-2.818l2.818-2.819c1.406-1.407,1.406-3.688,0-5.092c-1.406-1.407-3.686-1.407-5.092,0
				l-2.818,2.819l-2.817-2.819c-1.406-1.407-3.687-1.407-5.093,0c-1.405,1.404-1.405,3.685,0,5.092L905.252,721.772z
				 M848.289,822.658c0.357,1.441-0.209,2.955-1.424,3.809c-1.217,0.855-2.83,0.875-4.068,0.05l-16.863-11.245l-18.178,11.308
				c-0.584,0.363-1.242,0.542-1.899,0.542c-0.765,0-1.523-0.239-2.162-0.72c-1.188-0.894-1.705-2.423-1.306-3.853l5.484-19.514
				l-16.369-13.793c-1.137-0.957-1.568-2.515-1.088-3.92c0.482-1.407,1.777-2.371,3.262-2.433l20.254-0.813l8.06-19.831
				c0.561-1.376,1.901-2.262,3.393-2.244c1.484,0.023,2.804,0.957,3.318,2.35l7.033,19.012l21.352,1.536
				c1.482,0.104,2.746,1.111,3.185,2.533c0.436,1.419-0.045,2.96-1.211,3.883l-15.906,12.563L848.289,822.658z M836.871,797.663
				l10.445-8.25l-14.412-1.039c-1.408-0.1-2.627-1.016-3.117-2.339l-4.619-12.484l-5.441,13.384
				c-0.53,1.311-1.778,2.187-3.188,2.243l-13.301,0.534l11.049,9.313c1.08,0.908,1.526,2.366,1.146,3.726l-3.602,12.817l12.27-7.635
				c1.199-0.745,2.724-0.72,3.898,0.063l11.076,7.386l-3.469-14.027C835.268,799.982,835.762,798.538,836.871,797.663
				L836.871,797.663z M738.719,769.231l2.818-2.818l2.818,2.818c0.702,0.702,1.622,1.054,2.545,1.054
				c0.922,0,1.842-0.354,2.545-1.054c1.405-1.405,1.405-3.687,0-5.092l-2.818-2.817l2.82-2.821c1.403-1.405,1.403-3.686,0-5.09
				c-1.408-1.405-3.687-1.405-5.092,0l-2.82,2.818l-2.818-2.818c-1.406-1.405-3.684-1.405-5.092,0c-1.406,1.404-1.406,3.685,0,5.09
				l2.82,2.821l-2.818,2.817c-1.406,1.405-1.406,3.687,0,5.092C735.033,770.636,737.313,770.637,738.719,769.231L738.719,769.231z
				 M918.313,830.844l2.818-2.819c1.406-1.406,1.406-3.687,0-5.092c-1.406-1.404-3.686-1.404-5.092,0l-2.818,2.818l-2.817-2.819
				c-1.406-1.403-3.687-1.403-5.093,0c-1.405,1.406-1.405,3.687,0,5.093l2.818,2.817l-2.818,2.819c-1.405,1.405-1.405,3.685,0,5.09
				c1.406,1.407,3.687,1.407,5.093,0l2.817-2.818l2.818,2.818c0.703,0.703,1.625,1.056,2.545,1.056c0.922,0,1.844-0.353,2.547-1.056
				c1.406-1.405,1.406-3.685,0-5.09L918.313,830.844z M755.572,867.728c-1.406-1.404-3.687-1.404-5.092,0l-2.818,2.821l-2.818-2.821
				c-1.408-1.404-3.686-1.404-5.092,0c-1.406,1.407-1.406,3.687,0,5.094l2.818,2.817l-2.818,2.817c-1.406,1.407-1.406,3.686,0,5.093
				c1.404,1.405,3.685,1.405,5.09,0l2.82-2.818l2.818,2.818c0.703,0.702,1.623,1.055,2.545,1.055s1.842-0.353,2.545-1.055
				c1.406-1.407,1.406-3.686,0-5.093l-2.818-2.817l2.82-2.817C756.979,871.413,756.979,869.135,755.572,867.728L755.572,867.728z"/>
		</g>
	</g>
</g>
</svg>
