<?xml version="1.0" encoding="utf-8"?>
<!-- Generator: Adobe Illustrator 16.0.0, SVG Export Plug-In . SVG Version: 6.00 Build 0)  -->
<!DOCTYPE svg PUBLIC "-//W3C//DTD SVG 1.1//EN" "http://www.w3.org/Graphics/SVG/1.1/DTD/svg11.dtd">
<svg version="1.1" id="Layer_1" xmlns="http://www.w3.org/2000/svg" xmlns:xlink="http://www.w3.org/1999/xlink" x="0px" y="0px"
	 width="1000px" height="1000px" viewBox="0 0 1000 1000" enable-background="new 0 0 1000 1000" xml:space="preserve">
<path fill="#ED1C24" stroke="#231F20" stroke-width="40" stroke-miterlimit="10" d="M103.747,500"/>
<path fill="#ED1C24" stroke="#231F20" stroke-width="40" stroke-miterlimit="10" d="M103.747,500"/>
<path fill="#ED1C24" stroke="#231F20" stroke-width="40" stroke-miterlimit="10" d="M103.747,500"/>
<path opacity="0.9" fill="#FFFFFF" enable-background="new    " d="M541.6,831.621c9.663,0,19.264,3.666,27.763,10.603
	c7.866,6.422,15.896,9.815,23.217,9.815c19.115,0,41.437-26.458,41.437-101.025c0-74.566-22.32-101.024-41.437-101.024
	c-7.321,0-15.351,3.394-23.217,9.813c-8.5,6.938-18.101,10.604-27.763,10.604c-27.514,0-51.143-29.325-51.599-64.036L490,606.239
	V510h-95.807c-18.262,0.264-35.884,9.803-41.918,22.699c-3.766,8.046-2.418,16.133,4.002,24.034
	c14.401,17.726,18.068,37.542,10.061,54.366C353.166,638.774,311.85,654.016,250,654.016c-61.85,0-103.166-15.24-116.338-42.915
	c-8.009-16.824-4.342-36.642,10.061-54.366c6.42-7.901,7.767-15.988,4.002-24.034c-6.035-12.896-23.657-22.437-41.918-22.699H10v480
	h480l0.001-94.344C490.457,860.945,514.086,831.621,541.6,831.621z"/>
<path fill="#ED1C24" stroke="#231F20" stroke-width="40" stroke-miterlimit="10" d="M103.747,500"/>
<g>
	<path fill="#58595B" d="M388.124,770.462h-9.72l-11.82-38.64h8.28l0.96,5.1l7.319,25.98h0.54l8.399-25.562l1.021-5.52h8.04
		L388.124,770.462z"/>
	<path fill="#58595B" d="M426.164,764.342l0.479,0.48l-0.539,5.64h-20.761l0.3-9l-0.3-21.3h21.062l0.42,0.6l-0.48,5.58l-7.8-0.3
		h-5.64l-0.12,6.12l5.398,0.06l5.222-0.18l0.42,0.54l-0.48,5.7l-5.7-0.182h-4.979l-0.062,2.642l0.12,3.84h5.28L426.164,764.342z"/>
	<path fill="#58595B" d="M458.264,768.722l-0.061,0.84c-2.48,0.762-4.92,1.221-7.32,1.382l-1.079-0.722
		c-2.241-3.879-3.98-7.06-5.221-9.54h-4.62v0.062l0.301,9.72h-7.561l0.3-9l-0.3-21.3l13.08-0.062c3.398,0,6.029,0.791,7.89,2.37
		c1.86,1.581,2.79,3.831,2.79,6.75c0,1.881-0.5,3.63-1.5,5.25s-2.398,2.972-4.199,4.051
		C453.442,762.402,455.943,765.803,458.264,768.722z M440.083,754.922l4.5,0.24c1.359-0.439,2.36-1.08,3-1.92s0.96-1.92,0.96-3.24
		c0-1.44-0.42-2.51-1.26-3.21c-0.84-0.699-2.16-1.09-3.96-1.17l-3.061,0.12L440.083,754.922z"/>
	<path fill="#58595B" d="M483.163,741.242l-1.142,6.72l-1.079,0.3c-1.28-0.96-2.521-1.68-3.721-2.16c-1.2-0.479-2.301-0.72-3.3-0.72
		c-1.12,0-2.001,0.271-2.641,0.812c-0.641,0.539-0.96,1.189-0.96,1.948c0,0.841,0.398,1.53,1.2,2.07c0.8,0.54,2.06,1.17,3.779,1.89
		c1.801,0.762,3.271,1.462,4.41,2.102c1.141,0.64,2.119,1.529,2.939,2.67c0.818,1.14,1.229,2.57,1.229,4.29s-0.45,3.33-1.351,4.83
		c-0.899,1.5-2.26,2.71-4.079,3.63c-1.821,0.92-4.071,1.38-6.75,1.38c-1.44,0-3.011-0.15-4.71-0.45c-1.701-0.3-3.353-0.77-4.95-1.41
		l1.021-7.079l0.779-0.54c1.32,1.199,2.799,2.159,4.439,2.881c1.641,0.72,3.1,1.079,4.381,1.079c1.119,0,2.029-0.279,2.729-0.841
		c0.699-0.56,1.051-1.26,1.051-2.1c0-0.88-0.41-1.59-1.229-2.13c-0.82-0.54-2.091-1.149-3.811-1.83
		c-1.801-0.76-3.271-1.47-4.409-2.13c-1.142-0.66-2.121-1.569-2.94-2.73c-0.819-1.159-1.229-2.6-1.229-4.318
		c0-1.802,0.489-3.44,1.471-4.921c0.979-1.479,2.379-2.641,4.2-3.479c1.819-0.84,3.949-1.26,6.39-1.26
		C477.763,739.742,480.521,740.242,483.163,741.242z"/>
	<path fill="#58595B" d="M511.662,764.342l0.479,0.48l-0.54,5.64h-20.76l0.3-9l-0.3-21.3h21.062l0.42,0.6l-0.48,5.58l-7.8-0.3h-5.64
		l-0.12,6.12l5.398,0.06l5.222-0.18l0.42,0.54l-0.48,5.7l-5.7-0.182h-4.979l-0.062,2.642l0.12,3.84h5.28L511.662,764.342z"/>
	<path fill="#58595B" d="M545.322,760.862l0.3,9.6h-8.22l-12.12-18.78h-0.42l-0.061,8.16l0.239,10.62h-6.84l0.3-8.88l-0.3-21.42
		h8.16l12.12,18.78h0.54l-0.24-18.48l6.96-0.479L545.322,760.862z"/>
	<path fill="#58595B" d="M568.002,762.242l0.3,8.22h-7.561l0.359-8.22l-0.06-1.5l-10.261-20.58h8.04l0.66,2.22l5.1,10.62h0.421
		l5.64-10.32l0.96-2.52h7.801l-11.341,20.398L568.002,762.242z"/>
</g>
<path fill="#A91E23" d="M185.973,857.502v3.496c0,1.656,1.343,3,3,3c1.658,0,3-1.344,3-3v-3.496c0-1.656-1.342-3-3-3
	C187.316,854.502,185.973,855.846,185.973,857.502L185.973,857.502z"/>
<path fill="#A91E23" d="M203.884,893.527c-1.656,0-3,1.344-3,3c0,1.655,1.344,3,3,3h12.295c1.658,0,3-1.345,3-3c0-1.656-1.342-3-3-3
	H203.884z"/>
<path fill="#A91E23" d="M231.091,854.502c-1.656,0-3,1.344-3,3v3.496c0,1.656,1.344,3,3,3c1.658,0,3-1.344,3-3v-3.496
	C234.091,855.846,232.75,854.502,231.091,854.502L231.091,854.502z"/>
<path fill="#A91E23" d="M224.894,885.031c0-1.656-1.344-3-3-3h-23.725c-1.656,0-3,1.344-3,3c0,1.655,1.344,3,3,3h23.725
	C223.55,888.031,224.894,886.688,224.894,885.031L224.894,885.031z"/>
<path fill="#A91E23" d="M210.033,866.682c2.994,0,5.842-1.297,7.814-3.559c1.088-1.248,0.957-3.144-0.291-4.232
	c-1.25-1.088-3.145-0.959-4.234,0.291c-0.83,0.953-2.029,1.5-3.289,1.5c-1.26,0-2.461-0.547-3.291-1.5
	c-1.088-1.25-2.982-1.379-4.232-0.291c-1.25,1.091-1.379,2.984-0.291,4.232C204.189,865.385,207.037,866.682,210.033,866.682
	L210.033,866.682z"/>
<g>
	<path fill="#A91E23" d="M228.839,909.604c-5.869,2.928-12.197,4.411-18.807,4.411c-4.555,0-8.986-0.713-13.232-2.118l-4.887,4.59
		c5.752,2.342,11.834,3.528,18.119,3.528c7.549,0,14.777-1.696,21.484-5.043c1.482-0.739,2.086-2.541,1.346-4.022
		C232.123,909.465,230.322,908.863,228.839,909.604z"/>
	<path fill="#A91E23" d="M210.033,823.643c-26.57,0-48.188,21.617-48.188,48.188c0,11.254,3.865,21.977,10.951,30.582
		c-0.108,0.079-0.208,0.168-0.309,0.254l3.192-1.021l1.593-3.253c-6.097-7.497-9.428-16.8-9.428-26.563
		c0-23.262,18.924-42.187,42.188-42.187c23.262,0,42.186,18.925,42.186,42.187c0,11.443-4.504,22.152-12.686,30.156
		c-1.184,1.159-1.205,3.059-0.047,4.244c0.588,0.6,1.367,0.899,2.145,0.899c0.758,0,1.516-0.283,2.1-0.854
		c9.342-9.142,14.488-21.373,14.488-34.443C258.218,845.26,236.603,823.643,210.033,823.643z"/>
</g>
<g>
	<path fill="#A91E23" d="M265.442,858.303c1.075,4.41,1.628,8.945,1.628,13.527c0,31.449-25.588,57.037-57.037,57.037
		c-31.451,0-57.037-25.588-57.037-57.037c0-5.23,0.718-10.41,2.119-15.412l-7.621,7.549c-0.325,2.603-0.498,5.228-0.498,7.863
		c0,34.758,28.277,63.037,63.037,63.037c34.758,0,63.037-28.279,63.037-63.037c0-5.246-0.656-10.438-1.931-15.483L265.442,858.303z"
		/>
	<path fill="#A91E23" d="M297.498,746.609c-0.088-9.123-7.582-16.543-16.703-16.543H170.4c-1.656,0-3,1.344-3,3c0,1.655,1.344,3,3,3
		h104.07c2.459,5.092,1.482,11.172-2.607,15.26l-10.764,10.766H158.966L148.2,751.326c-4.088-4.088-5.066-10.168-2.605-15.26h10.627
		c1.658,0,3-1.345,3-3c0-1.656-1.342-3-3-3h-16.954c-9.121,0-16.613,7.42-16.701,16.543l-0.211,21.725
		c-0.066,6.877,2.686,13.609,7.549,18.473l38.072,38.072c-5.115,4.584-9.455,9.976-12.846,15.974l4.955,3.434
		c4.619-8.359,11.26-15.447,19.357-20.604c9.131-5.813,19.707-8.889,30.588-8.889c1.68,0,3.346,0.074,4.998,0.217
		c0.051,0.006,0.1,0.013,0.15,0.015c6.604,0.59,12.965,2.305,18.852,5.032c0.174,0.105,0.354,0.189,0.543,0.257
		c3.896,1.854,7.58,4.157,10.982,6.877c0.145,0.143,0.301,0.27,0.467,0.377c2.161,1.764,4.201,3.705,6.11,5.801l4.902-3.502
		c-1.568-1.762-3.207-3.441-4.938-4.998l38.061-38.061c4.863-4.863,7.612-11.599,7.547-18.474L297.498,746.609z M176.223,818.619
		c-1.221,0.776-2.411,1.596-3.569,2.449l-38.506-38.507c-3.73-3.729-5.841-8.896-5.791-14.172l0.027-2.776l51.084,51.084
		C178.371,817.307,177.285,817.943,176.223,818.619z M185.16,813.904l-53.965-53.966c-1.027-1.026-1.936-2.166-2.722-3.383
		l0.093-9.891c0.057-5.803,4.793-10.533,10.582-10.6c-2.143,6.766-0.43,14.264,4.811,19.504l11.643,11.641l42.686,42.686
		C193.773,810.75,189.375,812.094,185.16,813.904z M214.253,808.938c-1.398-0.093-2.805-0.146-4.221-0.146
		c-1.412,0-2.82,0.051-4.221,0.146l-40.846-40.847h90.133L214.253,808.938z M221.787,809.887l42.676-42.674l11.643-11.643
		c5.24-5.24,6.955-12.738,4.813-19.504c5.789,0.065,10.523,4.797,10.58,10.6l0.096,9.891c-0.787,1.218-1.697,2.355-2.723,3.384
		l-53.943,53.942C230.728,812.082,226.328,810.74,221.787,809.887z M285.917,782.563l-38.494,38.493
		c-2.178-1.608-4.447-3.075-6.803-4.385l51.061-51.059l0.027,2.776C291.759,773.666,289.648,778.832,285.917,782.563z"/>
</g>
<path fill="#DF9D26" d="M202.13,906.012l-6.858-3.071c-2.213-0.994-3.979-2.758-4.97-4.971l-3.073-6.857
	c-0.456-1.015-1.463-1.667-2.574-1.667c-1.11,0-2.118,0.652-2.572,1.667l-3.075,6.857c-0.99,2.213-2.755,3.977-4.967,4.971
	l-6.86,3.071c-1.013,0.455-1.665,1.464-1.665,2.574c0,1.109,0.652,2.117,1.665,2.572l6.86,3.075
	c2.212,0.988,3.977,2.755,4.967,4.967l3.075,6.859c0.454,1.013,1.462,1.665,2.572,1.665c1.112,0,2.118-0.65,2.574-1.665l3.073-6.859
	c0.991-2.212,2.756-3.979,4.97-4.967l6.858-3.075c1.015-0.455,1.666-1.463,1.666-2.572
	C203.796,907.476,203.145,906.467,202.13,906.012L202.13,906.012z M192.964,909.088c-3.477,1.558-6.248,4.33-7.807,7.808
	l-0.502,1.118l-0.502-1.118c-1.559-3.478-4.331-6.25-7.808-7.808l-1.119-0.502l1.119-0.502c3.477-1.559,6.249-4.33,7.808-7.807
	l0.502-1.121l0.502,1.121c1.559,3.477,4.33,6.248,7.807,7.807l1.12,0.502L192.964,909.088z"/>
<path fill="#DF9D26" d="M164.202,845.303l-6.754-3.024c-2.179-0.979-3.917-2.717-4.892-4.894l-3.027-6.754
	c-0.447-0.997-1.438-1.641-2.533-1.641c-1.094,0-2.085,0.642-2.532,1.641l-3.028,6.754c-0.976,2.177-2.714,3.914-4.891,4.894
	l-6.755,3.024c-0.997,0.447-1.639,1.439-1.639,2.535c0,1.092,0.642,2.084,1.639,2.531l6.755,3.025
	c2.177,0.979,3.915,2.715,4.892,4.893l3.027,6.755c0.447,0.997,1.438,1.64,2.532,1.64c1.093,0,2.085-0.643,2.533-1.64l3.027-6.755
	c0.977-2.178,2.712-3.914,4.892-4.893l6.754-3.025c0.998-0.447,1.64-1.439,1.64-2.531
	C165.841,846.742,165.199,845.75,164.202,845.303L164.202,845.303z M155.176,848.331c-3.422,1.533-6.152,4.265-7.687,7.687
	l-0.494,1.103l-0.494-1.103c-1.535-3.422-4.264-6.15-7.687-7.687l-1.103-0.493l1.103-0.498c3.422-1.531,6.152-4.262,7.687-7.686
	l0.494-1.103l0.494,1.103c1.535,3.422,4.264,6.153,7.687,7.686l1.102,0.498L155.176,848.331z"/>
<path fill="#DF9D26" d="M287.708,834.309l-7.652-3.428c-2.383-1.068-4.285-2.97-5.353-5.354l-3.428-7.651
	c-0.568-1.269-1.828-2.08-3.215-2.08c-1.388,0-2.646,0.813-3.213,2.08l-3.429,7.651c-1.07,2.384-2.97,4.282-5.353,5.354
	l-7.652,3.428c-1.267,0.568-2.08,1.825-2.08,3.217c0,1.386,0.813,2.646,2.08,3.211l7.652,3.429c2.383,1.068,4.283,2.97,5.351,5.354
	l3.431,7.652c0.567,1.266,1.825,2.08,3.213,2.08c1.387,0,2.645-0.813,3.215-2.08l3.428-7.652c1.068-2.384,2.97-4.284,5.351-5.354
	l7.651-3.429c1.268-0.565,2.083-1.825,2.083-3.211C289.788,836.134,288.972,834.877,287.708,834.309L287.708,834.309z
	 M277.174,837.737c-3.961,1.775-7.121,4.937-8.899,8.898l-0.215,0.48l-0.217-0.48c-1.775-3.963-4.935-7.123-8.898-8.898l-0.48-0.217
	l0.48-0.216c3.963-1.774,7.123-4.935,8.898-8.896l0.217-0.483l0.215,0.483c1.775,3.961,4.938,7.12,8.899,8.896l0.482,0.216
	L277.174,837.737z"/>
</svg>
