<?xml version="1.0" encoding="utf-8"?>
<!-- Generator: Adobe Illustrator 16.0.0, SVG Export Plug-In . SVG Version: 6.00 Build 0)  -->
<!DOCTYPE svg PUBLIC "-//W3C//DTD SVG 1.1//EN" "http://www.w3.org/Graphics/SVG/1.1/DTD/svg11.dtd">
<svg version="1.1" id="Layer_1" xmlns="http://www.w3.org/2000/svg" xmlns:xlink="http://www.w3.org/1999/xlink" x="0px" y="0px"
	 width="223.901px" height="223.9px" viewBox="0 0 223.901 223.9" enable-background="new 0 0 223.901 223.9" xml:space="preserve">
<path fill="none" d="M135.201,99.071L135.201,99.071c0.047,0.145,1.206,3.123,14.847,4.026c4.71,0.311,9.329,0.255,12.204,0.167
	c-0.593-8.49-3.233-16.502-7.606-23.499c-2.39,1.625-6.193,4.318-9.836,7.356C134.313,95.867,135.159,98.943,135.201,99.071z"/>
<path fill="none" d="M111.143,81.591c0.133,0,3.321-0.146,8.397-12.829c1.761-4.4,3.146-8.846,3.953-11.621
	c-3.989-0.987-8.113-1.498-12.306-1.498c-4.215,0-8.37,0.533-12.385,1.536c0.808,2.776,2.189,7.202,3.942,11.583
	C107.821,81.446,111.009,81.591,111.143,81.591z"/>
<path fill="none" d="M111.143,122.639c-8.687,0-15.752-7.065-15.752-15.751c0-8.686,7.065-15.751,15.752-15.751
	c8.685,0,15.751,7.065,15.751,15.751C126.894,115.573,119.828,122.639,111.143,122.639z"/>
<path fill="none" d="M111.143,97.117c-5.388,0-9.771,4.383-9.771,9.77c0,5.388,4.383,9.771,9.771,9.771
	c5.387,0,9.77-4.383,9.77-9.771C120.913,101.5,116.53,97.117,111.143,97.117z"/>
<path fill="none" d="M192.388,106.887c0-1.651,1.34-2.99,2.99-2.99h8.42c-0.25-7.886-1.489-15.526-3.601-22.801l-8.018,2.606
	c-0.307,0.1-0.618,0.147-0.925,0.147c-1.26,0-2.434-0.803-2.843-2.067c-0.511-1.571,0.349-3.259,1.919-3.769l8.015-2.604
	c-2.65-7.32-6.195-14.214-10.507-20.549l-6.79,4.934c-0.531,0.385-1.146,0.572-1.755,0.572c-0.926,0-1.838-0.428-2.423-1.234
	c-0.971-1.335-0.675-3.206,0.661-4.176l6.784-4.928c-4.742-6.088-10.226-11.572-16.313-16.314l-4.929,6.783
	c-0.585,0.806-1.497,1.232-2.422,1.232c-0.61,0-1.225-0.185-1.756-0.571c-1.336-0.971-1.632-2.842-0.66-4.177l4.933-6.791
	c-6.334-4.311-13.228-7.857-20.547-10.507l-2.604,8.016c-0.411,1.264-1.584,2.066-2.844,2.066c-0.307,0-0.618-0.048-0.925-0.147
	c-1.571-0.51-2.432-2.198-1.921-3.77l2.605-8.018c-7.274-2.11-14.915-3.35-22.802-3.601v8.42c0,1.651-1.339,2.99-2.99,2.99
	c-1.652,0-2.991-1.339-2.991-2.99v-8.42c-7.886,0.251-15.526,1.49-22.801,3.601l2.605,8.018c0.51,1.571-0.35,3.258-1.92,3.768
	c-0.307,0.1-0.619,0.148-0.925,0.148c-1.261,0-2.433-0.804-2.844-2.067l-2.604-8.014c-7.319,2.65-14.213,6.195-20.548,10.506
	l4.934,6.792c0.97,1.335,0.674,3.207-0.662,4.177c-0.53,0.386-1.146,0.571-1.755,0.571c-0.925,0-1.837-0.428-2.422-1.233
	l-4.928-6.782c-6.088,4.741-11.571,10.224-16.313,16.312l6.783,4.928c1.336,0.972,1.632,2.842,0.662,4.178
	c-0.585,0.805-1.497,1.233-2.422,1.233c-0.609,0-1.224-0.186-1.755-0.571l-6.791-4.934c-4.311,6.335-7.857,13.229-10.507,20.547
	l8.015,2.605c1.571,0.51,2.431,2.198,1.92,3.768c-0.412,1.264-1.583,2.067-2.844,2.067c-0.306,0-0.618-0.046-0.925-0.147
	l-8.018-2.605c-2.11,7.275-3.35,14.916-3.601,22.801h8.42c1.652,0,2.991,1.339,2.991,2.99c0,1.652-1.339,2.991-2.991,2.991h0h-8.419
	c0.251,7.886,1.49,15.526,3.601,22.801l8.019-2.604c1.572-0.51,3.258,0.35,3.769,1.921c0.51,1.569-0.35,3.257-1.921,3.767
	l-8.015,2.604c2.65,7.319,6.197,14.215,10.508,20.549l6.791-4.935c1.336-0.969,3.207-0.673,4.177,0.663
	c0.971,1.335,0.674,3.206-0.662,4.177l-6.784,4.929c4.742,6.088,10.225,11.571,16.313,16.313l4.929-6.783
	c0.971-1.336,2.841-1.631,4.178-0.661c1.336,0.971,1.632,2.842,0.662,4.177l-4.934,6.791c6.334,4.311,13.228,7.856,20.547,10.507
	l2.605-8.016c0.51-1.57,2.198-2.43,3.769-1.919c1.571,0.511,2.43,2.198,1.92,3.769l-2.606,8.019
	c7.275,2.109,14.916,3.349,22.802,3.601v-8.42c0-1.65,1.339-2.991,2.991-2.991c1.651,0,2.99,1.341,2.99,2.991v8.42
	c7.886-0.252,15.526-1.491,22.801-3.601l-2.604-8.019c-0.512-1.57,0.35-3.257,1.92-3.767c1.571-0.512,3.258,0.348,3.769,1.919
	l2.604,8.014c7.319-2.649,14.213-6.194,20.547-10.506l-4.933-6.792c-0.971-1.335-0.676-3.206,0.661-4.177
	c1.337-0.97,3.207-0.675,4.178,0.662l4.929,6.782c6.087-4.74,11.57-10.224,16.313-16.312l-6.783-4.929
	c-1.336-0.972-1.632-2.842-0.661-4.178c0.97-1.337,2.841-1.633,4.178-0.663l6.79,4.935c4.311-6.334,7.856-13.229,10.507-20.547
	l-8.015-2.605c-1.57-0.51-2.43-2.196-1.919-3.767c0.51-1.571,2.196-2.432,3.768-1.921l8.018,2.604
	c2.111-7.273,3.351-14.914,3.601-22.801h-8.42C193.728,109.878,192.388,108.54,192.388,106.887z"/>
<path fill="none" d="M96.273,127.353c-0.108-0.078-2.779-1.839-14.378,5.471c-4.002,2.521-7.714,5.288-9.986,7.049
	c2.652,3.144,5.702,5.989,9.115,8.47c3.388,2.461,7.037,4.48,10.874,6.039c0.978-2.719,2.468-7.125,3.628-11.714
	C98.875,129.422,96.381,127.431,96.273,127.353z"/>
<path fill="#A91E23" d="M111.127,33.709c-18.713,0-36.521,7.06-50.141,19.879c-1.205,1.13-1.261,3.025-0.129,4.226
	c1.132,1.202,3.024,1.261,4.227,0.128c12.509-11.77,28.858-18.252,46.042-18.252c37.048-0.001,67.189,30.142,67.191,67.19
	c-0.002,19.879-8.684,37.763-22.452,50.073c-0.101,0.09-0.2,0.183-0.301,0.271c-0.564,0.499-1.14,0.989-1.719,1.47
	c-0.104,0.085-0.209,0.169-0.312,0.253c-1.774,1.447-3.624,2.802-5.54,4.064c-0.185,0.122-0.368,0.246-0.555,0.366
	c-0.519,0.334-1.044,0.658-1.572,0.979c-0.346,0.208-0.692,0.413-1.039,0.615c-0.439,0.256-0.882,0.512-1.328,0.76
	c-0.718,0.394-1.44,0.778-2.17,1.145c-0.1,0.05-0.195,0.105-0.296,0.154c-0.952,0.473-1.915,0.922-2.884,1.348
	c-0.014,0.006-0.027,0.013-0.043,0.019c-9.833,4.301-20.492,6.141-31.033,5.513c-0.003-0.001-0.007-0.001-0.012-0.001
	c-1.015-0.06-2.029-0.146-3.042-0.253c-0.064-0.008-0.13-0.013-0.196-0.02c-0.952-0.103-1.901-0.229-2.849-0.372
	c-0.138-0.021-0.276-0.042-0.413-0.064c-0.867-0.136-1.727-0.291-2.587-0.463c-0.242-0.047-0.483-0.097-0.725-0.146
	c-0.742-0.155-1.481-0.326-2.221-0.508c-0.385-0.094-0.767-0.193-1.147-0.294c-0.583-0.152-1.163-0.315-1.741-0.484
	c-0.562-0.166-1.121-0.338-1.676-0.519c-0.384-0.123-0.768-0.249-1.149-0.379c-0.765-0.264-1.523-0.536-2.275-0.826
	c-0.167-0.063-0.333-0.127-0.498-0.191c-19.894-7.846-35.174-24.913-40.532-45.915c-0.023-0.095-0.047-0.191-0.07-0.288
	c-0.213-0.849-0.405-1.705-0.584-2.566c-0.058-0.276-0.115-0.552-0.169-0.828c-0.141-0.72-0.265-1.445-0.382-2.171
	c-0.051-0.319-0.107-0.637-0.155-0.958c-0.469-3.194-0.717-6.459-0.717-9.782c-0.001-14.687,4.652-28.637,13.454-40.341
	c0.993-1.32,0.727-3.194-0.594-4.187c-1.319-0.993-3.194-0.729-4.188,0.592c-9.585,12.75-14.653,27.941-14.651,43.937
	c-0.001,3.442,0.256,6.824,0.718,10.14c0.004,0.058-0.002,0.114,0.006,0.171c0.021,0.143,0.049,0.284,0.07,0.429
	c0.059,0.393,0.126,0.784,0.19,1.176c0.125,0.765,0.26,1.526,0.409,2.282c0.064,0.33,0.13,0.659,0.201,0.988
	c0.205,0.977,0.429,1.945,0.674,2.909c0.018,0.077,0.037,0.154,0.057,0.231c3.234,12.619,9.743,24.052,19.106,33.413
	c5.888,5.888,12.545,10.541,19.642,13.998c0.199,0.098,0.395,0.198,0.592,0.293c0.707,0.335,1.418,0.652,2.132,0.965
	c0.458,0.201,0.913,0.404,1.373,0.596c0.468,0.192,0.938,0.373,1.408,0.556c0.72,0.282,1.442,0.56,2.173,0.817
	c0.215,0.077,0.43,0.146,0.646,0.22c7.459,2.571,15.453,3.986,23.773,3.986c2.652,0,5.268-0.149,7.846-0.425
	c-0.012-0.013-0.027-0.025-0.041-0.037c16.058-1.709,31.655-8.688,43.935-20.969c1.875-1.875,3.621-3.829,5.248-5.849
	c-0.021-0.001-0.043,0.004-0.066,0.004c10.154-12.559,16.252-28.524,16.25-45.896C184.298,66.534,151.473,33.709,111.127,33.709z"/>
<path fill="#A91E23" d="M111.143,91.136c-8.687,0-15.752,7.065-15.752,15.751c0,8.686,7.065,15.751,15.752,15.751
	c8.685,0,15.751-7.065,15.751-15.751C126.894,98.202,119.828,91.136,111.143,91.136z M111.143,116.658
	c-5.388,0-9.771-4.383-9.771-9.771c0-5.387,4.383-9.77,9.771-9.77c5.387,0,9.77,4.383,9.77,9.77
	C120.913,112.275,116.53,116.658,111.143,116.658z"/>
<path fill="#A91E23" d="M191.195,49.237c-0.064-0.12-0.125-0.243-0.209-0.358c-0.087-0.12-0.188-0.221-0.289-0.324
	c-5.958-8.104-13.121-15.267-21.223-21.224c-0.104-0.099-0.203-0.201-0.322-0.287c-0.112-0.083-0.235-0.143-0.356-0.207
	c-16.23-11.723-36.147-18.642-57.653-18.642c-21.503,0-41.419,6.917-57.648,18.637c-0.123,0.065-0.246,0.126-0.361,0.21
	c-0.121,0.088-0.224,0.191-0.327,0.292c-8.101,5.956-15.26,13.116-21.217,21.217c-0.101,0.103-0.203,0.204-0.29,0.325
	c-0.083,0.115-0.145,0.239-0.21,0.36c-11.72,16.23-18.638,36.146-18.638,57.65c0,21.504,6.918,41.42,18.639,57.65
	c0.065,0.121,0.126,0.244,0.209,0.358c0.073,0.1,0.163,0.175,0.245,0.264c5.966,8.127,13.144,15.311,21.267,21.283
	c0.103,0.1,0.203,0.2,0.322,0.287c0.136,0.099,0.277,0.183,0.422,0.256c16.218,11.692,36.111,18.594,57.588,18.594
	c21.475,0,41.367-6.898,57.583-18.59c0.146-0.074,0.289-0.158,0.426-0.258c0.12-0.087,0.223-0.19,0.327-0.292
	c8.12-5.971,15.296-13.152,21.26-21.278c0.083-0.088,0.174-0.164,0.246-0.264c0.084-0.114,0.146-0.238,0.211-0.361
	c11.721-16.229,18.638-36.145,18.638-57.649C209.833,85.383,202.917,65.467,191.195,49.237z M200.198,132.679l-8.018-2.604
	c-1.571-0.511-3.258,0.35-3.768,1.921c-0.511,1.57,0.349,3.257,1.919,3.767l8.015,2.605c-2.65,7.318-6.196,14.213-10.507,20.547
	l-6.79-4.935c-1.337-0.97-3.208-0.674-4.178,0.663c-0.971,1.336-0.675,3.206,0.661,4.178l6.783,4.929
	c-4.742,6.088-10.226,11.571-16.313,16.312l-4.929-6.782c-0.971-1.337-2.841-1.632-4.178-0.662
	c-1.337,0.971-1.632,2.842-0.661,4.177l4.933,6.792c-6.334,4.312-13.228,7.856-20.547,10.506l-2.604-8.014
	c-0.511-1.571-2.197-2.431-3.769-1.919c-1.57,0.51-2.432,2.196-1.92,3.767l2.604,8.019c-7.274,2.109-14.915,3.349-22.801,3.601
	v-8.42c0-1.65-1.339-2.991-2.99-2.991c-1.652,0-2.991,1.341-2.991,2.991v8.42c-7.886-0.252-15.526-1.491-22.802-3.601l2.606-8.019
	c0.51-1.57-0.349-3.258-1.92-3.769c-1.57-0.511-3.258,0.349-3.769,1.919l-2.605,8.016c-7.319-2.65-14.213-6.196-20.547-10.507
	l4.934-6.791c0.97-1.335,0.674-3.206-0.662-4.177c-1.336-0.97-3.207-0.675-4.178,0.661l-4.929,6.783
	c-6.089-4.741-11.572-10.225-16.313-16.313l6.784-4.929c1.336-0.971,1.632-2.842,0.662-4.177c-0.971-1.336-2.841-1.632-4.177-0.663
	l-6.791,4.935c-4.311-6.334-7.857-13.229-10.508-20.549l8.015-2.604c1.571-0.51,2.431-2.197,1.921-3.767
	c-0.511-1.571-2.196-2.431-3.769-1.921l-8.019,2.604c-2.11-7.274-3.35-14.915-3.601-22.801h8.419h0c1.652,0,2.991-1.339,2.991-2.991
	c0-1.651-1.339-2.99-2.991-2.99h-8.42c0.251-7.886,1.49-15.526,3.601-22.801l8.018,2.605c0.307,0.101,0.619,0.147,0.925,0.147
	c1.261,0,2.433-0.803,2.844-2.067c0.51-1.57-0.35-3.258-1.92-3.768l-8.015-2.605c2.65-7.319,6.197-14.212,10.507-20.547l6.791,4.934
	c0.531,0.385,1.146,0.571,1.755,0.571c0.925,0,1.837-0.428,2.422-1.233c0.971-1.336,0.675-3.207-0.662-4.178l-6.783-4.928
	c4.742-6.088,10.225-11.571,16.313-16.312l4.928,6.782c0.585,0.806,1.497,1.233,2.422,1.233c0.61,0,1.225-0.186,1.755-0.571
	c1.336-0.971,1.632-2.842,0.662-4.177l-4.934-6.792c6.334-4.311,13.229-7.856,20.548-10.506l2.604,8.014
	c0.411,1.264,1.583,2.067,2.844,2.067c0.306,0,0.618-0.048,0.925-0.148c1.57-0.51,2.43-2.196,1.92-3.768l-2.605-8.018
	c7.275-2.11,14.915-3.35,22.801-3.601v8.42c0,1.651,1.339,2.99,2.991,2.99c1.651,0,2.99-1.339,2.99-2.99v-8.42
	c7.887,0.251,15.527,1.49,22.802,3.601l-2.605,8.018c-0.511,1.571,0.35,3.26,1.921,3.77c0.307,0.099,0.618,0.147,0.925,0.147
	c1.26,0,2.433-0.803,2.844-2.066l2.604-8.016c7.319,2.65,14.213,6.196,20.547,10.507l-4.933,6.791
	c-0.972,1.335-0.676,3.207,0.66,4.177c0.531,0.387,1.146,0.571,1.756,0.571c0.925,0,1.837-0.427,2.422-1.232l4.929-6.783
	c6.088,4.742,11.571,10.226,16.313,16.314l-6.784,4.928c-1.336,0.971-1.632,2.841-0.661,4.176c0.585,0.806,1.497,1.234,2.423,1.234
	c0.608,0,1.224-0.187,1.755-0.572l6.79-4.934c4.312,6.335,7.856,13.229,10.507,20.549l-8.015,2.604
	c-1.57,0.51-2.43,2.198-1.919,3.769c0.409,1.264,1.583,2.067,2.843,2.067c0.307,0,0.618-0.047,0.925-0.147l8.018-2.606
	c2.111,7.275,3.351,14.916,3.601,22.801h-8.42c-1.65,0-2.99,1.339-2.99,2.99c0,1.653,1.34,2.991,2.99,2.991h8.42
	C203.548,117.765,202.309,125.405,200.198,132.679z"/>
<path fill="#A91E23" d="M168.367,105.932L168.367,105.932L168.367,105.932L168.367,105.932c-0.002-0.028-0.01-0.053-0.013-0.08
	c-0.284-15.146-6.347-29.139-16.879-39.545c0.004-0.005,0.011-0.009,0.013-0.014c-0.254-0.254-0.525-0.489-0.783-0.738
	c-0.352-0.334-0.699-0.669-1.061-0.996c-0.656-0.598-1.326-1.175-2.008-1.741c-0.099-0.081-0.194-0.164-0.293-0.244
	c-2.449-2.006-5.058-3.799-7.811-5.367c-0.319-0.183-0.64-0.363-0.962-0.54c-0.421-0.23-0.841-0.461-1.27-0.681
	c-0.854-0.441-1.719-0.858-2.591-1.253c-0.083-0.038-0.166-0.072-0.248-0.109c-5.131-2.299-10.562-3.822-16.164-4.519
	c-0.262-0.034-0.523-0.061-0.786-0.091c-0.654-0.072-1.311-0.137-1.97-0.187c-13.438-1.077-26.816,2.616-38.033,10.765
	c-8.758,6.364-15.405,14.889-19.405,24.816c-0.001,0-0.003-0.001-0.004-0.002c-0.063,0.153-0.115,0.308-0.176,0.461
	c-0.197,0.5-0.391,1.003-0.574,1.51c-0.165,0.453-0.319,0.908-0.473,1.364c-0.047,0.14-0.099,0.277-0.145,0.417
	c-0.035,0.107-0.064,0.215-0.099,0.322c-0.173,0.544-0.34,1.089-0.498,1.637c-0.022,0.076-0.042,0.152-0.063,0.229
	c-1.33,4.703-2.061,9.566-2.141,14.499c-0.003,0.029-0.012,0.056-0.014,0.085c-0.005,0.084,0.007,0.165,0.009,0.249
	c-0.032,3.203,0.187,6.431,0.698,9.658c2.179,13.76,9.136,25.983,19.711,34.844c-0.004,0.004-0.009,0.008-0.013,0.013
	c0.192,0.162,0.391,0.312,0.585,0.471c0.217,0.179,0.436,0.354,0.657,0.529c0.585,0.467,1.179,0.921,1.782,1.362
	c0.054,0.04,0.105,0.083,0.16,0.122c0.054,0.04,0.109,0.076,0.164,0.115c0.504,0.364,1.013,0.721,1.528,1.067
	c0.063,0.042,0.126,0.083,0.189,0.127c1.609,1.074,3.271,2.065,4.983,2.97c0.152,0.079,0.302,0.164,0.455,0.243
	c0.389,0.201,0.782,0.393,1.175,0.584c0.372,0.182,0.743,0.361,1.118,0.534c0.289,0.134,0.58,0.265,0.871,0.394
	c0.587,0.262,1.179,0.509,1.774,0.75c0.108,0.043,0.215,0.089,0.324,0.133c0.81,0.32,1.624,0.629,2.447,0.911
	c0.005,0.002,0.009,0.006,0.014,0.008c0.01,0.004,0.021,0.006,0.033,0.01c0.099,0.033,0.197,0.072,0.296,0.105
	c3.923,1.322,7.963,2.198,12.068,2.641c0.07,0.008,0.141,0.014,0.211,0.021c0.753,0.079,1.508,0.143,2.265,0.191
	c0.27,0.018,0.54,0.035,0.809,0.049c0.492,0.024,0.984,0.039,1.477,0.051c0.457,0.013,0.915,0.026,1.372,0.028
	c0.006,0,0.012,0,0.017,0c0.019,0,0.038-0.001,0.057-0.001c12.022,0.022,23.709-3.729,33.622-10.932
	c4.621-3.356,8.684-7.354,12.089-11.874c0.003-0.004,0.007-0.007,0.011-0.011c0.007-0.009,0.012-0.019,0.02-0.027
	c0.063-0.084,0.13-0.165,0.192-0.25c1.949-2.622,3.656-5.4,5.122-8.306c0.002,0.001,0.004,0.002,0.006,0.003
	c0.069-0.135,0.125-0.272,0.192-0.407c0.327-0.663,0.644-1.335,0.948-2.011c0.177-0.395,0.354-0.788,0.522-1.186
	c0.169-0.403,0.326-0.813,0.487-1.223c0.388-0.982,0.75-1.973,1.082-2.974c0.033-0.102,0.072-0.201,0.105-0.304
	c0.018-0.053,0.031-0.107,0.048-0.16c1.871-5.792,2.817-11.875,2.755-18.098C168.369,106.215,168.376,106.075,168.367,105.932z
	 M154.645,79.764c1.261,2.018,2.359,4.128,3.324,6.302c-0.016,0.005-0.031,0.007-0.048,0.013c2.412,5.451,3.866,11.266,4.291,17.184
	c-2.892,0.089-7.516,0.143-12.215-0.17c-13.631-0.909-14.756-3.895-14.797-4.022c-0.041-0.125-0.848-3.141,9.262-11.655
	c0-0.001,0-0.002,0-0.003c0.116-0.098,0.227-0.193,0.347-0.292C148.452,84.083,152.255,81.389,154.645,79.764z M119.078,69.896
	c-0.063,0.149-0.123,0.289-0.186,0.435c-0.092,0.217-0.184,0.438-0.273,0.646c-0.055,0.128-0.11,0.248-0.164,0.373
	c-0.096,0.217-0.192,0.438-0.286,0.646c-0.038,0.086-0.076,0.166-0.115,0.25c-0.107,0.238-0.216,0.475-0.322,0.7
	c-0.027,0.057-0.054,0.11-0.081,0.167c-0.116,0.244-0.23,0.485-0.343,0.715c-0.023,0.047-0.047,0.089-0.069,0.136
	c-0.115,0.234-0.23,0.465-0.344,0.685c-0.02,0.039-0.038,0.073-0.058,0.11c-0.116,0.223-0.23,0.442-0.343,0.651
	c-0.014,0.026-0.027,0.049-0.041,0.074c-0.116,0.217-0.233,0.429-0.348,0.631c-0.004,0.008-0.009,0.015-0.013,0.023
	c-0.375,0.664-0.733,1.249-1.07,1.761c-0.003,0.005-0.006,0.009-0.01,0.015c-0.451,0.684-0.868,1.242-1.246,1.695
	c-0.001,0.001-0.002,0.002-0.003,0.003c-0.094,0.112-0.187,0.219-0.276,0.319c-0.003,0.003-0.005,0.006-0.008,0.009
	c-0.087,0.098-0.172,0.19-0.254,0.276c-0.007,0.007-0.013,0.013-0.021,0.02c-0.078,0.081-0.155,0.159-0.229,0.231
	c-0.009,0.008-0.017,0.015-0.025,0.023c-0.071,0.069-0.141,0.134-0.208,0.194c-0.015,0.014-0.029,0.025-0.044,0.038
	c-0.06,0.052-0.118,0.104-0.174,0.149c-0.021,0.016-0.039,0.03-0.059,0.046c-0.05,0.039-0.099,0.079-0.145,0.113
	c-0.025,0.019-0.049,0.035-0.073,0.052c-0.038,0.027-0.077,0.057-0.114,0.081c-0.033,0.022-0.064,0.042-0.096,0.062
	c-0.025,0.016-0.052,0.033-0.075,0.048c-0.038,0.024-0.075,0.043-0.11,0.064c-0.016,0.008-0.031,0.018-0.046,0.026
	c-0.042,0.023-0.083,0.043-0.122,0.061c-0.006,0.003-0.012,0.006-0.018,0.009c-0.311,0.146-0.489,0.155-0.522,0.155h-0.001
	c-0.134,0-3.321-0.145-8.397-12.831c-1.753-4.38-3.134-8.804-3.942-11.582c4.014-1.002,8.168-1.535,12.383-1.535
	c2.067,0,4.116,0.127,6.142,0.371c2.059,0.255,4.114,0.635,6.159,1.145c-0.604,2.079-1.532,5.089-2.699,8.316
	c-0.037,0.106-0.08,0.215-0.119,0.323c-0.157,0.43-0.315,0.861-0.48,1.296c-0.087,0.232-0.181,0.464-0.271,0.697
	c-0.122,0.317-0.244,0.634-0.371,0.952c-0.069,0.176-0.14,0.341-0.209,0.513C119.251,69.47,119.164,69.689,119.078,69.896z
	 M75.545,85.553L75.545,85.553c0.63,0.5,1.263,1.009,1.893,1.534c9.873,8.221,9.75,11.446,9.661,11.924
	c-0.006,0.032-0.011,0.051-0.014,0.059c-0.042,0.127-1.165,3.114-14.796,4.022c-4.71,0.314-9.346,0.26-12.235,0.17
	c0.208-3.004,0.685-6,1.426-8.955c0.059-0.229,0.12-0.458,0.182-0.687c0.173-0.65,0.365-1.297,0.564-1.942
	c0.177-0.563,0.362-1.122,0.557-1.679c1.257-3.611,2.879-7.04,4.865-10.231C69.616,81.106,72.542,83.173,75.545,85.553z
	 M71.909,139.872c1.878-1.456,4.747-3.599,7.944-5.722l0,0c0.671-0.446,1.35-0.891,2.042-1.327
	c11.599-7.31,14.27-5.549,14.378-5.471s2.601,2.069-0.747,15.314c-1.16,4.589-2.65,8.994-3.628,11.713
	c-1-0.403-1.98-0.844-2.948-1.31c-0.421-0.203-0.83-0.429-1.245-0.643c-0.576-0.297-1.154-0.591-1.718-0.91
	c-0.341-0.191-0.673-0.401-1.009-0.601c-0.654-0.391-1.306-0.786-1.942-1.206c-0.227-0.148-0.449-0.307-0.674-0.458
	c-0.746-0.51-1.484-1.032-2.204-1.582C77.1,145.349,74.331,142.742,71.909,139.872z M145.4,144.966
	c-0.004-0.006-0.008-0.014-0.012-0.02c-4.438,3.979-9.521,7.159-15.018,9.392c-0.364-1.017-0.8-2.264-1.262-3.666
	c-0.067-0.207-0.139-0.428-0.208-0.642c-0.086-0.263-0.17-0.521-0.257-0.794c-0.133-0.419-0.267-0.852-0.4-1.289
	c-0.025-0.082-0.051-0.159-0.076-0.242c-0.152-0.504-0.307-1.021-0.457-1.544c-0.007-0.022-0.015-0.045-0.021-0.068
	c-0.15-0.519-0.298-1.048-0.444-1.58c-0.008-0.03-0.017-0.062-0.024-0.093c-0.111-0.404-0.218-0.815-0.323-1.226
	c-0.043-0.167-0.089-0.333-0.132-0.501c-0.063-0.252-0.121-0.492-0.181-0.736c-0.039-0.158-0.08-0.318-0.116-0.473
	c-0.054-0.222-0.101-0.434-0.151-0.649c-0.038-0.167-0.078-0.337-0.114-0.5c-0.043-0.191-0.081-0.372-0.121-0.558
	c-0.037-0.177-0.079-0.358-0.113-0.528c-0.037-0.177-0.069-0.345-0.104-0.516c-0.033-0.169-0.069-0.342-0.101-0.506
	c-0.034-0.181-0.063-0.352-0.097-0.526c-0.025-0.146-0.054-0.296-0.079-0.438c-0.03-0.177-0.057-0.346-0.085-0.516
	c-0.021-0.13-0.045-0.264-0.063-0.39c-0.024-0.156-0.044-0.302-0.067-0.453c-0.019-0.134-0.039-0.271-0.057-0.4
	c-0.02-0.143-0.035-0.274-0.053-0.412c-0.016-0.128-0.033-0.26-0.048-0.384c-0.016-0.14-0.028-0.271-0.043-0.406
	c-0.012-0.112-0.024-0.229-0.035-0.338c-0.014-0.154-0.024-0.3-0.036-0.447c-0.006-0.08-0.016-0.165-0.02-0.243
	c-0.012-0.153-0.02-0.299-0.027-0.444c-0.004-0.066-0.009-0.137-0.012-0.201c-0.009-0.18-0.014-0.351-0.018-0.52
	c0-0.023-0.002-0.051-0.002-0.075c-0.004-0.179-0.005-0.35-0.004-0.517c0-0.012-0.001-0.024,0-0.037
	c0.019-3.079,0.781-3.941,0.958-4.101c0.016-0.014,0.028-0.023,0.034-0.027c0.105-0.077,2.726-1.777,13.946,5.206c0,0,0,0,0.001,0
	c0.133,0.083,0.252,0.151,0.387,0.237c4.007,2.521,7.736,5.299,10.02,7.069C148.837,141.68,147.17,143.374,145.4,144.966z
	 M153.943,135.067c-2.382-1.844-6.188-4.675-10.364-7.305c-3.716-2.341-6.955-4.047-9.776-5.147
	c-4.049-1.581-7.23-1.905-9.666-0.988c-0.589,0.224-1.137,0.519-1.642,0.886c-2.506,1.82-3.64,5.164-3.427,10.266
	c0.008,0.194,0.023,0.398,0.035,0.598c0.034,0.575,0.088,1.173,0.154,1.79c0.284,2.615,0.851,5.605,1.715,9.021
	c0.151,0.598,0.309,1.188,0.467,1.773c1.11,4.086,2.373,7.82,3.266,10.302c-3.701,1.023-7.528,1.645-11.42,1.815
	c-0.44,0.019-0.882,0.033-1.325,0.039c-0.262,0.005-0.524,0.014-0.786,0.015c-0.786-0.001-1.572-0.02-2.36-0.057
	c-0.133-0.006-0.265-0.014-0.398-0.021c-1.759-0.096-3.523-0.277-5.288-0.557c-1.888-0.3-3.74-0.709-5.557-1.205
	c0.118-0.33,0.245-0.687,0.375-1.06c0.033-0.094,0.068-0.195,0.102-0.291c0.095-0.273,0.191-0.553,0.292-0.847
	c0.055-0.161,0.11-0.326,0.167-0.492c0.084-0.251,0.169-0.504,0.255-0.766c0.066-0.198,0.132-0.396,0.199-0.601
	c0.025-0.076,0.049-0.147,0.074-0.226c0.033-0.101,0.066-0.21,0.099-0.311c0.125-0.388,0.25-0.779,0.377-1.185
	c0.065-0.21,0.131-0.421,0.197-0.636c0.112-0.365,0.223-0.733,0.335-1.11c0.077-0.259,0.153-0.516,0.23-0.778
	c0.102-0.347,0.2-0.697,0.3-1.052c0.081-0.286,0.162-0.569,0.241-0.861c0.125-0.459,0.247-0.925,0.368-1.391
	c0.043-0.169,0.089-0.333,0.132-0.501c3.002-11.852,2.519-18.738-1.522-21.674c-0.249-0.182-0.508-0.343-0.778-0.489
	c-0.089-0.047-0.186-0.084-0.276-0.129c-0.184-0.087-0.364-0.179-0.556-0.252c-0.141-0.054-0.291-0.092-0.436-0.137
	c-0.151-0.048-0.299-0.102-0.456-0.139c-0.179-0.045-0.368-0.073-0.556-0.104c-0.132-0.022-0.26-0.052-0.396-0.068
	c-0.213-0.026-0.437-0.037-0.659-0.05c-0.119-0.006-0.234-0.019-0.355-0.021c-0.246-0.005-0.502,0.007-0.76,0.02
	c-0.105,0.006-0.208,0.006-0.316,0.014c-0.278,0.021-0.567,0.059-0.857,0.099c-0.095,0.014-0.187,0.021-0.283,0.037
	c-0.31,0.05-0.631,0.114-0.956,0.185c-0.084,0.019-0.165,0.034-0.25,0.054c-0.343,0.079-0.697,0.175-1.057,0.278
	c-0.071,0.021-0.142,0.039-0.213,0.062c-0.377,0.112-0.764,0.24-1.158,0.378c-0.061,0.022-0.12,0.042-0.181,0.063
	c-0.41,0.147-0.832,0.311-1.261,0.485c-0.048,0.02-0.096,0.037-0.145,0.058c-0.444,0.184-0.9,0.383-1.365,0.595
	c-0.037,0.017-0.074,0.033-0.11,0.05c-0.478,0.221-0.967,0.457-1.467,0.707c-0.027,0.014-0.054,0.027-0.083,0.042
	c-0.512,0.258-1.036,0.533-1.572,0.823c-0.015,0.009-0.03,0.017-0.046,0.025c-0.547,0.296-1.106,0.61-1.679,0.943
	c-0.005,0.003-0.01,0.006-0.016,0.009c-0.918,0.531-1.859,1.094-2.843,1.714c-4.18,2.634-7.991,5.466-10.372,7.312
	c-0.15-0.229-0.287-0.467-0.433-0.696c0.013-0.004,0.025-0.006,0.038-0.01c-4.821-7.591-7.539-16.27-7.954-25.121
	c0.104,0.003,0.227,0.006,0.336,0.009c0.234,0.007,0.47,0.013,0.722,0.019c0.164,0.004,0.336,0.008,0.507,0.011
	c0.239,0.005,0.481,0.01,0.734,0.012c0.182,0.004,0.367,0.006,0.555,0.008c0.265,0.003,0.534,0.006,0.811,0.007
	c0.192,0.001,0.383,0.003,0.582,0.003c0.085,0,0.165,0.001,0.251,0.001c0.124,0,0.259-0.002,0.384-0.003
	c0.382-0.001,0.768-0.003,1.166-0.007c0.236-0.003,0.474-0.007,0.715-0.009c0.373-0.008,0.749-0.016,1.131-0.025
	c0.269-0.006,0.536-0.013,0.809-0.021c0.386-0.012,0.777-0.027,1.17-0.043c0.265-0.011,0.526-0.019,0.793-0.031
	c0.655-0.031,1.314-0.068,1.979-0.111c7.635-0.505,12.999-1.708,16.322-3.703c1.986-1.192,3.243-2.666,3.821-4.443
	c0.043-0.133,0.067-0.27,0.102-0.403c0.042-0.159,0.091-0.315,0.121-0.477c0.03-0.163,0.041-0.329,0.059-0.493
	c0.016-0.14,0.04-0.276,0.048-0.418c0.01-0.184,0-0.374-0.005-0.561c-0.003-0.125,0.002-0.248-0.007-0.374
	c-0.015-0.206-0.05-0.417-0.081-0.626c-0.018-0.112-0.027-0.221-0.048-0.333c-0.043-0.228-0.106-0.46-0.169-0.692
	c-0.027-0.098-0.047-0.195-0.077-0.294c-0.075-0.249-0.169-0.501-0.267-0.755c-0.033-0.086-0.06-0.171-0.097-0.258
	c-0.109-0.27-0.239-0.544-0.374-0.82c-0.036-0.074-0.068-0.146-0.105-0.221c-0.148-0.291-0.314-0.587-0.489-0.885
	c-0.037-0.063-0.071-0.125-0.109-0.187c-0.188-0.312-0.394-0.629-0.611-0.95c-0.035-0.051-0.067-0.102-0.102-0.152
	c-0.231-0.334-0.48-0.674-0.742-1.017c-0.03-0.04-0.059-0.078-0.089-0.117c-0.275-0.356-0.57-0.719-0.879-1.085
	c-0.023-0.027-0.045-0.054-0.068-0.081c-0.321-0.378-0.662-0.762-1.02-1.151c-0.016-0.018-0.032-0.035-0.047-0.053
	c-0.369-0.4-0.759-0.807-1.167-1.219c-0.005-0.005-0.011-0.011-0.016-0.016c-1.498-1.513-3.241-3.103-5.267-4.79
	c-3.795-3.162-7.668-5.911-10.159-7.605c0.17-0.212,0.358-0.41,0.532-0.62c0.006,0.009,0.011,0.018,0.017,0.026
	c5.729-6.932,13.144-12.198,21.434-15.328c0.844,2.894,2.257,7.403,4.082,11.97c4.537,11.352,8.976,16.639,13.971,16.639
	c1.875,0,3.671-0.745,5.423-2.275c0.031-0.029,0.063-0.064,0.098-0.092c0.257-0.23,0.516-0.471,0.772-0.736
	c0.259-0.267,0.517-0.559,0.775-0.861c0.029-0.034,0.059-0.063,0.088-0.099c2.303-2.74,4.546-6.9,6.815-12.577
	c0.061-0.154,0.117-0.307,0.179-0.461c0.181-0.462,0.36-0.922,0.534-1.379c0.103-0.27,0.197-0.533,0.297-0.801
	c0.129-0.347,0.257-0.693,0.379-1.035c0.105-0.293,0.206-0.579,0.308-0.867c0.105-0.301,0.21-0.599,0.312-0.894
	c0.103-0.302,0.204-0.599,0.305-0.895c0.087-0.261,0.172-0.516,0.255-0.771c0.062-0.188,0.131-0.387,0.189-0.571
	c0.05-0.149,0.093-0.288,0.14-0.435c0.011-0.034,0.021-0.068,0.033-0.103c0.457-1.428,0.849-2.72,1.159-3.786
	c0.434,0.163,0.855,0.345,1.282,0.518c0.486,0.199,0.976,0.392,1.456,0.606c0.343,0.151,0.678,0.313,1.014,0.471
	c0.724,0.341,1.442,0.693,2.152,1.07c0.161,0.085,0.324,0.169,0.484,0.256c1.949,1.062,3.844,2.251,5.668,3.575
	c0.926,0.672,1.821,1.373,2.689,2.097c0.032,0.026,0.064,0.052,0.096,0.078c2.641,2.211,5.02,4.652,7.13,7.279
	c-2.198,1.497-5.471,3.813-8.817,6.51c-0.001,0-0.001,0-0.001-0.001c-0.445,0.359-0.891,0.723-1.336,1.094
	c-8.809,7.333-12.574,12.938-11.738,17.524c0.057,0.306,0.132,0.608,0.229,0.905c0,0.001,0,0.002,0.001,0.004
	c0.194,0.593,0.463,1.154,0.81,1.68c0.054,0.082,0.123,0.157,0.18,0.238c0.128,0.178,0.252,0.356,0.398,0.526
	c0.146,0.169,0.313,0.329,0.477,0.49c0.074,0.074,0.139,0.152,0.218,0.225c3.021,2.771,8.91,4.378,18.059,4.982
	c0.244,0.017,0.484,0.025,0.728,0.04c0.403,0.023,0.807,0.049,1.204,0.068c0.348,0.016,0.688,0.028,1.031,0.041
	c0.301,0.012,0.602,0.024,0.896,0.034c0.36,0.011,0.712,0.02,1.064,0.028c0.266,0.006,0.528,0.012,0.788,0.016
	c0.366,0.007,0.722,0.012,1.075,0.016c0.211,0.002,0.417,0.003,0.623,0.004c0.245,0.001,0.501,0.005,0.739,0.005
	c1.718,0,3.247-0.03,4.49-0.068c-0.179,3.958-0.8,7.912-1.899,11.781c-0.013,0.038-0.023,0.076-0.034,0.115
	c-0.149,0.521-0.308,1.039-0.475,1.556c-0.017,0.05-0.034,0.099-0.051,0.147c-0.315,0.965-0.664,1.916-1.035,2.855
	c-0.067,0.171-0.135,0.343-0.203,0.513c-0.363,0.894-0.755,1.776-1.169,2.648c-0.051,0.107-0.096,0.218-0.146,0.324
	C156.297,131.22,155.184,133.182,153.943,135.067z"/>
<path fill="#DF9D26" d="M21.974,8.3c0-1.655-1.341-2.996-2.996-2.996c-1.655,0-2.997,1.341-2.997,2.996
	c0,3.061-1.071,5.873-2.85,8.095c-1.339,1.672-3.076,3.013-5.074,3.862c-1.557,0.661-3.266,1.028-5.062,1.028
	C1.341,21.285,0,22.627,0,24.282c0,1.655,1.341,2.996,2.996,2.996c4.313,0,8.129,2.121,10.492,5.366
	c1.234,1.695,2.066,3.695,2.361,5.868c0.078,0.574,0.132,1.156,0.132,1.75c0,1.657,1.341,2.999,2.997,2.999
	c1.655,0,2.996-1.341,2.996-2.999c0-7.159,5.826-12.985,12.985-12.985c1.655,0,2.996-1.341,2.996-2.996
	c0-1.655-1.341-2.997-2.996-2.997c-1.638,0-3.197-0.317-4.642-0.872c-1.924-0.74-3.625-1.922-4.983-3.427
	C23.253,14.682,21.974,11.642,21.974,8.3z M18.978,30.038c-0.38-0.59-0.792-1.156-1.233-1.699c-1.28-1.58-2.808-2.954-4.523-4.057
	c0.144-0.093,0.274-0.204,0.415-0.299c1.691-1.153,3.185-2.566,4.427-4.19c0.315-0.413,0.631-0.827,0.914-1.267
	c0.92,1.434,2.046,2.714,3.305,3.85c0.769,0.693,1.576,1.344,2.451,1.906C22.426,25.764,20.459,27.732,18.978,30.038z"/>
<path fill="#DF9D26" d="M220.905,172.404c-1.387,0-2.702-0.293-3.898-0.815c-3.354-1.462-5.725-4.747-5.872-8.597
	c-0.006-0.126-0.02-0.249-0.02-0.376c0-1.655-1.342-2.996-2.996-2.996c-1.655,0-2.997,1.341-2.997,2.996
	c0,0.664-0.068,1.313-0.194,1.94c-0.903,4.471-4.86,7.848-9.594,7.848c-1.654,0-2.996,1.342-2.996,2.997
	c0,0.039,0.01,0.077,0.012,0.117c0.062,1.599,1.37,2.879,2.984,2.879c2.621,0,4.998,1.04,6.757,2.724
	c1.863,1.784,3.031,4.289,3.031,7.065c0,1.655,1.342,2.997,2.997,2.997c1.654,0,2.996-1.342,2.996-2.997
	c0-5.396,4.393-9.789,9.79-9.789c1.654,0,2.996-1.342,2.996-2.996c0-0.053-0.012-0.1-0.016-0.151
	C223.805,173.666,222.509,172.404,220.905,172.404z M208.119,178.944c-0.985-1.358-2.183-2.557-3.542-3.543
	c0.354-0.258,0.697-0.53,1.028-0.815c0.94-0.808,1.785-1.723,2.514-2.727c0.486,0.67,1.025,1.3,1.609,1.886
	c0.598,0.602,1.244,1.156,1.935,1.656C210.303,176.388,209.105,177.586,208.119,178.944z"/>
<path fill="#DF9D26" d="M181.88,211.042c0.721,1.361,1.133,2.912,1.133,4.558c0,1.654,1.341,2.996,2.995,2.996
	c1.655,0,2.997-1.342,2.997-2.996c0-3.887,2.282-7.244,5.575-8.823c1.278-0.613,2.705-0.967,4.214-0.967
	c1.019,0,1.916-0.51,2.457-1.287c0.338-0.484,0.539-1.073,0.539-1.709c0-1.656-1.341-2.997-2.996-2.997
	c-3.366,0-6.341-1.707-8.104-4.303c-1.063-1.565-1.685-3.454-1.685-5.485c0-0.471-0.118-0.911-0.313-1.306
	c-0.486-0.998-1.5-1.69-2.685-1.69c-1.654,0-2.995,1.342-2.995,2.996c0,5.398-4.391,9.788-9.787,9.788
	c-1.657,0-2.999,1.341-2.999,2.997c0,1.655,1.342,2.996,2.999,2.996c1.389,0,2.71,0.296,3.909,0.821
	C179.172,207.522,180.846,209.086,181.88,211.042z M189.552,202.813c-0.042,0.03-0.079,0.065-0.122,0.096
	c-1.306,0.969-2.466,2.131-3.422,3.447c-0.421-0.582-0.891-1.128-1.388-1.647c-0.66-0.69-1.376-1.331-2.152-1.896
	c1.357-0.985,2.555-2.183,3.54-3.542C186.995,200.631,188.193,201.828,189.552,202.813z"/>
</svg>
