<?xml version="1.0" encoding="utf-8"?>
<!-- Generator: Adobe Illustrator 16.0.0, SVG Export Plug-In . SVG Version: 6.00 Build 0)  -->
<!DOCTYPE svg PUBLIC "-//W3C//DTD SVG 1.1//EN" "http://www.w3.org/Graphics/SVG/1.1/DTD/svg11.dtd">
<svg version="1.1" id="Layer_1" xmlns="http://www.w3.org/2000/svg" xmlns:xlink="http://www.w3.org/1999/xlink" x="0px" y="0px"
	 width="198px" height="198px" viewBox="0 0 198 198" enable-background="new 0 0 198 198" xml:space="preserve">
<path fill="none" d="M122.828,131.795c-1.66,0-3.006-1.346-3.006-3.006s1.346-3.006,3.006-3.006c1.801,0,3.516-0.368,5.077-1.031
	c-11.257-7.006-13.884-5.301-13.99-5.223c-0.108,0.078-2.608,2.076,0.75,15.361c1.157,4.58,2.644,8.977,3.624,11.707
	c5.514-2.238,10.611-5.43,15.063-9.421C130.982,133.923,127.152,131.795,122.828,131.795z"/>
<path fill="none" d="M138.859,123.016c-0.283,0.44-0.601,0.856-0.916,1.271c-1.246,1.629-2.745,3.047-4.441,4.203
	c-0.143,0.096-0.271,0.207-0.416,0.3c1.721,1.106,3.253,2.483,4.537,4.069c0.441,0.545,0.855,1.111,1.236,1.703
	c1.485-2.313,3.459-4.287,5.772-5.772c-0.877-0.563-1.687-1.217-2.458-1.912C140.912,125.738,139.782,124.453,138.859,123.016z"/>
<path fill="none" d="M123.134,91.159L123.134,91.159c0.048,0.145,1.21,3.133,14.894,4.038c4.726,0.312,9.357,0.256,12.242,0.167
	c-0.596-8.517-3.244-16.554-7.631-23.572c-2.396,1.63-6.213,4.332-9.867,7.379C122.243,87.945,123.092,91.031,123.134,91.159z"/>
<path fill="none" d="M99,73.625c0.134,0,3.331-0.146,8.424-12.869c1.768-4.414,3.156-8.874,3.967-11.657
	c-4.004-0.991-8.14-1.503-12.346-1.503c-4.228,0-8.396,0.534-12.424,1.54c0.811,2.785,2.196,7.225,3.955,11.62
	C95.669,73.479,98.866,73.625,99,73.625z"/>
<path fill="none" d="M138.859,109.752c1.66,0,3.006,1.346,3.006,3.006c0,3.352,1.283,6.401,3.371,8.713
	c3.063-6.271,4.797-13.068,5.106-20.104c-1.253,0.038-2.799,0.068-4.536,0.068c-2.457,0-5.285-0.062-8.176-0.252
	c-12.23-0.81-18.65-3.403-20.202-8.166c-0.001-0.002-0.002-0.004-0.003-0.006c-1.548-4.765,2.12-10.64,11.544-18.485
	c3.808-3.17,7.689-5.927,10.188-7.628c-2.84-3.532-6.159-6.731-9.947-9.483c-3.77-2.738-7.831-4.922-12.091-6.531
	c-0.845,2.901-2.269,7.447-4.106,12.049c-4.55,11.387-9.003,16.691-14.014,16.691s-9.464-5.304-14.015-16.691
	c-1.83-4.581-3.248-9.104-4.095-12.008c-8.316,3.14-15.754,8.423-21.501,15.376c1.768,2.604,4.751,4.316,8.129,4.316
	c1.66,0,3.006,1.346,3.006,3.006c0,0.639-0.202,1.229-0.542,1.715c8.705,7.439,12.084,13.076,10.59,17.674
	c-1.548,4.767-7.968,7.362-20.205,8.171c-2.888,0.191-5.717,0.252-8.172,0.252c-1.739,0-3.285-0.03-4.538-0.068
	c0.091,1.888,0.274,3.781,0.574,5.675c1.164,7.347,3.851,14.203,7.826,20.233c2.389-1.853,6.212-4.692,10.405-7.334
	c10.375-6.539,17.095-8.211,21.148-5.268c4.054,2.945,4.539,9.854,1.527,21.742c-1.216,4.799-2.735,9.309-3.757,12.152
	c4.413,1.213,8.965,1.836,13.574,1.836c4.659,0,9.243-0.658,13.647-1.875c-1.021-2.848-2.531-7.336-3.742-12.113
	c-3.012-11.889-2.526-18.797,1.526-21.742c4.054-2.945,10.773-1.271,21.148,5.268c0.491,0.312,0.978,0.623,1.458,0.938
	c1.783-2.229,2.857-5.05,2.857-8.12C135.854,111.098,137.199,109.752,138.859,109.752z M99,114.801
	c-8.713,0-15.801-7.088-15.801-15.801S90.287,83.199,99,83.199S114.801,90.287,114.801,99S107.713,114.801,99,114.801z"/>
<path fill="none" d="M99,89.199c-5.404,0-9.801,4.396-9.801,9.801s4.396,9.801,9.801,9.801s9.801-4.396,9.801-9.801
	S104.404,89.199,99,89.199z"/>
<path fill="none" d="M57.699,86.45c0,1.66-1.346,3.006-3.006,3.006c-1.66,0-3.005-1.346-3.005-3.006
	c0-1.651-0.414-3.206-1.137-4.573c-1.542,4.346-2.508,8.87-2.827,13.486c2.897,0.09,7.562,0.146,12.3-0.17
	c13.675-0.912,14.802-3.907,14.843-4.034c0.041-0.128,0.892-3.222-9.677-12.021c-0.632-0.525-1.267-1.036-1.899-1.538
	C59.989,79.185,57.699,82.551,57.699,86.45z"/>
<path fill="none" d="M112.918,162.682c-0.73,1.008-1.578,1.926-2.521,2.735c-0.332,0.286-0.676,0.56-1.03,0.817
	c1.362,0.99,2.563,2.19,3.553,3.555c0.99-1.363,2.19-2.564,3.556-3.555c-0.69-0.502-1.34-1.059-1.939-1.661
	C113.947,163.986,113.406,163.354,112.918,162.682z"/>
<path fill="none" d="M180.5,99c0-1.656,1.344-3,3-3h8.445c-0.252-7.91-1.494-15.574-3.611-22.872l-8.043,2.614
	c-0.309,0.1-0.62,0.147-0.928,0.147c-1.264,0-2.44-0.806-2.853-2.073c-0.513-1.576,0.351-3.27,1.927-3.781l8.039-2.611
	c-2.658-7.343-6.216-14.259-10.539-20.613l-6.813,4.949c-0.532,0.387-1.149,0.573-1.761,0.573c-0.928,0-1.844-0.429-2.43-1.237
	c-0.975-1.34-0.678-3.216,0.664-4.188l6.805-4.943c-4.758-6.107-10.258-11.608-16.364-16.365l-4.944,6.805
	c-0.587,0.808-1.502,1.236-2.429,1.236c-0.612,0-1.229-0.186-1.763-0.573c-1.34-0.974-1.637-2.851-0.662-4.19l4.949-6.812
	c-6.354-4.324-13.271-7.882-20.612-10.54l-2.612,8.041c-0.412,1.268-1.589,2.073-2.854,2.073c-0.307,0-0.619-0.048-0.928-0.147
	c-1.576-0.512-2.438-2.205-1.927-3.781l2.614-8.043c-7.298-2.117-14.962-3.36-22.873-3.612V14.5c0,1.656-1.344,3-3,3
	c-1.657,0-3-1.344-3-3V6.054c-7.911,0.252-15.575,1.495-22.872,3.612l2.613,8.043c0.512,1.576-0.351,3.268-1.926,3.779
	c-0.308,0.101-0.621,0.147-0.928,0.147c-1.265,0-2.44-0.807-2.853-2.074l-2.612-8.039c-7.342,2.658-14.258,6.215-20.612,10.539
	l4.949,6.813c0.974,1.34,0.677,3.217-0.664,4.19c-0.532,0.387-1.149,0.573-1.761,0.573c-0.928,0-1.843-0.43-2.43-1.237l-4.944-6.804
	c-6.107,4.756-11.607,10.256-16.364,16.363l6.804,4.943c1.341,0.975,1.638,2.851,0.664,4.191c-0.587,0.808-1.502,1.236-2.43,1.236
	c-0.611,0-1.229-0.186-1.761-0.572l-6.812-4.949c-4.324,6.354-7.881,13.27-10.54,20.611l8.04,2.613
	c1.576,0.512,2.438,2.205,1.926,3.78c-0.412,1.268-1.588,2.073-2.853,2.073c-0.307,0-0.62-0.047-0.928-0.146l-8.043-2.613
	C7.549,80.426,6.306,88.09,6.054,96h8.447c1.656,0,3,1.344,3,3s-1.343,3-3,3l0,0H6.054c0.252,7.91,1.495,15.574,3.612,22.872
	l8.044-2.613c1.577-0.511,3.268,0.351,3.78,1.927c0.512,1.575-0.351,3.269-1.926,3.779l-8.04,2.611
	c2.659,7.343,6.216,14.259,10.54,20.613l6.813-4.949c1.34-0.973,3.216-0.676,4.19,0.664s0.676,3.217-0.664,4.189l-6.805,4.943
	c4.756,6.107,10.257,11.607,16.364,16.363l4.944-6.805c0.975-1.34,2.851-1.637,4.191-0.662c1.34,0.974,1.637,2.851,0.664,4.189
	l-4.95,6.813c6.354,4.323,13.27,7.881,20.612,10.539l2.613-8.041c0.512-1.574,2.205-2.438,3.78-1.926
	c1.576,0.514,2.438,2.205,1.926,3.781l-2.614,8.043c7.298,2.117,14.962,3.359,22.873,3.611V183.5c0-1.656,1.343-3,3-3
	c1.656,0,3,1.344,3,3v8.446c7.91-0.253,15.574-1.495,22.872-3.612l-2.613-8.043c-0.513-1.576,0.352-3.268,1.926-3.779
	c1.576-0.513,3.27,0.351,3.78,1.926l2.612,8.039c7.343-2.658,14.258-6.215,20.611-10.539l-4.948-6.813
	c-0.974-1.34-0.677-3.217,0.664-4.189c1.341-0.974,3.217-0.678,4.19,0.664l4.943,6.803c6.105-4.756,11.605-10.256,16.363-16.362
	l-6.805-4.943c-1.341-0.975-1.638-2.851-0.664-4.19c0.975-1.34,2.852-1.639,4.19-0.664l6.813,4.949
	c4.322-6.354,7.881-13.271,10.539-20.611l-8.039-2.613c-1.576-0.512-2.438-2.203-1.926-3.779c0.512-1.576,2.202-2.438,3.778-1.926
	l8.043,2.612c2.117-7.297,3.36-14.961,3.612-22.872H183.5C181.844,102,180.5,100.657,180.5,99z M128.734,166.083
	c0.004,0.052,0.016,0.101,0.016,0.151c0,1.66-1.346,3.006-3.006,3.006c-5.414,0-9.82,4.406-9.82,9.82
	c0,1.659-1.346,3.006-3.006,3.006s-3.006-1.347-3.006-3.006c0-2.787-1.172-5.3-3.041-7.088c-2.588,0.276-5.211,0.428-7.871,0.428
	c-40.473,0-73.4-32.929-73.4-73.4c0-16.044,5.083-31.284,14.7-44.073c0.996-1.325,2.876-1.591,4.201-0.595s1.591,2.876,0.595,4.2
	C36.266,70.273,31.6,84.268,31.6,99c0,36.525,29.213,66.34,65.5,67.354c-0.001-0.041-0.012-0.078-0.012-0.119
	c0-1.659,1.346-3.006,3.006-3.006c4.748,0,8.717-3.388,9.623-7.871c-3.52,0.682-7.119,1.048-10.761,1.048
	c-6.238,0-12.387-1.007-18.276-2.991c-0.1-0.033-0.198-0.072-0.297-0.105c-0.011-0.005-0.022-0.007-0.033-0.011
	c-0.005-0.002-0.009-0.005-0.014-0.007c-5.368-1.848-10.439-4.482-15.075-7.854c-12.404-9.012-20.556-22.313-22.955-37.457
	c-0.513-3.238-0.732-6.477-0.7-9.688c-0.001-0.084-0.015-0.165-0.009-0.25c0.002-0.029,0.011-0.056,0.014-0.085
	c0.114-7.063,1.53-13.993,4.18-20.503c-1.203-0.526-2.528-0.823-3.922-0.823c-1.662,0-3.008-1.346-3.008-3.006
	s1.346-3.006,3.008-3.006c5.414,0,9.818-4.404,9.818-9.818c0-1.66,1.345-3.006,3.005-3.006c1.188,0,2.205,0.694,2.693,1.694
	c6.674-7.009,15.011-12.197,24.155-15.13c0.198-0.103,0.407-0.189,0.633-0.247c0.068-0.019,0.135-0.02,0.203-0.03
	c5.35-1.627,10.962-2.485,16.668-2.485c12.168,0,23.819,3.793,33.694,10.967c14.697,10.679,23.313,27.225,23.65,45.405
	c0.004,0.025,0.012,0.048,0.014,0.073c0.005,0.072-0.008,0.141-0.008,0.212c0.129,9.368-1.981,18.436-6.162,26.655
	c1.449,0.557,3.015,0.875,4.656,0.875c1.66,0,3.006,1.346,3.006,3.006s-1.346,3.006-3.006,3.006
	c-7.182,0-13.024,5.845-13.024,13.025c0,1.661-1.347,3.008-3.007,3.008c-1.659,0-3.006-1.347-3.006-3.008
	c0-0.597-0.055-1.181-0.133-1.757c-5.275,4.388-11.295,7.8-17.755,10.069c-0.104,0.056-0.202,0.118-0.315,0.163
	c-0.223,0.089-0.45,0.141-0.678,0.172c-0.342,0.112-0.687,0.213-1.029,0.318c0.148,3.861,2.527,7.156,5.892,8.624
	C147.793,153.034,166.4,128.152,166.4,99c0-37.164-30.235-67.4-67.4-67.4c-17.237,0-33.639,6.503-46.185,18.311
	c-1.207,1.136-3.106,1.077-4.241-0.129c-1.135-1.206-1.078-3.105,0.129-4.24C62.366,32.682,80.229,25.6,99,25.6
	c40.473,0,73.4,32.928,73.4,73.4C172.4,128.891,154.432,154.648,128.734,166.083z"/>
<path fill="none" d="M84.085,119.529c-0.108-0.079-2.788-1.846-14.423,5.486c-4.015,2.53-7.738,5.306-10.018,7.071
	c2.661,3.153,5.72,6.009,9.144,8.496c3.398,2.469,7.059,4.494,10.908,6.058c0.981-2.728,2.476-7.146,3.639-11.75
	C86.694,121.605,84.193,119.607,84.085,119.529z"/>
<path fill="#FFFFFF" d="M99,25.6c-18.771,0-36.634,7.082-50.297,19.941c-1.207,1.135-1.264,3.034-0.129,4.24
	c1.135,1.206,3.034,1.265,4.241,0.129C65.361,38.103,81.763,31.6,99,31.6c37.165,0,67.4,30.236,67.4,67.4
	c0,29.152-18.607,54.034-44.566,63.411c1.199,0.522,2.521,0.817,3.91,0.817c1.609,0,2.91,1.267,2.99,2.854
	C154.432,154.648,172.4,128.891,172.4,99C172.4,58.527,139.473,25.6,99,25.6z"/>
<path fill="#FFFFFF" d="M97.1,166.354C60.813,165.34,31.6,135.525,31.6,99c0-14.732,4.667-28.727,13.495-40.468
	c0.996-1.324,0.729-3.204-0.595-4.2s-3.205-0.73-4.201,0.595C30.683,67.716,25.6,82.956,25.6,99c0,40.473,32.927,73.4,73.4,73.4
	c2.66,0,5.283-0.15,7.871-0.428c-1.764-1.688-4.148-2.732-6.777-2.732C98.474,169.24,97.163,167.956,97.1,166.354z"/>
<path fill="#FFFFFF" d="M99,83.199c-8.713,0-15.801,7.088-15.801,15.801S90.287,114.801,99,114.801s15.801-7.088,15.801-15.801
	S107.713,83.199,99,83.199z M99,108.801c-5.404,0-9.801-4.396-9.801-9.801s4.396-9.801,9.801-9.801s9.801,4.396,9.801,9.801
	S104.404,108.801,99,108.801z"/>
<path fill="#FFFFFF" d="M179.303,41.17c-0.063-0.121-0.125-0.244-0.209-0.359c-0.088-0.12-0.188-0.222-0.289-0.325
	c-5.978-8.129-13.162-15.314-21.291-21.29c-0.104-0.101-0.203-0.201-0.322-0.287c-0.112-0.083-0.235-0.144-0.356-0.208
	C140.553,6.94,120.573,0,99,0C77.43,0,57.452,6.938,41.172,18.695c-0.123,0.065-0.247,0.127-0.362,0.211
	c-0.121,0.088-0.224,0.191-0.328,0.293c-8.125,5.975-15.308,13.157-21.283,21.283c-0.101,0.104-0.204,0.205-0.292,0.326
	c-0.084,0.115-0.146,0.239-0.211,0.361C6.939,57.45,0,77.429,0,99s6.939,41.55,18.697,57.83c0.065,0.121,0.126,0.244,0.209,0.359
	c0.073,0.1,0.164,0.176,0.246,0.265c5.985,8.151,13.185,15.358,21.333,21.35c0.103,0.101,0.204,0.201,0.323,0.288
	c0.136,0.1,0.278,0.184,0.424,0.258C57.501,191.078,77.456,198,99,198c21.542,0,41.496-6.92,57.764-18.648
	c0.146-0.072,0.291-0.158,0.428-0.258c0.121-0.088,0.224-0.19,0.328-0.293c8.146-5.988,15.345-13.193,21.326-21.345
	c0.084-0.088,0.174-0.165,0.247-0.265c0.084-0.115,0.146-0.239,0.212-0.362C191.061,140.549,198,120.571,198,99
	S191.061,57.45,179.303,41.17z M188.334,124.872l-8.043-2.612c-1.576-0.513-3.268,0.35-3.779,1.926
	c-0.513,1.576,0.35,3.269,1.926,3.779l8.039,2.613c-2.658,7.342-6.216,14.257-10.539,20.611l-6.813-4.949
	c-1.34-0.975-3.217-0.678-4.189,0.664c-0.974,1.341-0.678,3.217,0.664,4.19l6.803,4.943c-4.756,6.106-10.256,11.606-16.362,16.362
	l-4.944-6.804c-0.974-1.341-2.85-1.638-4.189-0.663c-1.34,0.974-1.639,2.851-0.664,4.189l4.949,6.813
	c-6.354,4.324-13.271,7.881-20.612,10.539l-2.612-8.039c-0.512-1.576-2.203-2.438-3.779-1.926s-2.438,2.203-1.927,3.779l2.613,8.043
	c-7.298,2.117-14.962,3.359-22.872,3.611V183.5c0-1.656-1.344-3-3-3c-1.657,0-3,1.344-3,3v8.446
	c-7.911-0.253-15.575-1.495-22.873-3.612l2.614-8.043c0.512-1.576-0.35-3.27-1.926-3.781c-1.575-0.512-3.269,0.352-3.78,1.926
	l-2.613,8.041c-7.342-2.658-14.258-6.216-20.612-10.539l4.95-6.813c0.974-1.34,0.677-3.217-0.664-4.189
	c-1.341-0.974-3.216-0.678-4.191,0.662l-4.944,6.805c-6.107-4.756-11.608-10.256-16.364-16.363l6.805-4.943
	c1.34-0.974,1.638-2.851,0.664-4.189c-0.974-1.34-2.85-1.637-4.19-0.664l-6.813,4.949c-4.324-6.354-7.881-13.271-10.54-20.613
	l8.04-2.611c1.576-0.512,2.438-2.204,1.926-3.779c-0.512-1.576-2.203-2.438-3.78-1.927l-8.044,2.613
	c-2.118-7.3-3.361-14.964-3.613-22.874H14.5l0,0c1.657,0,3-1.344,3-3s-1.343-3-3-3H6.054c0.252-7.91,1.495-15.574,3.612-22.872
	l8.043,2.613c0.308,0.101,0.621,0.146,0.928,0.146c1.265,0,2.44-0.806,2.853-2.073c0.512-1.575-0.35-3.269-1.926-3.78l-8.04-2.613
	c2.659-7.342,6.216-14.257,10.54-20.611l6.812,4.949c0.532,0.387,1.149,0.572,1.761,0.572c0.928,0,1.843-0.429,2.43-1.236
	c0.974-1.341,0.677-3.217-0.664-4.19l-6.804-4.943c4.757-6.107,10.257-11.607,16.364-16.363l4.944,6.804
	c0.587,0.808,1.502,1.237,2.43,1.237c0.611,0,1.229-0.187,1.761-0.573c1.341-0.974,1.638-2.851,0.664-4.19l-4.949-6.813
	c6.354-4.324,13.27-7.881,20.612-10.539l2.612,8.039c0.412,1.268,1.588,2.074,2.853,2.074c0.307,0,0.62-0.048,0.928-0.147
	c1.575-0.512,2.438-2.203,1.926-3.779l-2.613-8.043C80.425,7.549,88.089,6.306,96,6.054V14.5c0,1.656,1.343,3,3,3
	c1.656,0,3-1.344,3-3V6.054c7.911,0.252,15.575,1.495,22.873,3.612l-2.614,8.043c-0.512,1.576,0.351,3.27,1.927,3.781
	c0.309,0.1,0.621,0.146,0.929,0.146c1.264,0,2.44-0.806,2.853-2.073l2.612-8.041c7.343,2.658,14.258,6.216,20.612,10.54
	l-4.949,6.812c-0.975,1.34-0.678,3.217,0.663,4.19c0.532,0.388,1.149,0.573,1.762,0.573c0.927,0,1.842-0.429,2.429-1.236
	l4.944-6.805c6.106,4.757,11.606,10.258,16.364,16.365l-6.805,4.943c-1.342,0.974-1.639,2.85-0.664,4.188
	c0.586,0.809,1.502,1.237,2.43,1.237c0.611,0,1.229-0.187,1.761-0.573l6.813-4.949c4.324,6.354,7.881,13.271,10.539,20.613
	l-8.039,2.611c-1.576,0.512-2.438,2.205-1.926,3.781c0.41,1.268,1.588,2.073,2.852,2.073c0.308,0,0.619-0.048,0.928-0.146
	l8.043-2.614c2.117,7.298,3.359,14.962,3.612,22.872H183.5c-1.656,0-3,1.344-3,3c0,1.657,1.344,3,3,3h8.445
	C191.693,109.911,190.451,117.575,188.334,124.872z"/>
<path fill="#FFFFFF" d="M112.918,150.404c1.66,0,3.006,1.346,3.006,3.006c0,0.127,0.016,0.251,0.02,0.377
	c0.344-0.105,0.688-0.206,1.029-0.318c0.228-0.031,0.455-0.083,0.678-0.172c0.113-0.045,0.211-0.107,0.315-0.163
	c6.46-2.271,12.479-5.683,17.755-10.069c-0.295-2.18-1.13-4.187-2.367-5.887c-4.453,3.991-9.551,7.184-15.063,9.422
	c-0.981-2.731-2.467-7.127-3.624-11.707c-3.357-13.287-0.857-15.285-0.75-15.362c0.105-0.078,2.734-1.783,13.99,5.223
	c2.004-0.853,3.746-2.196,5.09-3.874c-0.48-0.313-0.967-0.626-1.458-0.938c-10.375-6.538-17.095-8.213-21.147-5.268
	c-4.054,2.945-4.539,9.854-1.527,21.742c1.211,4.777,2.722,9.268,3.742,12.113c-4.404,1.217-8.988,1.875-13.647,1.875
	c-4.609,0-9.161-0.623-13.574-1.836c1.022-2.846,2.541-7.354,3.757-12.152c3.012-11.889,2.526-18.797-1.527-21.742
	c-4.054-2.943-10.773-1.271-21.148,5.268c-4.193,2.642-8.016,5.481-10.405,7.334c-3.975-6.03-6.662-12.887-7.826-20.233
	c-0.3-1.894-0.483-3.787-0.574-5.675c1.253,0.038,2.799,0.068,4.538,0.068c2.455,0,5.284-0.061,8.172-0.252
	c12.237-0.809,18.657-3.404,20.205-8.17c1.494-4.598-1.885-10.234-10.59-17.674c-0.543,0.779-1.443,1.291-2.464,1.291
	c-1.515,0-2.945,0.354-4.228,0.97c0.633,0.502,1.268,1.012,1.899,1.538c10.569,8.8,9.718,11.894,9.677,12.021
	c-0.042,0.127-1.168,3.122-14.843,4.034c-4.738,0.316-9.402,0.26-12.3,0.17c0.319-4.616,1.284-9.141,2.827-13.486
	c-1.037-1.961-2.717-3.529-4.759-4.424c-2.65,6.51-4.066,13.439-4.18,20.503c-0.003,0.029-0.012,0.056-0.014,0.085
	c-0.005,0.085,0.008,0.166,0.009,0.25c-0.033,3.213,0.187,6.45,0.7,9.688c2.398,15.145,10.551,28.446,22.955,37.459
	c4.636,3.369,9.707,6.004,15.075,7.853c0.005,0.002,0.009,0.005,0.014,0.007c0.011,0.004,0.022,0.006,0.033,0.01
	c0.1,0.034,0.197,0.073,0.297,0.106c5.889,1.983,12.038,2.991,18.276,2.991c3.642,0,7.241-0.366,10.761-1.049
	c0.127-0.629,0.195-1.279,0.195-1.945C109.912,151.75,111.258,150.404,112.918,150.404z M83.335,134.893
	c-1.164,4.604-2.658,9.021-3.639,11.75c-3.849-1.563-7.509-3.59-10.908-6.059c-3.424-2.486-6.483-5.343-9.144-8.496
	c2.279-1.767,6.003-4.541,10.018-7.07c11.635-7.332,14.314-5.566,14.423-5.487C84.193,119.607,86.694,121.605,83.335,134.893z"/>
<path fill="#FFFFFF" d="M59.39,66.302c5.747-6.953,13.185-12.236,21.501-15.376c0.847,2.903,2.265,7.427,4.095,12.008
	C89.536,74.321,93.989,79.625,99,79.625s9.464-5.304,14.016-16.691c1.838-4.602,3.262-9.147,4.105-12.049
	c4.26,1.609,8.32,3.793,12.091,6.531c3.788,2.752,7.108,5.951,9.947,9.483c-2.499,1.701-6.382,4.458-10.188,7.628
	c-9.424,7.846-13.092,13.721-11.544,18.485c0.001,0.002,0.003,0.004,0.003,0.006c1.551,4.762,7.971,7.356,20.202,8.166
	c2.89,0.19,5.72,0.252,8.175,0.252c1.738,0,3.284-0.03,4.537-0.068c-0.311,7.035-2.045,13.833-5.107,20.104
	c1.363,1.51,3.068,2.695,4.998,3.438c4.181-8.222,6.291-17.287,6.162-26.655c0-0.071,0.013-0.14,0.008-0.212
	c-0.002-0.025-0.01-0.048-0.014-0.073c-0.339-18.181-8.953-34.727-23.65-45.405c-9.875-7.174-21.526-10.967-33.694-10.967
	c-5.706,0-11.319,0.858-16.668,2.485c-0.068,0.012-0.135,0.013-0.203,0.03c-0.226,0.058-0.435,0.145-0.633,0.247
	c-9.144,2.933-17.481,8.121-24.155,15.13c0.194,0.396,0.313,0.839,0.313,1.312C57.699,62.837,58.323,64.731,59.39,66.302z
	 M142.639,71.792c4.387,7.019,7.035,15.056,7.631,23.572c-2.885,0.089-7.518,0.145-12.242-0.167
	c-13.684-0.905-14.846-3.895-14.894-4.037v-0.001c-0.042-0.128-0.891-3.214,9.638-11.988
	C136.426,76.124,140.242,73.422,142.639,71.792z M99.045,47.596c4.206,0,8.342,0.512,12.346,1.503
	c-0.811,2.783-2.199,7.243-3.967,11.657c-5.093,12.723-8.29,12.869-8.424,12.869s-3.331-0.146-8.424-12.869
	c-1.759-4.396-3.145-8.835-3.955-11.62C90.648,48.13,94.817,47.596,99.045,47.596z"/>
<path fill="#DF9D26" d="M141.865,112.758c0-1.66-1.346-3.006-3.006-3.006s-3.006,1.346-3.006,3.006c0,3.07-1.074,5.891-2.858,8.12
	c-1.343,1.679-3.086,3.022-5.09,3.874c-1.563,0.663-3.276,1.031-5.077,1.031c-1.66,0-3.006,1.346-3.006,3.006
	s1.346,3.006,3.006,3.006c4.324,0,8.154,2.128,10.523,5.383c1.238,1.7,2.073,3.707,2.368,5.887c0.078,0.576,0.134,1.16,0.134,1.757
	c0,1.661,1.346,3.008,3.006,3.008s3.006-1.347,3.006-3.008c0-7.183,5.844-13.025,13.025-13.025c1.659,0,3.006-1.346,3.006-3.006
	s-1.347-3.006-3.006-3.006c-1.644,0-3.207-0.318-4.656-0.875c-1.931-0.742-3.637-1.929-4.998-3.438
	C143.148,119.159,141.865,116.109,141.865,112.758z M138.859,134.563c-0.381-0.592-0.795-1.158-1.236-1.703
	c-1.284-1.586-2.816-2.963-4.537-4.069c0.145-0.093,0.273-0.204,0.416-0.3c1.696-1.156,3.195-2.574,4.441-4.203
	c0.315-0.414,0.633-0.83,0.916-1.271c0.923,1.438,2.053,2.724,3.314,3.861c0.771,0.695,1.581,1.35,2.458,1.912
	C142.318,130.275,140.346,132.25,138.859,134.563z"/>
<path fill="#DF9D26" d="M125.744,163.229c-1.391,0-2.711-0.293-3.91-0.816c-3.363-1.467-5.742-4.764-5.891-8.624
	c-0.006-0.126-0.021-0.25-0.021-0.377c0-1.66-1.346-3.006-3.006-3.006s-3.006,1.346-3.006,3.006c0,0.666-0.068,1.317-0.195,1.946
	c-0.905,4.483-4.875,7.871-9.623,7.871c-1.66,0-3.006,1.347-3.006,3.006c0,0.041,0.01,0.078,0.012,0.119
	c0.063,1.604,1.375,2.888,2.994,2.888c2.63,0,5.015,1.044,6.777,2.731c1.869,1.789,3.041,4.303,3.041,7.088
	c0,1.66,1.346,3.006,3.006,3.006s3.006-1.346,3.006-3.006c0-5.414,4.406-9.819,9.82-9.819c1.659,0,3.006-1.347,3.006-3.007
	c0-0.051-0.013-0.1-0.015-0.15C128.654,164.495,127.354,163.229,125.744,163.229z M112.918,169.789
	c-0.988-1.363-2.189-2.564-3.553-3.555c0.354-0.258,0.699-0.531,1.031-0.817c0.942-0.81,1.791-1.728,2.521-2.735
	c0.487,0.674,1.028,1.306,1.615,1.893c0.601,0.604,1.249,1.16,1.938,1.66C115.109,167.225,113.908,168.426,112.918,169.789z"/>
<path fill="#DF9D26" d="M50.551,81.877c0.723,1.367,1.137,2.922,1.137,4.573c0,1.66,1.345,3.006,3.005,3.006
	c1.66,0,3.006-1.346,3.006-3.006c0-3.899,2.291-7.266,5.592-8.851c1.283-0.615,2.713-0.97,4.228-0.97
	c1.021,0,1.921-0.512,2.464-1.291c0.339-0.486,0.542-1.076,0.542-1.715c0-1.66-1.346-3.006-3.006-3.006
	c-3.378,0-6.361-1.714-8.129-4.316c-1.066-1.57-1.691-3.465-1.691-5.502c0-0.473-0.119-0.914-0.313-1.312
	c-0.488-1-1.505-1.694-2.693-1.694c-1.66,0-3.005,1.346-3.005,3.006c0,5.414-4.404,9.818-9.818,9.818
	c-1.662,0-3.008,1.346-3.008,3.006s1.346,3.006,3.008,3.006c1.395,0,2.72,0.297,3.922,0.823
	C47.834,78.348,49.514,79.916,50.551,81.877z M58.248,73.624c-0.042,0.03-0.08,0.065-0.122,0.096
	c-1.312,0.973-2.475,2.138-3.433,3.459c-0.423-0.584-0.894-1.132-1.391-1.652c-0.664-0.694-1.382-1.337-2.161-1.902
	c1.363-0.988,2.564-2.189,3.552-3.553C55.681,71.435,56.884,72.636,58.248,73.624z"/>
</svg>
