<?xml version="1.0" encoding="utf-8"?>
<!-- Generator: Adobe Illustrator 16.0.0, SVG Export Plug-In . SVG Version: 6.00 Build 0)  -->
<!DOCTYPE svg PUBLIC "-//W3C//DTD SVG 1.1//EN" "http://www.w3.org/Graphics/SVG/1.1/DTD/svg11.dtd">
<svg version="1.1" id="Layer_1" xmlns="http://www.w3.org/2000/svg" xmlns:xlink="http://www.w3.org/1999/xlink" x="0px" y="0px"
	 width="223.9px" height="223.9px" viewBox="0 -5.304 223.9 223.9" enable-background="new 0 -5.304 223.9 223.9"
	 xml:space="preserve">
<path fill="none" d="M135.201,93.767L135.201,93.767c0.047,0.145,1.206,3.123,14.847,4.026c4.71,0.311,9.329,0.255,12.204,0.167
	c-0.593-8.49-3.233-16.502-7.606-23.499c-2.39,1.625-6.192,4.318-9.836,7.356C134.313,90.563,135.159,93.639,135.201,93.767z"/>
<path fill="none" d="M111.143,76.287c0.133,0,3.321-0.146,8.397-12.829c1.761-4.4,3.146-8.846,3.953-11.621
	c-3.989-0.987-8.113-1.498-12.307-1.498c-4.215,0-8.37,0.533-12.385,1.536c0.808,2.776,2.189,7.202,3.942,11.583
	C107.821,76.142,111.009,76.287,111.143,76.287z"/>
<path fill="none" d="M111.143,117.333c-8.687,0-15.752-7.064-15.752-15.75s7.065-15.751,15.752-15.751
	c8.686,0,15.751,7.065,15.751,15.751S119.828,117.333,111.143,117.333z"/>
<path fill="none" d="M111.143,91.813c-5.388,0-9.771,4.383-9.771,9.77c0,5.388,4.383,9.771,9.771,9.771
	c5.387,0,9.771-4.383,9.771-9.771C120.913,96.196,116.53,91.813,111.143,91.813z"/>
<path fill="none" d="M192.388,101.583c0-1.651,1.34-2.99,2.99-2.99h8.42c-0.25-7.886-1.489-15.526-3.602-22.801l-8.018,2.606
	c-0.307,0.1-0.618,0.147-0.925,0.147c-1.26,0-2.435-0.803-2.843-2.067c-0.512-1.571,0.349-3.259,1.919-3.769l8.015-2.604
	c-2.65-7.32-6.195-14.214-10.507-20.549l-6.79,4.934c-0.531,0.385-1.146,0.572-1.755,0.572c-0.926,0-1.838-0.428-2.423-1.234
	c-0.972-1.335-0.676-3.206,0.66-4.176l6.784-4.928c-4.742-6.088-10.226-11.572-16.313-16.314l-4.93,6.783
	c-0.585,0.806-1.496,1.232-2.422,1.232c-0.609,0-1.225-0.185-1.756-0.571c-1.336-0.971-1.632-2.842-0.66-4.177l4.934-6.791
	c-6.334-4.311-13.229-7.857-20.547-10.507l-2.604,8.016c-0.411,1.264-1.584,2.066-2.844,2.066c-0.307,0-0.618-0.048-0.925-0.147
	c-1.571-0.51-2.433-2.198-1.921-3.77l2.604-8.018c-7.273-2.11-14.915-3.35-22.802-3.601v8.42c0,1.651-1.339,2.99-2.99,2.99
	c-1.652,0-2.991-1.339-2.991-2.99v-8.42c-7.886,0.251-15.525,1.49-22.801,3.601l2.605,8.018c0.51,1.571-0.351,3.258-1.92,3.768
	c-0.308,0.1-0.619,0.148-0.926,0.148c-1.261,0-2.433-0.804-2.844-2.067l-2.604-8.014c-7.319,2.65-14.214,6.195-20.549,10.506
	l4.935,6.792c0.97,1.335,0.674,3.207-0.662,4.177c-0.53,0.386-1.146,0.571-1.755,0.571c-0.925,0-1.837-0.428-2.422-1.233
	l-4.929-6.782c-6.088,4.741-11.57,10.224-16.313,16.312l6.783,4.928c1.336,0.972,1.632,2.842,0.662,4.178
	c-0.585,0.805-1.497,1.233-2.423,1.233c-0.608,0-1.224-0.186-1.755-0.571l-6.791-4.934c-4.311,6.335-7.856,13.229-10.507,20.547
	l8.016,2.605c1.57,0.51,2.431,2.198,1.92,3.768c-0.412,1.264-1.583,2.067-2.845,2.067c-0.306,0-0.617-0.046-0.925-0.147
	l-8.018-2.605c-2.11,7.275-3.351,14.916-3.602,22.801h8.42c1.652,0,2.991,1.339,2.991,2.99c0,1.652-1.339,2.991-2.991,2.991l0,0
	h-8.419c0.251,7.885,1.49,15.526,3.602,22.801l8.019-2.604c1.572-0.511,3.258,0.351,3.77,1.921c0.51,1.568-0.351,3.258-1.921,3.768
	l-8.016,2.604c2.65,7.318,6.197,14.215,10.508,20.549l6.791-4.936c1.336-0.969,3.207-0.672,4.178,0.664
	c0.971,1.334,0.674,3.205-0.662,4.177l-6.784,4.929c4.742,6.088,10.225,11.571,16.313,16.313l4.93-6.782
	c0.971-1.336,2.841-1.632,4.178-0.661c1.336,0.971,1.632,2.842,0.662,4.178l-4.935,6.791c6.335,4.311,13.229,7.855,20.548,10.506
	l2.604-8.016c0.51-1.57,2.198-2.43,3.77-1.919c1.57,0.511,2.43,2.198,1.92,3.769l-2.606,8.02c7.275,2.109,14.916,3.35,22.802,3.602
	v-8.42c0-1.65,1.34-2.992,2.991-2.992s2.99,1.342,2.99,2.992v8.42c7.886-0.252,15.526-1.492,22.801-3.602l-2.604-8.02
	c-0.513-1.569,0.35-3.256,1.92-3.767c1.57-0.512,3.258,0.349,3.769,1.919l2.604,8.014c7.318-2.648,14.213-6.193,20.547-10.506
	l-4.934-6.791c-0.971-1.336-0.676-3.207,0.661-4.178s3.207-0.675,4.179,0.662l4.929,6.781c6.087-4.739,11.57-10.223,16.313-16.312
	l-6.782-4.929c-1.337-0.973-1.633-2.842-0.661-4.178c0.97-1.338,2.841-1.633,4.178-0.664l6.79,4.936
	c4.311-6.334,7.855-13.229,10.507-20.547l-8.015-2.605c-1.57-0.51-2.431-2.195-1.919-3.767c0.51-1.571,2.195-2.433,3.768-1.921
	l8.019,2.604c2.11-7.272,3.351-14.914,3.601-22.8h-8.42C193.728,104.574,192.388,103.236,192.388,101.583z"/>
<path fill="none" d="M96.273,122.048c-0.107-0.078-2.778-1.84-14.378,5.471c-4.002,2.521-7.714,5.288-9.985,7.049
	c2.651,3.145,5.701,5.989,9.114,8.471c3.389,2.461,7.037,4.479,10.874,6.039c0.979-2.72,2.469-7.125,3.628-11.715
	C98.875,124.119,96.381,122.126,96.273,122.048z"/>
<path fill="#FFFFFF" d="M111.127,28.405c-18.713,0-36.521,7.06-50.142,19.879c-1.204,1.13-1.261,3.025-0.129,4.226
	c1.132,1.202,3.024,1.261,4.228,0.128c12.509-11.77,28.857-18.252,46.042-18.252c37.048-0.001,67.188,30.142,67.19,67.19
	c-0.002,19.878-8.684,37.763-22.451,50.073c-0.102,0.091-0.2,0.183-0.302,0.271c-0.563,0.5-1.14,0.99-1.719,1.471
	c-0.104,0.085-0.209,0.169-0.312,0.253c-1.774,1.446-3.624,2.802-5.54,4.063c-0.186,0.123-0.368,0.246-0.556,0.367
	c-0.519,0.334-1.044,0.657-1.571,0.979c-0.347,0.207-0.692,0.412-1.039,0.615c-0.439,0.256-0.883,0.512-1.328,0.76
	c-0.718,0.394-1.44,0.777-2.17,1.145c-0.101,0.051-0.195,0.105-0.296,0.154c-0.952,0.473-1.915,0.922-2.885,1.348
	c-0.014,0.006-0.026,0.014-0.043,0.02c-9.833,4.301-20.491,6.141-31.032,5.513c-0.004-0.001-0.008-0.001-0.013-0.001
	c-1.015-0.061-2.028-0.146-3.042-0.253c-0.063-0.009-0.13-0.013-0.195-0.021c-0.952-0.103-1.901-0.229-2.85-0.371
	c-0.138-0.021-0.275-0.043-0.413-0.064c-0.867-0.137-1.727-0.291-2.587-0.463c-0.242-0.047-0.482-0.098-0.725-0.146
	c-0.742-0.154-1.481-0.326-2.222-0.508c-0.385-0.094-0.767-0.193-1.146-0.294c-0.583-0.151-1.163-0.315-1.741-0.483
	c-0.562-0.166-1.121-0.338-1.676-0.52c-0.384-0.123-0.769-0.249-1.149-0.379c-0.765-0.264-1.522-0.536-2.274-0.826
	c-0.167-0.063-0.333-0.127-0.498-0.191c-19.895-7.846-35.174-24.912-40.532-45.914c-0.023-0.096-0.047-0.191-0.07-0.289
	c-0.213-0.848-0.404-1.704-0.584-2.565c-0.058-0.276-0.114-0.552-0.169-0.827c-0.141-0.721-0.265-1.445-0.382-2.172
	c-0.051-0.318-0.106-0.637-0.155-0.958c-0.469-3.194-0.717-6.459-0.717-9.782c-0.001-14.687,4.652-28.637,13.454-40.341
	c0.993-1.32,0.728-3.194-0.594-4.187c-1.319-0.993-3.194-0.729-4.188,0.592c-9.585,12.75-14.652,27.941-14.65,43.937
	c-0.001,3.442,0.256,6.824,0.718,10.14c0.004,0.058-0.002,0.114,0.006,0.171c0.021,0.143,0.049,0.283,0.07,0.429
	c0.059,0.394,0.126,0.784,0.189,1.177c0.125,0.764,0.261,1.525,0.409,2.281c0.064,0.33,0.13,0.659,0.201,0.988
	c0.205,0.977,0.429,1.945,0.674,2.908c0.019,0.078,0.037,0.154,0.057,0.232c3.234,12.618,9.743,24.051,19.106,33.412
	c5.888,5.889,12.545,10.541,19.642,13.998c0.199,0.098,0.396,0.198,0.593,0.293c0.707,0.335,1.418,0.652,2.132,0.965
	c0.458,0.201,0.913,0.404,1.373,0.596c0.468,0.192,0.938,0.373,1.408,0.557c0.72,0.281,1.441,0.561,2.173,0.816
	c0.215,0.078,0.43,0.146,0.646,0.221c7.459,2.57,15.453,3.986,23.773,3.986c2.651,0,5.268-0.149,7.846-0.426
	c-0.012-0.013-0.027-0.025-0.041-0.037c16.058-1.709,31.655-8.688,43.936-20.969c1.875-1.875,3.62-3.828,5.247-5.849
	c-0.021-0.001-0.043,0.004-0.065,0.004c10.154-12.56,16.252-28.524,16.25-45.896C184.298,61.229,151.473,28.405,111.127,28.405z"/>
<path fill="#FFFFFF" d="M111.143,85.832c-8.687,0-15.752,7.065-15.752,15.751s7.065,15.75,15.752,15.75
	c8.686,0,15.751-7.064,15.751-15.75S119.828,85.832,111.143,85.832z M111.143,111.354c-5.388,0-9.771-4.383-9.771-9.771
	c0-5.387,4.383-9.77,9.771-9.77c5.387,0,9.771,4.383,9.771,9.77C120.913,106.971,116.53,111.354,111.143,111.354z"/>
<path fill="#FFFFFF" d="M191.195,43.933c-0.063-0.12-0.125-0.243-0.209-0.358c-0.087-0.12-0.188-0.221-0.289-0.324
	c-5.957-8.104-13.12-15.267-21.223-21.224c-0.104-0.099-0.203-0.201-0.322-0.287c-0.111-0.083-0.234-0.143-0.355-0.207
	C152.566,9.81,132.649,2.891,111.143,2.891c-21.503,0-41.419,6.917-57.647,18.637c-0.123,0.065-0.246,0.126-0.361,0.21
	c-0.121,0.088-0.224,0.191-0.327,0.292c-8.101,5.956-15.26,13.116-21.217,21.217c-0.102,0.103-0.203,0.204-0.29,0.325
	c-0.083,0.115-0.146,0.239-0.21,0.36c-11.72,16.23-18.638,36.146-18.638,57.65c0,21.503,6.918,41.419,18.639,57.65
	c0.065,0.121,0.126,0.244,0.209,0.357c0.073,0.101,0.163,0.176,0.245,0.265c5.966,8.127,13.144,15.312,21.267,21.283
	c0.104,0.1,0.203,0.2,0.322,0.286c0.136,0.1,0.277,0.184,0.422,0.257c16.218,11.692,36.111,18.594,57.588,18.594
	c21.476,0,41.367-6.897,57.583-18.59c0.146-0.074,0.289-0.158,0.426-0.259c0.12-0.086,0.224-0.189,0.327-0.291
	c8.12-5.971,15.296-13.152,21.26-21.278c0.083-0.088,0.175-0.164,0.246-0.265c0.084-0.113,0.146-0.237,0.211-0.36
	c11.722-16.229,18.639-36.146,18.639-57.649C209.833,80.079,202.917,60.163,191.195,43.933z M200.198,127.375l-8.019-2.604
	c-1.571-0.512-3.258,0.35-3.768,1.921c-0.512,1.57,0.349,3.257,1.919,3.767l8.015,2.605c-2.65,7.318-6.196,14.213-10.507,20.547
	l-6.79-4.936c-1.337-0.969-3.208-0.674-4.178,0.664c-0.972,1.336-0.676,3.205,0.661,4.178l6.782,4.929
	c-4.741,6.089-10.226,11.571-16.313,16.312l-4.929-6.781c-0.972-1.337-2.842-1.633-4.179-0.662s-1.632,2.842-0.661,4.178
	l4.934,6.791c-6.334,4.313-13.229,7.856-20.547,10.506l-2.604-8.014c-0.511-1.57-2.197-2.432-3.769-1.919
	c-1.57,0.511-2.433,2.196-1.92,3.767l2.604,8.02c-7.273,2.109-14.915,3.35-22.801,3.602v-8.421c0-1.649-1.339-2.991-2.99-2.991
	c-1.652,0-2.991,1.342-2.991,2.991v8.421c-7.886-0.252-15.525-1.492-22.802-3.602l2.606-8.02c0.51-1.57-0.35-3.258-1.92-3.769
	s-3.259,0.349-3.77,1.919l-2.604,8.016c-7.319-2.649-14.214-6.195-20.548-10.506l4.935-6.791c0.97-1.336,0.674-3.207-0.662-4.178
	s-3.207-0.675-4.178,0.661l-4.93,6.782c-6.089-4.74-11.571-10.225-16.313-16.313l6.784-4.929c1.336-0.972,1.632-2.843,0.662-4.177
	c-0.972-1.336-2.842-1.633-4.178-0.664l-6.791,4.936c-4.311-6.334-7.856-13.229-10.508-20.549l8.016-2.604
	c1.57-0.51,2.431-2.197,1.921-3.768c-0.512-1.57-2.196-2.432-3.77-1.921l-8.019,2.604c-2.11-7.274-3.351-14.916-3.602-22.801H26.9
	l0,0c1.652,0,2.991-1.339,2.991-2.991c0-1.651-1.339-2.99-2.991-2.99h-8.42c0.251-7.886,1.49-15.526,3.602-22.801l8.018,2.605
	c0.308,0.101,0.619,0.147,0.925,0.147c1.262,0,2.434-0.803,2.845-2.067c0.51-1.57-0.351-3.258-1.92-3.768l-8.016-2.605
	c2.65-7.319,6.197-14.212,10.507-20.547l6.791,4.934c0.531,0.385,1.146,0.571,1.755,0.571c0.926,0,1.838-0.428,2.423-1.233
	c0.971-1.336,0.675-3.207-0.662-4.178l-6.783-4.928c4.742-6.088,10.225-11.571,16.313-16.312l4.929,6.782
	c0.585,0.806,1.497,1.233,2.422,1.233c0.609,0,1.225-0.186,1.755-0.571c1.336-0.971,1.632-2.842,0.662-4.177l-4.935-6.792
	c6.334-4.311,13.229-7.856,20.549-10.506l2.604,8.014c0.411,1.264,1.583,2.067,2.844,2.067c0.307,0,0.618-0.048,0.926-0.148
	c1.569-0.51,2.43-2.196,1.92-3.768l-2.605-8.018c7.275-2.11,14.915-3.35,22.801-3.601v8.42c0,1.651,1.339,2.99,2.991,2.99
	c1.651,0,2.99-1.339,2.99-2.99v-8.42c7.887,0.251,15.526,1.49,22.802,3.601l-2.604,8.018c-0.512,1.571,0.35,3.26,1.921,3.77
	c0.307,0.099,0.618,0.147,0.925,0.147c1.26,0,2.433-0.803,2.844-2.066l2.604-8.016c7.318,2.65,14.213,6.196,20.547,10.507
	l-4.934,6.791c-0.972,1.335-0.676,3.207,0.66,4.177c0.531,0.387,1.146,0.571,1.756,0.571c0.926,0,1.837-0.427,2.422-1.232
	l4.93-6.783c6.088,4.742,11.57,10.226,16.313,16.314l-6.784,4.928c-1.336,0.971-1.632,2.841-0.66,4.176
	c0.585,0.806,1.497,1.234,2.423,1.234c0.607,0,1.224-0.187,1.755-0.572l6.79-4.934c4.312,6.335,7.855,13.229,10.507,20.549
	l-8.015,2.604c-1.57,0.51-2.431,2.198-1.919,3.769c0.408,1.264,1.583,2.067,2.843,2.067c0.307,0,0.618-0.047,0.925-0.147
	l8.018-2.606c2.111,7.275,3.352,14.916,3.602,22.801h-8.42c-1.65,0-2.99,1.339-2.99,2.99c0,1.653,1.34,2.991,2.99,2.991h8.42
	C203.548,112.46,202.309,120.101,200.198,127.375z"/>
<path fill="#FFFFFF" d="M168.367,100.627L168.367,100.627L168.367,100.627L168.367,100.627c-0.002-0.028-0.011-0.053-0.014-0.08
	c-0.284-15.146-6.347-29.139-16.879-39.545c0.004-0.005,0.011-0.009,0.013-0.014c-0.254-0.254-0.524-0.489-0.782-0.738
	c-0.353-0.334-0.699-0.669-1.062-0.996c-0.656-0.598-1.326-1.175-2.008-1.741c-0.099-0.081-0.194-0.164-0.293-0.244
	c-2.449-2.006-5.058-3.799-7.811-5.367c-0.319-0.183-0.641-0.363-0.963-0.54c-0.421-0.23-0.841-0.461-1.27-0.681
	c-0.854-0.441-1.719-0.858-2.591-1.253c-0.083-0.038-0.166-0.072-0.248-0.109c-5.131-2.299-10.563-3.822-16.164-4.519
	c-0.262-0.034-0.523-0.061-0.786-0.091c-0.654-0.072-1.311-0.137-1.97-0.187c-13.438-1.077-26.816,2.616-38.033,10.765
	c-8.758,6.364-15.405,14.889-19.405,24.816c-0.001,0-0.003-0.001-0.004-0.002c-0.063,0.153-0.115,0.308-0.176,0.461
	c-0.197,0.5-0.391,1.003-0.574,1.51c-0.165,0.453-0.319,0.908-0.473,1.364c-0.047,0.14-0.1,0.277-0.146,0.417
	c-0.035,0.107-0.063,0.215-0.099,0.322c-0.173,0.544-0.34,1.089-0.498,1.637c-0.022,0.076-0.042,0.152-0.063,0.229
	c-1.329,4.703-2.061,9.566-2.141,14.499c-0.003,0.029-0.012,0.056-0.014,0.085c-0.005,0.084,0.007,0.165,0.009,0.249
	c-0.032,3.203,0.187,6.431,0.698,9.659c2.179,13.76,9.136,25.982,19.711,34.844c-0.004,0.004-0.009,0.008-0.014,0.013
	c0.192,0.161,0.392,0.312,0.585,0.471c0.218,0.179,0.437,0.354,0.657,0.529c0.585,0.467,1.18,0.921,1.782,1.362
	c0.054,0.039,0.105,0.082,0.16,0.121c0.054,0.041,0.108,0.076,0.164,0.115c0.504,0.364,1.013,0.721,1.527,1.067
	c0.063,0.042,0.126,0.083,0.189,0.127c1.609,1.073,3.271,2.065,4.983,2.97c0.151,0.079,0.302,0.164,0.455,0.243
	c0.389,0.201,0.781,0.394,1.175,0.584c0.372,0.183,0.743,0.36,1.118,0.534c0.288,0.134,0.579,0.265,0.87,0.395
	c0.588,0.262,1.18,0.508,1.774,0.75c0.108,0.043,0.215,0.088,0.324,0.133c0.81,0.319,1.624,0.629,2.447,0.91
	c0.005,0.002,0.009,0.006,0.014,0.008c0.01,0.004,0.021,0.006,0.033,0.01c0.099,0.033,0.196,0.072,0.296,0.105
	c3.923,1.322,7.963,2.198,12.067,2.641c0.07,0.009,0.142,0.015,0.211,0.021c0.754,0.079,1.509,0.143,2.266,0.191
	c0.27,0.018,0.54,0.035,0.809,0.049c0.492,0.023,0.984,0.039,1.478,0.051c0.457,0.014,0.915,0.025,1.372,0.027
	c0.006,0,0.012,0,0.017,0c0.019,0,0.038,0,0.057,0c12.022,0.021,23.709-3.729,33.622-10.932c4.621-3.356,8.685-7.354,12.089-11.875
	c0.004-0.004,0.008-0.007,0.012-0.011c0.007-0.009,0.012-0.019,0.02-0.026c0.063-0.084,0.13-0.166,0.192-0.25
	c1.949-2.623,3.656-5.4,5.122-8.307c0.002,0.001,0.004,0.002,0.006,0.003c0.069-0.135,0.125-0.272,0.191-0.407
	c0.327-0.662,0.645-1.334,0.948-2.011c0.177-0.396,0.354-0.788,0.522-1.187c0.169-0.402,0.326-0.813,0.486-1.223
	c0.389-0.981,0.75-1.973,1.082-2.974c0.033-0.103,0.072-0.201,0.105-0.304c0.018-0.053,0.031-0.107,0.048-0.16
	c1.871-5.792,2.817-11.875,2.755-18.098C168.369,100.911,168.376,100.771,168.367,100.627z M154.645,74.46
	c1.262,2.018,2.359,4.128,3.324,6.302c-0.016,0.005-0.031,0.007-0.048,0.013c2.412,5.451,3.866,11.266,4.291,17.184
	c-2.893,0.089-7.517,0.143-12.215-0.17c-13.631-0.909-14.756-3.895-14.797-4.022c-0.041-0.125-0.849-3.141,9.262-11.655
	c0-0.001,0-0.002,0-0.003c0.116-0.098,0.227-0.193,0.347-0.292C148.452,78.778,152.255,76.085,154.645,74.46z M119.078,64.592
	c-0.063,0.149-0.123,0.289-0.187,0.435c-0.092,0.217-0.184,0.438-0.272,0.646c-0.056,0.128-0.11,0.248-0.164,0.373
	c-0.097,0.217-0.192,0.438-0.286,0.646c-0.038,0.086-0.076,0.166-0.115,0.25c-0.107,0.238-0.216,0.475-0.322,0.7
	c-0.026,0.057-0.054,0.11-0.081,0.167c-0.115,0.244-0.229,0.485-0.343,0.715c-0.022,0.047-0.047,0.089-0.069,0.136
	c-0.114,0.234-0.229,0.465-0.344,0.685c-0.02,0.039-0.038,0.073-0.058,0.11c-0.116,0.223-0.23,0.442-0.343,0.651
	c-0.015,0.026-0.027,0.049-0.041,0.074c-0.116,0.217-0.233,0.429-0.349,0.631c-0.004,0.008-0.009,0.015-0.013,0.023
	c-0.375,0.664-0.733,1.249-1.07,1.761c-0.003,0.005-0.006,0.009-0.01,0.015c-0.451,0.684-0.868,1.242-1.246,1.695
	c-0.001,0.001-0.002,0.002-0.003,0.003c-0.094,0.112-0.187,0.219-0.276,0.319c-0.003,0.003-0.005,0.006-0.008,0.009
	c-0.087,0.098-0.172,0.19-0.254,0.276c-0.007,0.007-0.013,0.013-0.021,0.02c-0.078,0.081-0.155,0.159-0.229,0.231
	c-0.009,0.008-0.017,0.015-0.024,0.023c-0.071,0.069-0.142,0.134-0.208,0.194c-0.016,0.014-0.029,0.025-0.044,0.038
	c-0.061,0.052-0.118,0.104-0.175,0.149c-0.021,0.016-0.039,0.03-0.059,0.046c-0.05,0.039-0.099,0.079-0.146,0.113
	c-0.024,0.019-0.049,0.035-0.072,0.052c-0.038,0.027-0.077,0.057-0.114,0.081c-0.033,0.022-0.064,0.042-0.096,0.062
	c-0.025,0.016-0.053,0.033-0.075,0.048c-0.038,0.024-0.075,0.043-0.11,0.064c-0.016,0.008-0.031,0.018-0.046,0.026
	c-0.042,0.023-0.083,0.043-0.122,0.061c-0.006,0.003-0.012,0.006-0.018,0.009c-0.312,0.146-0.489,0.155-0.522,0.155h-0.001
	c-0.134,0-3.321-0.145-8.396-12.831c-1.753-4.38-3.135-8.804-3.942-11.582c4.014-1.002,8.168-1.535,12.383-1.535
	c2.067,0,4.116,0.127,6.143,0.371c2.059,0.255,4.113,0.635,6.158,1.145c-0.604,2.079-1.531,5.089-2.698,8.316
	c-0.037,0.106-0.08,0.215-0.119,0.323c-0.157,0.43-0.315,0.861-0.48,1.296c-0.087,0.232-0.181,0.464-0.271,0.697
	c-0.122,0.317-0.244,0.634-0.371,0.952c-0.069,0.176-0.14,0.341-0.209,0.513C119.251,64.166,119.164,64.385,119.078,64.592z
	 M75.545,80.249C75.545,80.249,75.545,80.25,75.545,80.249c0.63,0.5,1.263,1.009,1.893,1.534c9.873,8.221,9.75,11.446,9.661,11.924
	c-0.006,0.032-0.011,0.051-0.014,0.059c-0.042,0.127-1.165,3.114-14.796,4.022c-4.71,0.314-9.347,0.26-12.235,0.17
	c0.208-3.004,0.685-6,1.426-8.955c0.06-0.229,0.12-0.458,0.183-0.687c0.173-0.65,0.364-1.297,0.563-1.942
	c0.177-0.563,0.362-1.122,0.558-1.679c1.257-3.611,2.879-7.04,4.864-10.231C69.616,75.802,72.542,77.869,75.545,80.249z
	 M71.909,134.568c1.878-1.456,4.747-3.6,7.943-5.722l0,0c0.671-0.446,1.351-0.892,2.042-1.327c11.6-7.311,14.271-5.549,14.378-5.471
	c0.108,0.078,2.602,2.068-0.747,15.313c-1.159,4.589-2.649,8.994-3.628,11.714c-1-0.404-1.979-0.845-2.947-1.311
	c-0.422-0.203-0.83-0.43-1.245-0.643c-0.576-0.297-1.154-0.592-1.719-0.91c-0.341-0.191-0.673-0.401-1.009-0.602
	c-0.653-0.391-1.306-0.785-1.941-1.206c-0.228-0.147-0.449-0.307-0.675-0.458c-0.745-0.51-1.483-1.031-2.203-1.582
	C77.1,140.044,74.331,137.438,71.909,134.568z M145.4,139.662c-0.004-0.006-0.008-0.014-0.012-0.02
	c-4.438,3.979-9.521,7.158-15.018,9.393c-0.364-1.018-0.801-2.265-1.263-3.666c-0.066-0.207-0.139-0.429-0.208-0.643
	c-0.086-0.264-0.17-0.521-0.257-0.794c-0.133-0.419-0.267-0.853-0.399-1.289c-0.025-0.082-0.052-0.159-0.076-0.242
	c-0.152-0.504-0.308-1.021-0.457-1.544c-0.007-0.021-0.016-0.045-0.021-0.068c-0.149-0.519-0.298-1.047-0.443-1.58
	c-0.009-0.029-0.018-0.062-0.024-0.092c-0.111-0.404-0.218-0.816-0.323-1.227c-0.043-0.167-0.089-0.333-0.132-0.501
	c-0.063-0.253-0.121-0.492-0.181-0.736c-0.039-0.157-0.08-0.317-0.116-0.473c-0.054-0.222-0.101-0.435-0.151-0.649
	c-0.038-0.167-0.077-0.337-0.113-0.5c-0.043-0.191-0.081-0.371-0.121-0.558c-0.037-0.177-0.079-0.358-0.113-0.528
	c-0.037-0.177-0.069-0.345-0.104-0.516c-0.033-0.17-0.069-0.342-0.102-0.506c-0.034-0.182-0.063-0.353-0.097-0.526
	c-0.025-0.146-0.054-0.296-0.079-0.438c-0.03-0.176-0.057-0.346-0.085-0.516c-0.021-0.13-0.045-0.264-0.063-0.391
	c-0.023-0.155-0.044-0.301-0.066-0.452c-0.02-0.134-0.039-0.271-0.058-0.399c-0.02-0.144-0.034-0.275-0.053-0.412
	c-0.016-0.129-0.033-0.261-0.048-0.385c-0.016-0.14-0.028-0.271-0.043-0.406c-0.012-0.111-0.024-0.229-0.035-0.338
	c-0.014-0.154-0.024-0.3-0.036-0.447c-0.006-0.08-0.016-0.164-0.02-0.242c-0.013-0.153-0.021-0.299-0.027-0.444
	c-0.004-0.065-0.009-0.137-0.012-0.2c-0.009-0.181-0.015-0.352-0.019-0.521c0-0.023-0.002-0.052-0.002-0.075
	c-0.004-0.18-0.005-0.35-0.004-0.518c0-0.012-0.001-0.023,0-0.037c0.02-3.078,0.781-3.94,0.958-4.1
	c0.017-0.015,0.028-0.023,0.034-0.027c0.105-0.078,2.726-1.777,13.946,5.205c0,0,0,0,0.001,0c0.133,0.084,0.252,0.151,0.387,0.238
	c4.007,2.52,7.736,5.299,10.021,7.068C148.837,136.375,147.17,138.07,145.4,139.662z M153.943,129.763
	c-2.382-1.844-6.188-4.676-10.363-7.305c-3.717-2.342-6.955-4.047-9.776-5.147c-4.049-1.581-7.229-1.905-9.666-0.987
	c-0.589,0.223-1.137,0.518-1.642,0.885c-2.507,1.82-3.641,5.164-3.428,10.267c0.009,0.194,0.023,0.397,0.035,0.599
	c0.034,0.574,0.088,1.172,0.154,1.789c0.284,2.615,0.851,5.605,1.715,9.021c0.151,0.598,0.309,1.188,0.467,1.773
	c1.11,4.086,2.373,7.819,3.267,10.301c-3.701,1.023-7.528,1.646-11.42,1.815c-0.44,0.019-0.883,0.033-1.325,0.039
	c-0.262,0.005-0.524,0.015-0.786,0.015c-0.786,0-1.572-0.02-2.36-0.057c-0.133-0.006-0.265-0.014-0.397-0.021
	c-1.759-0.096-3.523-0.276-5.288-0.557c-1.888-0.3-3.74-0.709-5.558-1.205c0.118-0.33,0.245-0.688,0.375-1.061
	c0.033-0.094,0.068-0.194,0.103-0.291c0.095-0.272,0.19-0.553,0.292-0.846c0.055-0.162,0.11-0.326,0.167-0.492
	c0.084-0.252,0.169-0.504,0.255-0.766c0.066-0.199,0.132-0.396,0.199-0.602c0.024-0.076,0.049-0.146,0.074-0.227
	c0.032-0.101,0.065-0.209,0.099-0.311c0.125-0.389,0.25-0.779,0.377-1.186c0.065-0.209,0.131-0.42,0.197-0.636
	c0.111-0.364,0.223-0.733,0.335-1.11c0.077-0.258,0.152-0.516,0.229-0.777c0.103-0.348,0.2-0.697,0.3-1.053
	c0.081-0.285,0.162-0.568,0.241-0.86c0.125-0.459,0.247-0.925,0.368-1.392c0.043-0.168,0.089-0.332,0.132-0.5
	c3.002-11.853,2.52-18.738-1.521-21.674c-0.249-0.183-0.508-0.344-0.778-0.49c-0.089-0.047-0.186-0.084-0.276-0.129
	c-0.184-0.086-0.363-0.178-0.556-0.252c-0.141-0.053-0.291-0.092-0.436-0.137c-0.151-0.048-0.3-0.102-0.456-0.139
	c-0.18-0.045-0.368-0.073-0.557-0.104c-0.132-0.022-0.26-0.053-0.396-0.068c-0.213-0.026-0.438-0.037-0.659-0.051
	c-0.119-0.006-0.234-0.019-0.354-0.021c-0.246-0.005-0.503,0.007-0.761,0.021c-0.104,0.006-0.208,0.006-0.315,0.014
	c-0.278,0.021-0.567,0.059-0.857,0.1c-0.095,0.014-0.187,0.02-0.283,0.036c-0.31,0.05-0.631,0.114-0.956,0.185
	c-0.084,0.02-0.165,0.035-0.25,0.055c-0.343,0.079-0.696,0.175-1.057,0.277c-0.071,0.021-0.142,0.039-0.213,0.063
	c-0.377,0.111-0.764,0.24-1.158,0.378c-0.061,0.022-0.12,0.042-0.181,0.063c-0.41,0.146-0.832,0.311-1.261,0.484
	c-0.049,0.02-0.097,0.037-0.146,0.059c-0.444,0.184-0.9,0.383-1.365,0.595c-0.037,0.017-0.074,0.032-0.109,0.05
	c-0.479,0.221-0.968,0.457-1.468,0.707c-0.026,0.014-0.054,0.027-0.083,0.042c-0.512,0.259-1.035,0.533-1.571,0.823
	c-0.016,0.009-0.03,0.018-0.046,0.025c-0.548,0.295-1.106,0.609-1.68,0.942c-0.005,0.003-0.01,0.007-0.016,0.009
	c-0.918,0.531-1.859,1.094-2.843,1.715c-4.181,2.633-7.991,5.465-10.372,7.312c-0.15-0.229-0.287-0.468-0.434-0.696
	c0.014-0.004,0.025-0.006,0.038-0.01c-4.82-7.591-7.539-16.27-7.954-25.121c0.104,0.003,0.228,0.006,0.336,0.009
	c0.234,0.007,0.471,0.013,0.723,0.019c0.164,0.004,0.336,0.008,0.507,0.011c0.239,0.005,0.48,0.01,0.734,0.012
	c0.182,0.004,0.366,0.006,0.555,0.008c0.265,0.003,0.534,0.006,0.811,0.007c0.192,0.001,0.384,0.003,0.582,0.003
	c0.085,0,0.165,0.001,0.251,0.001c0.124,0,0.26-0.002,0.385-0.003c0.382-0.001,0.768-0.003,1.166-0.007
	c0.235-0.003,0.474-0.007,0.715-0.009c0.373-0.008,0.749-0.016,1.131-0.025c0.269-0.006,0.536-0.013,0.809-0.021
	c0.387-0.012,0.777-0.027,1.17-0.043c0.266-0.011,0.526-0.019,0.793-0.031c0.655-0.031,1.314-0.068,1.979-0.111
	c7.635-0.505,12.999-1.708,16.322-3.703c1.985-1.192,3.242-2.666,3.82-4.443c0.043-0.133,0.067-0.27,0.103-0.403
	c0.042-0.159,0.091-0.315,0.121-0.477c0.029-0.163,0.041-0.329,0.059-0.493c0.016-0.14,0.04-0.276,0.048-0.418
	c0.01-0.184,0-0.374-0.005-0.561c-0.003-0.125,0.002-0.248-0.007-0.374c-0.015-0.206-0.05-0.417-0.081-0.626
	c-0.018-0.112-0.027-0.221-0.048-0.333c-0.043-0.228-0.106-0.46-0.169-0.692c-0.027-0.098-0.047-0.195-0.077-0.294
	c-0.075-0.249-0.169-0.501-0.268-0.755c-0.032-0.086-0.06-0.171-0.097-0.258c-0.108-0.27-0.239-0.544-0.374-0.82
	c-0.036-0.074-0.067-0.146-0.104-0.221c-0.148-0.291-0.314-0.587-0.489-0.885c-0.037-0.063-0.071-0.125-0.109-0.187
	c-0.188-0.312-0.394-0.629-0.61-0.95c-0.035-0.051-0.067-0.102-0.103-0.152c-0.23-0.334-0.479-0.674-0.742-1.017
	c-0.029-0.04-0.059-0.078-0.089-0.117c-0.274-0.356-0.569-0.719-0.879-1.085c-0.022-0.027-0.045-0.054-0.067-0.081
	c-0.321-0.378-0.662-0.762-1.021-1.151c-0.016-0.018-0.032-0.035-0.047-0.053c-0.369-0.4-0.759-0.807-1.167-1.219
	c-0.005-0.005-0.011-0.011-0.016-0.016c-1.498-1.513-3.241-3.103-5.268-4.79c-3.795-3.162-7.668-5.911-10.159-7.605
	c0.17-0.212,0.358-0.41,0.532-0.62c0.006,0.009,0.011,0.018,0.017,0.026c5.729-6.932,13.145-12.198,21.435-15.328
	c0.844,2.894,2.257,7.403,4.082,11.97c4.537,11.352,8.976,16.639,13.971,16.639c1.875,0,3.671-0.745,5.423-2.275
	c0.031-0.029,0.063-0.064,0.099-0.092c0.257-0.23,0.516-0.471,0.771-0.736c0.259-0.267,0.518-0.559,0.775-0.861
	c0.029-0.034,0.059-0.063,0.088-0.099c2.303-2.74,4.546-6.9,6.814-12.577c0.062-0.154,0.117-0.307,0.18-0.461
	c0.181-0.462,0.359-0.922,0.534-1.379c0.103-0.27,0.196-0.533,0.297-0.801c0.129-0.347,0.257-0.693,0.379-1.035
	c0.104-0.293,0.206-0.579,0.308-0.867c0.105-0.301,0.21-0.599,0.313-0.894c0.103-0.302,0.204-0.599,0.305-0.895
	c0.087-0.261,0.172-0.516,0.255-0.771c0.063-0.188,0.131-0.387,0.189-0.571c0.05-0.149,0.093-0.288,0.14-0.435
	c0.011-0.034,0.021-0.068,0.033-0.103c0.457-1.428,0.849-2.72,1.159-3.786c0.434,0.163,0.854,0.345,1.281,0.518
	c0.486,0.199,0.977,0.392,1.456,0.606c0.344,0.151,0.679,0.313,1.015,0.471c0.724,0.341,1.441,0.693,2.151,1.07
	c0.161,0.085,0.324,0.169,0.484,0.256c1.949,1.063,3.844,2.251,5.668,3.575c0.926,0.672,1.821,1.373,2.688,2.097
	c0.032,0.026,0.064,0.052,0.097,0.078c2.641,2.211,5.02,4.652,7.13,7.279c-2.198,1.497-5.471,3.813-8.817,6.51
	c-0.001,0-0.001,0-0.001-0.001c-0.444,0.359-0.891,0.723-1.336,1.094c-8.809,7.333-12.574,12.938-11.738,17.524
	c0.058,0.306,0.133,0.608,0.229,0.905c0,0.001,0,0.002,0.001,0.004c0.194,0.593,0.463,1.154,0.81,1.68
	c0.055,0.082,0.123,0.157,0.181,0.238c0.128,0.178,0.252,0.356,0.397,0.526c0.146,0.169,0.313,0.329,0.478,0.49
	c0.074,0.074,0.139,0.152,0.218,0.225c3.021,2.771,8.91,4.378,18.059,4.982c0.244,0.017,0.484,0.025,0.729,0.04
	c0.403,0.023,0.807,0.049,1.204,0.068c0.348,0.016,0.688,0.028,1.031,0.041c0.301,0.012,0.602,0.024,0.896,0.034
	c0.36,0.011,0.712,0.02,1.064,0.028c0.266,0.006,0.527,0.012,0.787,0.016c0.366,0.007,0.723,0.012,1.075,0.016
	c0.211,0.002,0.417,0.003,0.623,0.004c0.245,0.001,0.501,0.005,0.739,0.005c1.718,0,3.247-0.03,4.49-0.068
	c-0.18,3.958-0.8,7.912-1.899,11.781c-0.013,0.038-0.022,0.075-0.034,0.114c-0.148,0.521-0.308,1.039-0.475,1.557
	c-0.017,0.05-0.034,0.1-0.051,0.146c-0.315,0.965-0.664,1.916-1.035,2.855c-0.067,0.171-0.135,0.344-0.203,0.514
	c-0.363,0.894-0.755,1.775-1.169,2.647c-0.051,0.106-0.096,0.218-0.146,0.323C156.297,125.916,155.184,127.876,153.943,129.763z"/>
<path fill="#DF9D26" d="M21.974,2.996C21.974,1.341,20.633,0,18.978,0c-1.654,0-2.997,1.341-2.997,2.996
	c0,3.061-1.07,5.873-2.85,8.095c-1.339,1.672-3.076,3.013-5.074,3.862c-1.557,0.661-3.266,1.028-5.062,1.028
	C1.341,15.981,0,17.323,0,18.978s1.341,2.996,2.996,2.996c4.313,0,8.129,2.121,10.491,5.366c1.234,1.695,2.066,3.695,2.361,5.868
	c0.078,0.574,0.132,1.156,0.132,1.75c0,1.657,1.341,2.999,2.997,2.999c1.655,0,2.996-1.341,2.996-2.999
	c0-7.159,5.826-12.985,12.985-12.985c1.655,0,2.996-1.341,2.996-2.996c0-1.655-1.341-2.997-2.996-2.997
	c-1.639,0-3.197-0.317-4.643-0.872c-1.924-0.74-3.625-1.922-4.982-3.427C23.253,9.378,21.974,6.337,21.974,2.996z M18.978,24.733
	c-0.38-0.59-0.792-1.156-1.232-1.699c-1.28-1.58-2.809-2.954-4.523-4.057c0.145-0.093,0.274-0.204,0.415-0.299
	c1.691-1.153,3.185-2.566,4.427-4.19c0.315-0.413,0.631-0.827,0.914-1.267c0.92,1.434,2.046,2.714,3.306,3.85
	c0.769,0.693,1.575,1.344,2.45,1.906C22.426,20.459,20.459,22.428,18.978,24.733z"/>
<path fill="#DF9D26" d="M220.905,167.1c-1.387,0-2.701-0.293-3.897-0.815c-3.354-1.461-5.725-4.746-5.872-8.597
	c-0.006-0.126-0.02-0.249-0.02-0.376c0-1.654-1.343-2.996-2.996-2.996c-1.655,0-2.997,1.342-2.997,2.996
	c0,0.664-0.068,1.313-0.194,1.939c-0.903,4.472-4.86,7.849-9.594,7.849c-1.654,0-2.996,1.342-2.996,2.997
	c0,0.039,0.01,0.076,0.012,0.117c0.063,1.599,1.37,2.879,2.984,2.879c2.621,0,4.998,1.039,6.757,2.724
	c1.863,1.784,3.031,4.289,3.031,7.065c0,1.654,1.342,2.996,2.997,2.996c1.653,0,2.996-1.342,2.996-2.996
	c0-5.396,4.393-9.789,9.789-9.789c1.654,0,2.996-1.342,2.996-2.996c0-0.053-0.012-0.1-0.016-0.151
	C223.805,168.362,222.509,167.1,220.905,167.1z M208.119,173.64c-0.985-1.357-2.184-2.557-3.542-3.543
	c0.354-0.258,0.696-0.53,1.027-0.814c0.94-0.809,1.785-1.724,2.515-2.728c0.485,0.67,1.024,1.3,1.608,1.886
	c0.599,0.602,1.244,1.156,1.936,1.656C210.303,171.083,209.105,172.283,208.119,173.64z"/>
<path fill="#DF9D26" d="M181.88,205.738c0.721,1.361,1.133,2.912,1.133,4.559c0,1.654,1.341,2.996,2.995,2.996
	c1.655,0,2.997-1.342,2.997-2.996c0-3.887,2.282-7.244,5.575-8.823c1.277-0.613,2.705-0.968,4.214-0.968
	c1.019,0,1.916-0.51,2.457-1.286c0.338-0.484,0.539-1.073,0.539-1.71c0-1.655-1.341-2.996-2.996-2.996
	c-3.366,0-6.341-1.707-8.104-4.303c-1.063-1.565-1.685-3.455-1.685-5.485c0-0.472-0.118-0.911-0.313-1.306
	c-0.485-0.998-1.5-1.69-2.685-1.69c-1.654,0-2.995,1.342-2.995,2.996c0,5.397-4.391,9.788-9.787,9.788
	c-1.657,0-2.999,1.341-2.999,2.996c0,1.656,1.342,2.996,2.999,2.996c1.389,0,2.71,0.297,3.909,0.822
	C179.172,202.218,180.846,203.783,181.88,205.738z M189.552,197.509c-0.042,0.029-0.079,0.064-0.122,0.096
	c-1.306,0.969-2.466,2.131-3.422,3.447c-0.421-0.582-0.891-1.129-1.388-1.647c-0.66-0.69-1.376-1.331-2.152-1.896
	c1.357-0.985,2.555-2.184,3.54-3.543C186.995,195.328,188.193,196.524,189.552,197.509z"/>
</svg>
